<svg width="28" height="28" viewBox="0 0 28 28" fill="none" xmlns="http://www.w3.org/2000/svg">
<path fill-rule="evenodd" clip-rule="evenodd" d="M13.318 20.224C10.8234 19.1541 8.09742 18.6714 5.36383 18.8227L5.36365 8.45103L6.60784 8.36487C8.63979 8.22416 10.6812 8.44291 12.6326 9.01045L13.318 9.2098V20.224ZM14.6816 20.2243C17.1764 19.1542 19.9025 18.6714 22.6363 18.8227L22.6362 8.45103L21.3919 8.36487C19.36 8.22416 17.3186 8.44291 15.3672 9.01045L14.6816 9.20986V20.2243ZM4 7.42402C4 7.30829 4.09216 7.21223 4.2111 7.204L6.51079 7.04475C8.7075 6.89263 10.9144 7.12911 13.024 7.74268L13.9346 8.00753C13.9772 8.01991 14.0226 8.01991 14.0651 8.00753L14.9758 7.74268C17.0854 7.12911 19.2923 6.89263 21.489 7.04475L23.7887 7.204C23.9076 7.21223 23.9998 7.30829 23.9998 7.42402L24 20.0053C24 20.1334 23.8881 20.2345 23.7566 20.2254L22.785 20.1581C19.7689 19.9492 16.754 20.5802 14.0946 21.9768C14.0356 22.0077 13.9646 22.0077 13.9056 21.9768C11.2462 20.5802 8.23131 19.9492 5.21521 20.1581L4.24366 20.2254C4.11211 20.2345 4.00022 20.1334 4.00021 20.0054L4 7.42402Z" fill="white"/>
</svg>
