<svg width="144" height="156" viewBox="0 0 144 156" fill="none" xmlns="http://www.w3.org/2000/svg">
<g clip-path="url(#clip0_270_106485)">
<path fill-rule="evenodd" clip-rule="evenodd" d="M60.7983 102.747C67.8918 102.747 71.4657 94.1404 66.4481 89.1251C63.3277 86.0115 58.2727 86.0093 55.1513 89.1251C50.137 94.1392 53.707 102.747 60.7983 102.747Z" fill="#00D6F9"/>
<path fill-rule="evenodd" clip-rule="evenodd" d="M32.0809 95.355C32.798 88.0614 29.4615 80.8505 27.3052 76.2883L26.2619 74.043C16.3261 77.5929 8.40765 84.1856 2.0625 92.9126C8.41101 100.399 15.7944 106.622 24.3088 111.165C26.7176 107.287 29.5302 103.72 31.1164 98.7219L31.1471 98.6377C31.0108 96.6763 31.9435 95.7216 32.0815 95.3555M110.326 108.223C119.397 113.598 126.707 120.609 131.637 129.623C131.372 118.676 123.737 109.728 115.777 102.818C114.594 101.792 113.16 100.746 111.563 101.107C108.187 101.876 107.399 106.358 110.326 108.223L110.326 108.223ZM117.543 135.047C113.505 129.318 111.136 122.732 115.662 117.284C113.176 116.716 110.563 116.372 107.881 116.225C101.47 124.217 109.449 130.629 117.543 135.047ZM124.685 104.839C131.985 104.574 138.13 114.939 141.731 122.066C140.222 108.073 136.331 90.809 122.286 99.9322C123.207 101.531 124.009 103.171 124.685 104.839ZM60.9594 103.605C52.2496 103.605 48.9851 95.2886 55.151 89.1255C56.9259 87.3522 58.0904 84.9657 60.798 84.9657C63.5057 84.9657 65.9581 86.0638 67.7363 87.8371C71.6487 94.6391 69.6749 103.605 60.9594 103.605ZM66.0173 108.171L69.9318 105.7L69.7408 104.522C68.9963 100.806 71.6464 97.015 74.1541 94.5465C74.5272 85.195 64.9935 80.1882 58.4724 81.6255C56.726 82.0106 58.1636 81.4827 56.5853 83.444L54.697 85.7067L47.2588 93.3172L47.4454 94.7669C47.4454 104.301 57.3068 111.731 66.0178 108.17L66.0173 108.171Z" fill="#EA1C24"/>
<path fill-rule="evenodd" clip-rule="evenodd" d="M87.0507 71.6137C84.934 73.0243 83.244 74.4879 81.9639 76.0453C87.4886 74.835 93.2685 76.7054 97.0284 80.969C100.713 77.1713 106.911 77.1401 108.688 75.6078C108.887 75.1151 109.815 75.0191 110.151 72.4194C110.47 69.9604 109.992 66.4048 108.663 61.543C106.801 62.3399 104.89 63.0909 102.894 63.7136C100.643 64.4167 98.2772 64.9608 95.7366 65.2264C93.3356 68.1112 91.8438 69.1178 87.0507 71.6137ZM110.34 60.7769C111.863 66.2765 112.761 71.6126 111.37 74.931C117.853 74.282 120.87 70.7739 120.763 64.2253C120.641 56.915 116.616 46.0347 108.693 31.5883C103.853 33.0435 99.6573 35.747 96.0242 39.3901C101.874 42.8759 106.205 47.611 107.886 54.0112C109.337 53.095 110.766 52.0159 112.325 53.2752C114.309 54.875 113.998 58.7815 110.339 60.7769H110.34ZM97.3719 63.1752C101.248 63.3415 105.492 63.3454 109.294 60.3205C113.399 58.5209 111.819 53.8198 110.31 54.673L107.291 55.9999C105.204 57.6388 101.857 59.9488 99.115 60.3768C98.5866 61.3572 98.0047 62.2891 97.3719 63.1746V63.1752ZM80.132 48.9999C84.1387 45.8372 87.2417 41.5245 88.9245 36.4768C88.5224 36.4132 88.1292 36.3195 87.7494 36.1978C84.1566 47.1713 73.7639 54.5291 62.2046 54.2579C63.0798 54.4565 63.9695 54.6139 64.8748 54.7277C70.5699 54.442 75.865 52.3685 80.1314 48.9999H80.132ZM88.528 31.8059C92.3481 35.4998 98.1806 29.9327 94.3627 26.2399C90.5403 22.5465 84.71 28.1136 88.528 31.8059ZM97.8103 27.6823L96.6659 36.3005C99.7405 33.621 103.143 31.5693 106.956 30.2429C104.206 28.1142 101.081 27.5863 97.8103 27.6823ZM90.5827 34.7298C84.7424 33.8983 83.6148 26.0887 89.0429 23.7479C82.2867 24.9861 83.2149 34.7465 90.1337 34.7465L90.5827 34.7298ZM48.2253 10.4397C62.2163 4.90555 78.3398 9.93251 86.6542 22.6458C87.1044 22.4204 87.5802 22.2363 88.0778 22.1007C84.003 16.0052 78.1571 11.5987 71.5791 9.25455C64.6536 6.7871 56.9133 6.60018 49.5623 9.12342L48.2247 10.4397H48.2253ZM53.359 6.20791C67.5774 3.29685 82.2331 9.44985 90.07 21.8262C92.3074 21.8262 94.1878 22.6698 95.6433 24.1329C92.4721 5.10643 69.9159 -4.35826 53.359 6.20791ZM58.4213 70.5518C60.6721 70.8353 62.0337 72.1471 61.6701 74.5287L65.2082 73.5282C77.4484 73.8189 91.4355 71.0167 97.6338 59.282C98.9871 56.6355 100.161 53.2925 101.065 50.5182C101.152 53.1904 101.24 55.818 100.136 58.2844C102.305 57.6505 104.267 56.3693 106.265 55.0575C104.809 48.7488 100.603 44.1783 94.867 40.8186C93.7003 43.1348 92.2174 45.2753 90.4721 47.1853C88.4314 52.0209 84.8904 55.4899 79.9125 57.7626C66.0644 64.0858 53.3099 57.5908 50.0761 66.0606C48.6581 69.7768 50.0521 73.9567 53.3428 76.0938C54.7642 73.5538 55.6254 70.2003 58.4207 70.5524L58.4213 70.5518ZM40.5805 91.0391C45.287 87.5015 49.0502 83.1714 52.1476 78.1283C46.8324 77.5218 43.5243 74.8713 42.5755 71.1216C39.5143 69.947 36.9011 70.3856 34.5805 71.8827C38.1493 77.2215 40.1381 86.0429 40.5799 91.0391H40.5805ZM71.4679 103.81C71.7282 105.561 72.8949 106.575 74.9178 106.889C78.7268 107.479 85.2557 105.452 94.2627 98.8276C94.934 97.7987 92.972 87.3954 95.8969 82.4427C92.0605 77.8655 86.0706 76.3963 80.3649 78.4196C78.4403 82.037 78.3967 86.2549 80.0343 91.4694C80.4112 92.6757 78.2068 93.0769 75.6902 95.5918C73.7986 97.3953 71.0301 100.884 71.4679 103.811V103.81ZM66.5492 108.808C60.5324 111.269 54.1353 109.569 50.0186 105.445C47.4154 102.838 45.726 99.2584 45.6249 95.1493C43.994 96.7078 42.4637 98.1078 41.1697 99.2495C40.9753 100.264 40.4777 101.17 39.7768 101.871C39.5154 102.132 39.2267 102.364 38.9145 102.563C38.8553 102.637 37.0921 108.637 31.7695 114.603C48.1476 121.058 65.6712 122.105 83.5316 117.336C86.8223 116.457 90.1923 115.735 93.5685 115.219C100.873 105.684 103.129 94.5021 99.9533 82.8523L98.3694 82.2279C94.0231 86.6461 97.5216 98.7529 95.5673 100.123C86.0047 107.207 78.8949 109.344 74.6419 108.684L70.5559 106.386C69.3663 107.386 68.0164 108.206 66.5503 108.808L66.5492 108.808ZM59.3484 79.6734C67.6238 78.8793 74.9346 84.8806 75.879 93.0072C76.562 92.447 77.3004 91.8946 78.099 91.3544C75.9516 84.0252 76.9982 78.3671 81.7645 73.5611C77.0373 74.8942 69.5768 74.9578 63.2887 74.7848L60.7921 77.1462C60.4118 77.9408 59.9231 78.7884 59.3479 79.6734H59.3484ZM56.4598 74.08C52.3945 82.3037 46.9312 89.1347 39.3613 94.1187L41.2144 96.763C43.0379 95.1125 56.7564 82.3099 59.23 76.1943C59.9605 74.3858 60.6469 72.6616 58.1929 72.3525C57.1395 72.2202 56.6319 73.7358 56.4598 74.0795V74.08ZM33.9097 100.584C36.9161 103.591 41.502 99.0224 38.4855 96.0086C35.4685 92.9944 30.896 97.5721 33.9097 100.584ZM50.4085 75.9755C46.0611 71.2638 46.834 62.9536 53.4892 60.3975C58.1979 58.5901 65.3585 59.9299 73.516 57.9998C70.4448 58.5846 67.2267 58.5511 63.884 57.7877C45.8762 53.6714 37.4087 72.7336 50.409 75.9761L50.4085 75.9755Z" fill="white"/>
<path fill-rule="evenodd" clip-rule="evenodd" d="M131.56 133.521C129.312 128.659 125.614 122.842 121.928 118.891L120.273 118.66C120.636 130.693 128.891 143.08 137.619 153.111C140.607 137.98 142.442 117.202 127.919 113.422C132.013 119.517 134.097 126.055 133.292 133.24C133.19 134.151 131.946 134.354 131.56 133.521" fill="#FFD554"/>
<path fill-rule="evenodd" clip-rule="evenodd" d="M36.6325 103.454C34.8191 103.6 33.1274 102.816 32.0656 101.42C29.9768 106.482 27.5669 109.075 25.4535 112.785C24.5013 114.459 22.8548 116.869 25.1581 117.811L28.3466 117.404C32.0897 113.774 34.6833 108.279 36.6325 103.454ZM33.5289 94.42C35.6082 93.3838 36.8833 93.4859 37.6674 93.0456L38.8436 92.2767C39.8456 86.1087 35.9975 75.3254 32.3008 71.3073C30.9464 69.8359 29.9305 69.2227 28.0092 69.2227C26.2483 69.2227 26.6856 70.4117 27.6149 72.5996C30.1762 78.626 33.9528 86.0724 33.5295 94.42H33.5289ZM124.022 108.389C122.965 99.5078 115.034 89.9996 102.073 83.7997C104.705 94.8971 102.602 105.596 96.0746 114.872C103.512 113.964 111.025 114.056 118.23 116.071C115.572 113.799 112.627 111.704 109.4 109.791C105.042 107.09 106.215 100.463 111.156 99.337C113.502 98.8694 115.255 99.9597 116.966 101.444C119.629 103.758 121.985 106.07 124.022 108.389Z" fill="#02A9FD"/>
<path fill-rule="evenodd" clip-rule="evenodd" d="M109.339 74.8427C109.472 74.6664 109.611 74.4387 109.738 74.1279C109.621 74.3852 109.488 74.6234 109.339 74.8427ZM108.414 75.8109C108.514 75.7461 108.605 75.6786 108.687 75.6077L108.701 75.5765C108.609 75.6596 108.514 75.7372 108.414 75.8109ZM87.05 71.6136C86.7434 71.8184 86.4435 72.0249 86.1547 72.2324L86.2581 72.5393C90.3636 71.9172 93.6867 70.6366 96.229 68.6992C98.5323 66.0811 103.483 65.4283 103.834 67.3913C104.185 69.3554 100.707 75.2294 93.026 77.7186C94.5088 78.5601 95.8643 79.6504 97.0277 80.9684C99.7342 78.1779 103.8 77.4195 106.47 76.6071L106.266 76.64C109.453 74.1263 109.819 69.2745 107.363 62.087C105.912 62.6796 104.428 63.2348 102.893 63.713C100.642 64.4161 98.2765 64.9601 95.7359 65.2257C93.3349 68.1105 91.8431 69.1172 87.05 71.6131V71.6136ZM97.3712 63.1751C100.721 63.3196 104.344 63.3408 107.719 61.3928C107.765 61.3549 107.815 61.3253 107.868 61.3058C108.349 61.019 108.823 60.6931 109.292 60.3204C111.19 59.4884 111.872 58.0376 111.908 56.8006C111.86 56.4574 111.788 56.1025 111.691 55.7359C110.023 57.6158 106.79 59.3673 101.994 60.9922C100.831 61.2182 101.448 60.0313 102.22 59.4733L102.094 59.3662C101.08 59.8578 100.061 60.23 99.1142 60.3779C98.5859 61.3583 98.0039 62.2901 97.3712 63.1756V63.1751ZM110.339 60.7768C111.863 66.2764 112.76 71.6125 111.369 74.9309C117.852 74.2819 120.87 70.7738 120.762 64.2252C120.751 63.5846 120.71 62.9162 120.64 62.222C119.057 71.122 115.829 73.3021 114.477 72.4506C115.902 69.1183 115.808 65.1108 114.198 60.4292C116.296 58.7379 116.862 55.7794 115.537 53.4347C114.212 51.0895 111.384 50.0455 108.852 50.9651C106.316 44.5799 103.198 40.7209 99.494 39.3889C100.602 36.9254 103.62 34.5422 108.546 32.2382C107.263 32.4218 106.048 32.6891 104.898 33.0406C101.621 34.579 98.6725 36.7351 96.0235 39.3906C101.873 42.8764 106.204 47.6115 107.885 54.0117C109.336 53.0955 110.765 52.0163 112.325 53.2757C114.308 54.8755 113.997 58.782 110.338 60.7774L110.339 60.7768ZM104.602 31.1753C103.078 30.1558 100.793 29.1559 97.7437 28.1777L96.6652 36.3004C99.0936 34.1856 101.725 32.4609 104.602 31.1753ZM63.8827 57.7871C62.0453 57.3669 60.3089 57.1923 58.6842 57.214C47.0997 60.1753 43.2773 65.9768 47.2148 74.6156C48.0838 75.1943 49.1427 75.6619 50.4077 75.9766C46.0592 71.2587 46.8344 62.9508 53.4884 60.3985C58.2028 58.5889 65.3577 59.9309 73.5152 57.9997C70.444 58.5845 67.2259 58.551 63.8833 57.7877L63.8827 57.7871ZM74.8568 54.2433C80.3848 52.9805 85.312 50.0901 89.0092 46.0882C91.9889 42.8278 94.1279 39.0357 95.2237 34.6627C94.0341 35.7067 92.5044 36.3925 90.8193 36.5404C88.3083 44.5638 82.429 50.9751 74.8568 54.2433ZM87.7487 36.1978C84.1558 47.1713 73.7632 54.529 62.2039 54.2589C63.0791 54.4564 63.9688 54.6138 64.873 54.7293C70.5703 54.443 75.8643 52.3684 80.1307 49.0009C84.1374 45.8371 87.2405 41.5255 88.9244 36.4768C88.5211 36.4131 88.1279 36.3194 87.7481 36.1978H87.7487ZM76.9294 58.9254C82.3083 54.7466 86.2005 51.9851 88.6054 50.6386C89.3248 49.5762 89.9475 48.4251 90.4714 47.1847C92.1508 45.3483 93.5873 43.2966 94.7333 41.0802L95.0059 41.2113L94.8663 40.8179C100.67 45.7579 104.04 50.7854 104.973 55.8961C103.41 56.891 101.838 57.7871 100.135 58.2837C101.239 55.8174 101.151 53.1898 101.065 50.5176C100.16 53.2919 98.9863 56.6348 97.6331 59.2814C91.4348 71.016 77.4471 73.8183 65.2075 73.5275L61.6694 74.528C62.033 72.1465 60.6719 70.8347 58.4206 70.5512C57.0277 70.3765 56.114 71.1209 55.3728 72.228L55.3432 72.2045C55.8397 70.4441 57.2008 69.0563 58.9545 68.5285C60.7065 68.0001 62.1693 69.6763 63.9972 69.597C84.9584 68.6875 96.6618 61.0977 96.4915 50.4997C96.4156 45.7763 90.5133 49.7453 90.4999 49.7687C87.1617 55.5015 82.6255 58.5471 76.9294 58.9243V58.9254ZM89.5828 25.5267C91.4678 25.477 93.1131 26.8067 93.4566 28.6654C93.8023 30.5414 92.7144 32.385 90.9042 32.9932C94.2553 33.4005 97.4354 29.2111 94.3608 26.2404C92.8428 24.7712 91.0053 24.7667 89.5828 25.5267ZM68.496 1.82422C80.6892 5.07732 87.9012 11.7442 90.133 21.8255C92.3418 21.8422 94.2 22.6831 95.6426 24.1323C93.3812 10.5674 81.265 1.8616 68.496 1.82422ZM40.1765 93.5684C39.9062 93.7543 39.6353 93.9378 39.3605 94.1186L41.2137 96.763C43.0372 95.1124 56.7557 82.3098 59.2293 76.1942C59.9598 74.3857 60.6462 72.6615 58.1922 72.3524C57.9386 72.32 57.7163 72.3848 57.5219 72.5053L57.3343 72.6626C60.057 74.9158 54.8266 82.2747 41.6459 94.738C41.3656 94.3736 41.3041 93.9775 40.1765 93.5684ZM76.7668 90.6334C76.6066 90.2964 76.4474 89.9426 76.2955 89.5754C76.4569 89.9197 76.6121 90.2729 76.7668 90.6334ZM81.7643 73.561C75.6286 75.2908 70.6138 74.6753 63.2885 74.7847L60.792 77.1461C60.4116 77.9407 59.923 78.7883 59.3477 79.6733C67.623 78.8793 74.9338 84.8805 75.8783 93.0071C76.5613 92.4469 77.2997 91.8945 78.0983 91.3543C75.9509 84.0262 76.9975 78.3648 81.7638 73.561H81.7643ZM76.2955 89.5754C72.7456 81.9415 67.7777 78.2872 61.3929 78.6114C62.8713 77.0128 65.8537 77.0345 70.3614 76.7751C76.1179 76.4436 77.1734 77.198 75.7085 81.7278C74.7585 84.6679 75.389 87.3792 76.2949 89.5754H76.2955ZM44.1659 98.077C45.3019 103.695 49.2857 108.316 54.6775 110.27C59.8453 112.144 65.5879 111.31 69.9978 108.088C72.7144 110.711 78.2016 111.221 85.4566 107.444C92.8389 104.584 97.4521 101.903 97.5454 99.1512C97.7001 94.5862 97.4102 89.8918 98.4373 85.0144C98.6535 84.2834 99.4058 83.8499 100.146 84.0273C100.185 84.0362 100.223 84.0474 100.261 84.0597C100.164 83.6579 100.061 83.2551 99.9509 82.8511L98.367 82.2267C94.0229 86.6437 97.5158 98.75 95.565 100.123C86.0023 107.206 78.8925 109.342 74.6395 108.682L70.5546 106.386C70.1614 106.716 69.7504 107.026 69.3231 107.316C68.4597 107.902 67.5303 108.403 66.5485 108.807C60.5317 111.267 54.1346 109.568 50.0179 105.444C47.4147 102.835 45.7252 99.2572 45.6242 95.1487C43.9933 96.7066 42.4619 98.1066 41.1679 99.2494C40.9746 100.263 40.477 101.169 39.7761 101.87C39.5147 102.131 39.2259 102.362 38.9137 102.561C38.8936 102.588 38.6674 103.327 38.1592 104.531C40.6557 103.559 42.2318 101.76 42.8847 99.1333L44.1665 98.0765L44.1659 98.077ZM42.5753 71.1209C42.6697 75.1725 44.9634 77.8308 49.4588 79.098C50.1212 80.4662 47.0886 83.8019 40.3575 89.1045C40.453 89.7953 40.5278 90.4437 40.5803 91.0385C45.2835 87.5058 49.0534 83.1652 52.1475 78.1276C46.8322 77.5211 43.5231 74.8695 42.5753 71.1209ZM81.322 111.768C59.6962 117.073 45.0109 115.316 37.2527 106.494C36.2653 108.476 34.7758 111.006 32.6328 113.596C45.4013 118.666 57.6387 120.304 69.2081 118.697C79.1891 117.309 87.7157 114.869 94.1765 114.402C95.5901 112.462 96.7992 110.457 97.799 108.395C92.7389 108.614 87.2466 109.738 81.322 111.768ZM33.9364 96.037C35.3684 95.493 36.9852 96.0476 37.7828 97.355C38.5781 98.6629 38.3295 100.352 37.1874 101.374C39.1667 100.643 40.4692 97.9889 38.4859 96.0086C36.9757 94.5025 35.0796 94.8937 33.9364 96.037ZM71.4672 103.81C71.7275 105.561 72.8942 106.575 74.9171 106.889C78.7261 107.479 85.255 105.452 94.262 98.8275C94.9333 97.7986 92.9713 87.3954 95.8961 82.4426C94.7132 81.032 93.3281 79.9182 91.8079 79.1097L91.7487 79.098C87.308 83.5486 93.4415 92.6254 88.0386 98.4169C81.2416 105.702 67.4583 103.17 79.6236 92.5256C78.892 93.1845 77.36 93.9228 75.6901 95.5917C73.7984 97.3952 71.0299 100.884 71.4678 103.81L71.4672 103.81Z" fill="#CBC5CF"/>
<path fill-rule="evenodd" clip-rule="evenodd" d="M62.7951 53.769C73.6747 53.5525 83.7323 46.0821 87.0263 35.7218C82.5482 32.967 81.5686 27.1499 85.539 23.7941C81.1509 17.0781 74.5661 12.5617 67.2983 10.6472C59.8378 8.68197 51.6518 9.45814 44.3762 13.4004C41.3503 17.7856 39.5859 23.0576 39.5859 28.7257C39.5859 36.3601 42.7867 43.2731 47.9601 48.2783C49.3 49.5729 50.7733 50.7413 52.3578 51.7613C55.6948 53.173 59.2547 53.8404 62.7957 53.769" fill="#381A46"/>
<path fill-rule="evenodd" clip-rule="evenodd" d="M75.629 39.2267C78.9097 45.7323 73.0599 50.011 58.1758 52.0075C59.8653 52.3328 61.5799 52.4774 63.2911 52.4439C73.7401 52.2324 82.918 45.3802 86.0803 35.4301C81.7792 32.7846 81.3218 26.876 85.1336 23.6531C80.9192 17.2032 74.5947 12.8659 67.6156 11.0273C74.3422 16.1514 77.2464 21.9791 76.3277 28.5093C75.8401 31.985 73.8496 35.6985 75.629 39.2261" fill="#271B3D"/>
<g opacity="0.5">
<path fill-rule="evenodd" clip-rule="evenodd" d="M77.1117 30.3837C76.2517 29.8809 75.0436 30.3463 74.4119 31.4238C73.7814 32.5002 73.9663 33.7819 74.828 34.2852C75.6881 34.7879 76.8962 34.3226 77.5289 33.2468C78.1595 32.1693 77.9718 30.8881 77.1117 30.3842M72.5158 18.2378C74.3566 17.1687 76.9381 18.1709 78.279 20.4748C79.6189 22.7799 79.2139 25.5141 77.3748 26.5832C75.534 27.6534 72.9537 26.6507 71.6116 24.3468C70.2718 22.0422 70.6767 19.3075 72.5164 18.2373L72.5158 18.2378ZM44.8392 37.9255C39.7429 21.4 45.6105 12.866 62.441 12.3242C49.2463 15.8764 43.6356 25.2825 44.8392 37.9255Z" fill="white"/>
</g>
<path fill-rule="evenodd" clip-rule="evenodd" d="M29.5537 102.574C20.1077 102.434 10.9438 99.2141 2.0625 92.9138C9.76873 101.518 17.5286 107.067 25.3415 109.56C26.7902 107.322 28.3049 105.11 29.5537 102.574ZM110.859 105.998C109.312 104.902 109.058 103.493 110.1 101.77C108.778 102.737 108.26 104.451 108.649 105.959C108.882 106.839 109.429 107.655 110.326 108.225C114.632 110.777 118.542 113.696 121.988 117.026C121.993 117.031 121.998 117.036 122.003 117.04C125.509 120.394 128.517 124.17 131.079 128.632C131.134 128.727 131.19 128.823 131.244 128.921C131.376 129.153 131.506 129.389 131.636 129.625C127.963 119.716 121.448 112.07 112.09 106.685C111.616 106.471 111.204 106.243 110.859 105.998H110.859ZM105.826 120.024C108.998 119.964 111.493 120.768 113.31 122.433C113.568 120.65 114.305 118.916 115.661 117.285C113.173 116.718 110.563 116.374 107.88 116.227C106.83 117.536 106.166 118.801 105.825 120.024H105.826ZM132.954 108.889C131.868 104.049 129.498 100.445 125.845 98.0875C124.738 98.5032 123.553 99.112 122.286 99.935C123.206 101.531 124.008 103.172 124.685 104.841C127.665 104.733 130.452 106.397 132.954 108.889ZM57.9011 81.7461H57.8944L57.3694 82.2321C57.275 82.4637 57.0773 82.8331 56.5841 83.4463L54.6958 85.709L47.2577 93.3194L47.4191 94.5705C52.0675 91.3436 55.5615 87.0688 57.9011 81.7461ZM68.5082 100.823C68.2569 101.624 68.1312 102.413 68.1094 103.164C64.3004 106.299 59.0203 106.957 54.5585 104.85C51.0438 103.192 48.5339 100.053 47.6285 96.3867C48.8455 105.745 58.3401 110.732 65.8564 107.126L68.5814 105.818L69.771 104.657L69.7402 104.524C68.9958 100.81 71.6425 97.0206 74.1535 94.5481C74.1446 94.0778 74.1139 93.6135 74.058 93.1559C72.4697 94.4856 71.2197 95.86 70.2831 97.2243C69.9391 98.525 69.3342 99.7553 68.5082 100.823Z" fill="#B61F2D"/>
<path fill-rule="evenodd" clip-rule="evenodd" d="M37.7995 91.8797C36.2982 91.5092 35.0053 91.7129 33.919 92.4918C33.919 92.8797 33.9112 93.2686 33.8905 93.6581C35.9732 92.6207 36.8835 93.4884 37.6677 93.0465L38.8439 92.2776C38.6244 86.5938 36.7919 79.042 33.074 73.0547C36.5769 81.587 38.1519 87.8622 37.7995 91.8797ZM96.6551 114.029C105.502 112.964 112.408 113.441 117.373 115.463C114.965 113.417 112.354 111.495 109.4 109.792C109.392 109.791 109.384 109.789 109.377 109.781C105.061 107.086 106.195 100.469 111.159 99.3379C108.256 99.6342 105.952 101.912 105.627 104.81C105.455 106.33 105.853 107.805 106.67 108.998C104.542 108.509 102.274 108.27 99.8626 108.282C98.9707 110.248 97.9 112.166 96.6551 114.029V114.029ZM34.0246 104.498C32.1642 109.618 29.8693 111.488 27.1354 110.111C26.7322 110.722 26.3491 111.303 26.0017 111.859L25.6688 112.417C23.8939 117.878 26.7529 117.608 32.8215 110.372C32.7478 110.926 32.6657 111.451 32.5758 111.95C33.26 111.22 33.7269 110.687 33.785 110.598C34.9757 108.776 35.8235 105.46 36.6328 103.456C34.8193 103.602 33.1276 102.818 32.0659 101.422C32.2737 103.025 32.926 104.05 34.0246 104.498Z" fill="#1176BB"/>
<path fill-rule="evenodd" clip-rule="evenodd" d="M61.0733 101.307C57.0784 101.473 53.5648 98.6922 52.8047 94.7689C52.8432 98.8484 56.0228 102.748 60.7952 102.748C65.8279 102.748 69.0879 98.4165 68.7673 94.1094C68.34 98.0806 65.0677 101.142 61.0733 101.307" fill="#B7EBF9"/>
<path fill-rule="evenodd" clip-rule="evenodd" d="M66.4455 89.1261C63.3252 86.0114 58.2713 86.0086 55.1487 89.1261C53.7703 90.505 53.0409 92.1549 52.8672 93.8239C53.9339 90.2767 57.2397 87.8774 60.9459 87.9588C64.6516 88.0397 67.8502 90.5814 68.7728 94.1693C68.7717 94.1487 68.7695 94.1291 68.7672 94.1085C68.6343 92.3447 67.9026 90.5842 66.4461 89.1261" fill="#5697B8"/>
<path fill-rule="evenodd" clip-rule="evenodd" d="M31.2009 70.2577C30.2962 69.5368 29.3841 69.2227 28.0069 69.2227C26.2459 69.2227 26.6832 70.4117 27.6126 72.5996C29.7818 77.703 32.8212 83.8237 33.4439 90.6496L33.8711 91.0904C34.1007 85.7554 32.5838 79.9791 29.1479 73.4947C27.3378 70.3375 27.9728 69.3493 31.0513 70.5272L31.2015 70.2577H31.2009ZM102.485 85.7543C111.276 91.2266 118.454 98.7723 124.02 108.39C119.689 96.6397 115.186 90.0727 102.069 83.8002C102.224 84.4531 102.363 85.1043 102.485 85.7543H102.485Z" fill="#9ADDFF"/>
<path fill-rule="evenodd" clip-rule="evenodd" d="M57.8452 81.8164C65.9899 81.9218 71.3945 85.6989 74.0575 93.1543C73.261 86.5392 67.6207 81.4236 60.7969 81.4236L57.8447 81.8164H57.8452ZM117.542 135.047C111.11 130.807 107.134 126.138 105.613 121.041C104.823 126.819 111.147 131.556 117.542 135.047ZM127.118 97.6841C134.162 97.8994 138.98 105.923 141.577 121.76C141.628 121.862 141.679 121.965 141.73 122.066C140.411 109.833 137.273 95.0966 127.118 97.6841ZM131.634 129.557L131.608 129.569C128.856 118.504 122.174 109.017 111.562 101.108C112.352 101.171 113.138 101.298 113.92 101.49C114.589 101.833 115.211 102.328 115.776 102.818C123.721 109.714 131.341 118.64 131.634 129.557H131.634ZM2.0625 92.9126C12.9991 82.4966 21.843 77.8875 28.5936 79.085C28.1446 78.0722 27.7051 77.1343 27.3052 76.2872L26.2619 74.043C16.325 77.5929 8.40877 84.1856 2.0625 92.9126Z" fill="#F7A0A3"/>
<path fill-rule="evenodd" clip-rule="evenodd" d="M136.143 145.216C127.723 138.185 123.012 129.733 122.014 119.858L120.273 118.66C120.635 130.694 128.891 143.079 137.619 153.111C140.606 137.98 142.444 117.202 127.919 113.422C136.83 118.198 139.571 128.797 136.143 145.216" fill="#F74848"/>
<path fill-rule="evenodd" clip-rule="evenodd" d="M134.584 139.65C129.168 135.316 125.068 128.782 122.285 120.045L122.016 119.858C123.013 129.732 127.724 138.185 136.144 145.216C139.572 128.797 136.83 118.198 127.92 113.422C134.478 120.19 136.7 128.932 134.584 139.65Z" fill="#F79149"/>
<g opacity="0.48">
<path fill-rule="evenodd" clip-rule="evenodd" d="M138.33 149.236C140.798 134.645 141.235 116.889 127.918 113.422C137.211 120.748 140.681 132.692 138.324 149.255L138.33 149.236Z" fill="white"/>
</g>
<g opacity="0.33">
<path fill-rule="evenodd" clip-rule="evenodd" d="M132.767 133.965H132.766L132.768 133.968L132.767 133.965ZM130.626 131.611C128.362 127.198 125.142 122.335 121.928 118.891L120.273 118.66C120.637 130.694 128.892 143.081 137.619 153.113L137.895 151.678C130.858 143.916 123.499 131.276 122.848 124.786C122.197 118.295 127.543 128.327 130.626 131.611V131.611Z" fill="#271B3D"/>
</g>
<path d="M50.0177 105.444C49.7078 105.086 49.7234 104.544 50.063 104.205L50.0177 105.444ZM66.4461 89.1261C65.0007 87.6837 63.0029 86.7898 60.7963 86.7898C58.5896 86.7898 56.5947 87.6837 55.1515 89.1272L55.1493 89.1261C53.7061 90.5696 52.8119 92.5656 52.8119 94.7697C52.8119 96.9737 53.7061 98.9691 55.1515 100.412C56.5947 101.855 58.5919 102.748 60.7963 102.748C63.0007 102.748 64.9996 101.855 66.4433 100.412C67.8887 98.9691 68.7829 96.9732 68.7829 94.7697C68.7829 92.5661 67.8887 90.5708 66.4433 89.1278L66.4455 89.1267L66.4461 89.1261ZM60.7963 84.9668C63.5028 84.9668 65.9563 86.065 67.7312 87.8383L67.7335 87.8405L67.7346 87.8383C69.5095 89.611 70.6092 92.0634 70.6092 94.7697C70.6092 97.4759 69.5095 99.9283 67.7346 101.701C65.9596 103.474 63.5067 104.571 60.7963 104.571C58.0859 104.571 55.6352 103.474 53.8602 101.701C52.0853 99.9283 50.9856 97.4771 50.9856 94.7697C50.9856 92.0623 52.0853 89.6155 53.8602 87.8422L53.8614 87.8411L53.8602 87.8388C55.6352 86.0655 58.0881 84.9674 60.7963 84.9674V84.9668ZM80.3629 78.4177C78.4383 82.0362 78.3947 86.2541 80.0334 91.4669H80.0322C80.1501 91.8469 80.0094 92.2743 79.6597 92.4997C78.1317 93.4874 76.8225 94.5152 75.7284 95.5509L75.6888 95.5899H75.6899C73.9205 97.2756 72.712 98.9797 72.0423 100.55C71.9273 100.819 71.8301 101.083 71.7469 101.342L71.7251 101.413L71.7083 101.471L71.7038 101.483L71.6843 101.552L71.6648 101.617L71.6636 101.622L71.6625 101.628C71.5693 101.965 71.5056 102.294 71.467 102.612C71.4229 102.981 71.4179 103.334 71.4486 103.666V103.68L71.4531 103.713L71.462 103.797L71.4654 103.809L71.4698 103.854V103.855L71.4765 103.901L71.4777 103.91L71.4844 103.948L71.4877 103.968L71.4922 103.993L71.4978 104.023L71.5 104.039L71.5078 104.079L71.5089 104.084L71.5179 104.128V104.134L71.5279 104.172L71.5313 104.189L71.538 104.218L71.5447 104.243L71.548 104.262L71.557 104.297L71.5715 104.348L71.5737 104.352L71.6212 104.509L71.6234 104.519L71.6564 104.612L71.6675 104.643L71.6698 104.647L71.6709 104.652C71.7787 104.937 71.9245 105.199 72.1071 105.433C72.674 106.168 73.615 106.686 74.9136 106.887C78.7209 107.478 85.2492 105.45 94.2573 98.8252C94.4958 97.7549 94.4131 96.3237 94.3154 94.6463C94.1518 91.814 93.9496 88.3204 95.1096 84.2744L95.1208 84.2314C95.3095 83.5758 95.572 82.9837 95.8921 82.4419C94.0786 80.2797 91.6938 78.7765 89.094 78.0343C86.2953 77.2364 83.2431 77.3195 80.3824 78.4093L80.3595 78.4171L80.3629 78.4177ZM107.845 56.1944C107.805 56.2268 107.761 56.2553 107.714 56.2804L107.351 56.5192L107.294 56.5599C104.725 58.2445 102.214 59.8912 99.1141 60.3766C98.5835 61.3564 98.0026 62.2888 97.371 63.1744C99.0956 62.892 100.749 62.4769 102.35 61.9769C104.623 61.2672 106.787 60.3839 108.901 59.457C110.853 58.6016 111.632 57.3115 111.706 56.2212C111.728 55.8702 111.679 55.5416 111.573 55.2648C111.479 55.0187 111.344 54.819 111.186 54.6929C110.964 54.5138 110.653 54.4781 110.307 54.6728C109.463 55.1504 108.652 55.6683 107.851 56.1905L107.847 56.1944H107.845H107.845ZM60.7907 77.1454C60.4104 77.94 59.9217 78.7876 59.3464 79.6726C59.825 79.6279 60.3098 79.6034 60.7963 79.6034C64.9867 79.6034 68.7857 81.3025 71.5318 84.0461L71.581 84.0992C73.9094 86.4477 75.476 89.5519 75.877 93.007C76.56 92.4462 77.2984 91.8943 78.097 91.3542C76.4064 85.584 76.6924 80.884 79.2051 76.7811C79.8915 75.6606 80.7415 74.5898 81.763 73.5609C77.0214 74.8978 71.4978 75.4921 65.1895 75.3442H65.1716L65.0705 75.3403L64.7343 75.3325C63.7603 75.3855 62.5947 76.0774 61.3676 76.8062L60.7913 77.146L60.7907 77.1454ZM47.5212 93.3055V93.3072C47.0755 97.3002 48.4791 101.309 51.3118 104.167L51.3537 104.205C53.7692 106.619 57.109 108.114 60.7963 108.114C62.593 108.114 64.3014 107.762 65.8552 107.126V107.128L65.8574 107.126C67.3028 106.536 68.6254 105.694 69.7698 104.658L69.7541 104.591L69.7407 104.525H69.7396L69.7262 104.459V104.458L69.7133 104.392V104.391L69.7011 104.325L69.6999 104.323L69.6888 104.257V104.256L69.6798 104.191L69.6776 104.187L69.6675 104.123V104.12L69.6597 104.054V104.05L69.6497 103.985V103.98L69.6441 103.916L69.6419 103.911L69.6363 103.847V103.842L69.6296 103.778V103.771L69.624 103.708V103.701L69.6162 103.568V103.559L69.6139 103.497V103.487C69.605 103.279 69.6072 103.064 69.6195 102.846L69.6217 102.831C69.6296 102.689 69.6424 102.545 69.6592 102.4L69.6726 102.304L69.6804 102.243L69.6815 102.228L69.7066 102.074L69.7189 101.998L69.7463 101.843L69.7597 101.771L69.7619 101.765L69.7781 101.688L69.7943 101.611L69.7954 101.61L69.8122 101.532L69.8317 101.453L69.8329 101.451L69.8703 101.295L69.8725 101.288C69.9954 100.815 70.1613 100.33 70.3701 99.8396C71.0928 98.1405 72.3506 96.3259 74.1529 94.5504C74.0959 90.9708 72.6282 87.7367 70.2847 85.3747L70.2428 85.3368C67.8273 82.9229 64.4863 81.4286 60.798 81.4286C60.2467 81.4286 59.705 81.4615 59.1789 81.5251H59.1755C58.7427 81.5781 58.3188 81.6496 57.9038 81.7405L57.8457 81.8209C54.9571 85.7045 51.0599 89.9927 47.5229 93.3066L47.5212 93.3055ZM41.2129 96.7628C45.2487 93.1107 56.273 82.5937 59.2286 76.1952C59.2431 76.1489 59.266 76.1042 59.29 76.0612V76.0596L59.2922 76.0562C59.4615 75.6768 59.5977 75.3141 59.6999 74.9754C60.0183 73.9102 59.9658 73.1201 59.4 72.7378C59.1219 72.552 58.7214 72.4198 58.1909 72.3523C57.8932 72.3143 57.5955 72.4443 57.3341 72.6625C56.9555 72.9789 56.6628 73.4582 56.5114 73.9442C56.4969 73.9911 56.4796 74.0368 56.4578 74.0804C54.2311 78.5633 51.6536 82.5412 48.6198 86.0186C45.9178 89.1172 42.8544 91.8156 39.3593 94.1179C39.7753 94.4343 40.1445 94.811 40.4489 95.2328C40.7818 95.6937 41.042 96.2093 41.2124 96.7623L41.2129 96.7628ZM38.4846 96.0073C37.8982 95.4231 37.0895 95.0609 36.1965 95.0609C35.3034 95.0609 34.4908 95.4208 33.9083 96.004L33.9049 96.0073C33.3218 96.5898 32.9594 97.3978 32.9594 98.2928C32.9594 99.1879 33.3218 99.9975 33.9049 100.58L33.9083 100.583C34.4913 101.168 35.3001 101.528 36.1965 101.528C37.0929 101.528 37.8982 101.165 38.4846 100.58C39.0688 99.9958 39.4313 99.1862 39.4313 98.2928C39.4313 97.3995 39.0688 96.5904 38.4846 96.0073ZM25.7195 117.288C26.3601 117.549 27.4078 116.412 27.8228 116.024L28.1378 115.723L28.1434 115.716C30.2283 113.753 32.0714 111.567 33.6167 109.205C34.8086 107.383 35.8223 105.457 36.631 103.455C36.4869 103.465 36.3422 103.473 36.1959 103.473C34.922 103.473 33.753 103.011 32.8482 102.247C32.5595 102.002 32.2959 101.725 32.0652 101.422C30.7086 104.709 28.8337 107.554 27.2431 109.971C26.5718 110.991 25.9524 111.931 25.4559 112.782L25.4525 112.787L25.4185 112.848L25.4173 112.849L25.4062 112.868C25.0901 113.417 24.8231 113.93 24.631 114.402C24.0937 115.715 24.2389 116.684 25.7195 117.29V117.288ZM37.6664 93.0466C38.0652 92.7944 38.4562 92.5399 38.8426 92.2771C38.6835 88.139 37.1917 81.0151 34.6371 75.703C33.9462 74.2651 33.1828 72.9688 32.3567 71.9204C32.2908 71.859 32.2339 71.7887 32.1875 71.71C30.9264 70.1739 29.5229 69.223 28.0071 69.223C27.1526 69.223 26.8209 69.4613 26.8209 69.8904C26.8209 70.512 27.1107 71.4059 27.5743 72.5068L27.6128 72.6006C27.9786 73.4582 28.4422 74.4392 28.9488 75.5144C31.1895 80.254 34.2428 86.7111 33.8893 93.6576C34.5868 93.3111 35.3721 93.1163 36.1959 93.1163C37.1956 93.1163 37.1152 93.3574 37.6659 93.0477L37.6664 93.0466ZM31.1465 98.6388C31.1386 98.5244 31.1342 98.41 31.1342 98.2928C31.1342 97.1997 31.4855 96.1853 32.0797 95.3561C32.7968 88.0637 29.4603 80.8516 27.3028 76.2889C26.927 75.4932 26.5723 74.7438 26.2607 74.0447C21.5782 75.7181 17.2342 78.1074 13.2297 81.2126C9.15931 84.3687 5.438 88.2707 2.06241 92.9143C5.37713 96.8231 8.90854 100.313 12.6561 103.378C16.3422 106.392 20.2283 108.99 24.3087 111.166C24.7371 110.478 25.2163 109.748 25.7256 108.973C27.586 106.148 29.8479 102.713 31.1141 98.7225L31.1152 98.7236L31.147 98.6394L31.1465 98.6388ZM50.4065 75.9753C49.5235 75.0184 48.8387 73.9074 48.3785 72.7083C47.5073 70.4395 47.4397 67.8537 48.3707 65.4119C49.366 62.8067 51.1967 61.2772 53.486 60.3978C55.6664 59.5619 58.2422 59.3376 60.8912 59.3192C65.6547 59.2885 69.8669 58.8617 73.5151 57.999C70.4427 58.5838 67.2247 58.5497 63.8815 57.787C56.0105 55.9863 50.0144 58.5536 46.7818 62.3441C45.5207 63.8228 44.6818 65.4878 44.3238 67.1423C43.9758 68.7538 44.0853 70.353 44.7103 71.7468C45.567 73.6647 47.419 75.2315 50.4065 75.9759V75.9753ZM42.574 71.1202C41.0549 71.1582 39.557 71.253 38.0803 71.4048C36.903 71.5259 35.7362 71.6843 34.5796 71.8813C38.1484 77.2208 40.1373 86.0421 40.5801 91.0384C43.0325 89.1953 45.2459 87.1235 47.2526 84.8229C49.0364 82.7756 50.6617 80.5453 52.1479 78.1264C47.271 77.5712 44.3283 75.3493 43.0487 72.4873C42.851 72.0448 42.693 71.5884 42.5751 71.1202H42.574ZM94.3595 26.2402C93.6173 25.5215 92.5857 25.0774 91.4414 25.0774C90.297 25.0774 89.2677 25.5215 88.526 26.2402C87.791 26.9522 87.333 27.936 87.333 29.0213C87.333 30.1066 87.7899 31.092 88.526 31.8051C89.2682 32.5221 90.3009 32.9679 91.4414 32.9679C92.5818 32.9679 93.6173 32.5232 94.3595 31.8051C95.0968 31.0936 95.5525 30.1077 95.5525 29.0213C95.5525 27.9348 95.0968 26.9517 94.3595 26.2402ZM90.5807 34.7295C89.2945 34.5476 88.1389 33.9601 87.257 33.1086C86.1775 32.0634 85.5095 30.6171 85.5095 29.0213C85.5095 27.4254 86.1775 25.9802 87.257 24.9362C87.7686 24.4412 88.3718 24.0356 89.0398 23.7482C88.2556 23.8905 87.5285 24.1874 86.8923 24.6042L86.8287 24.6466L86.8142 24.655L86.8086 24.6594C86.5338 24.8441 86.2791 25.0528 86.0429 25.2816C85.0074 26.2843 84.3657 27.6687 84.3657 29.197C84.3657 30.7254 85.0074 32.1109 86.0429 33.1136C86.4802 33.5349 86.9873 33.8909 87.5475 34.1604L87.5598 34.1665L87.5665 34.1704L87.5866 34.1805C88.3534 34.5426 89.2174 34.7452 90.1317 34.7452C90.283 34.7452 90.4316 34.7401 90.5807 34.729V34.7295ZM88.9236 36.4761C88.5204 36.4124 88.1272 36.3187 87.7474 36.1971C86.6851 39.4435 85.0068 42.4187 82.8376 44.9788C80.455 47.7905 77.4821 50.1028 74.0814 51.7199C70.684 53.3358 67.0113 54.1857 63.3241 54.2588C62.9504 54.2655 62.5773 54.2655 62.2026 54.2576C63.0778 54.4557 63.9686 54.6136 64.8728 54.728C70.569 54.4423 75.863 52.3677 80.1294 49.0008C84.1361 45.8364 87.2392 41.5248 88.9231 36.4761H88.9236ZM85.1331 23.6534C80.9186 17.2029 74.5941 12.8657 67.6151 11.0271C53.0035 8.14169 40.999 12.1157 40.999 28.3902C40.999 35.7216 44.0725 42.3623 49.0404 47.1683C53.2241 51.2138 57.4056 52.563 63.2906 52.4442C66.7131 52.375 70.1278 51.5826 73.2989 50.0749C76.4657 48.5678 79.2336 46.4173 81.4475 43.8036C83.5095 41.3708 85.0951 38.53 86.0803 35.4298C85.6078 35.1385 85.1699 34.7982 84.7745 34.4171C83.3939 33.0829 82.5405 31.2365 82.5405 29.1965C82.5405 27.1564 83.3939 25.3112 84.7745 23.9764C84.8907 23.8654 85.0096 23.7555 85.1336 23.6522L85.1331 23.6534ZM88.0758 22.0999C83.9999 16.0049 78.1562 11.5985 71.5771 9.25433C64.6516 6.78632 56.9102 6.59828 49.5603 9.12264C49.3844 9.2839 49.2129 9.44739 49.0398 9.61312C48.7628 9.88263 48.4874 10.1594 48.2227 10.4401C54.6958 7.87831 61.6491 7.57644 68.0769 9.26884C75.4799 11.2173 82.1814 15.8135 86.6505 22.6462C87.1018 22.4202 87.5787 22.2361 88.0752 22.0999H88.0758ZM53.3581 6.20601C59.7508 4.89751 66.2557 5.42258 72.1898 7.53682C79.3861 10.1014 85.7524 15.01 90.068 21.8254H90.1317C92.2205 21.8254 94.1143 22.6479 95.4916 23.9764L95.5391 24.0294L95.6413 24.1316C94.703 18.5047 91.9356 13.4672 87.9485 9.61144C82.9739 4.80042 76.0959 1.82408 68.4941 1.82408C62.9002 1.82408 57.6983 3.43557 53.3581 6.20545V6.20601ZM96.6639 36.2997C98.0389 35.1017 99.4648 34.041 100.942 33.1214C102.857 31.9301 104.861 30.9698 106.954 30.241C105.981 29.7316 104.89 29.2852 103.678 28.9058C101.957 28.3651 99.9976 27.9566 97.8083 27.681C97.815 27.9159 97.8172 28.1519 97.8172 28.3896C97.8172 31.1349 97.414 33.7882 96.6639 36.2992V36.2997ZM111.369 74.9302C113.354 74.7321 115.023 74.2612 116.374 73.5162C117.865 72.6943 118.973 71.5287 119.698 70.0232C120.444 68.4681 120.799 66.5346 120.76 64.224C120.637 56.9148 116.615 46.035 108.692 31.588C106.32 32.3 104.057 33.329 101.905 34.6665C99.8401 35.9532 97.8792 37.5284 96.0233 39.3893C99.233 41.3027 101.835 43.4995 103.822 45.9787C105.758 48.3948 107.114 51.0721 107.885 54.0093C108.388 53.6918 108.895 53.3827 109.411 53.0909C110.495 52.476 111.538 52.6389 112.326 53.2733C112.738 53.6059 113.067 54.0718 113.276 54.6159C113.472 55.1281 113.565 55.719 113.523 56.3412C113.422 57.8573 112.518 59.5859 110.338 60.7767C111.791 66.0179 112.308 69.8988 111.952 72.6452C111.84 73.5107 111.645 74.2706 111.368 74.9296L111.369 74.9302ZM110.15 72.4181C110.468 69.9607 109.991 66.4041 108.662 61.5423C106.8 62.3391 104.89 63.0901 102.892 63.7128C100.642 64.4159 98.2758 64.96 95.7362 65.2267C93.3341 68.1115 91.8435 69.1153 87.0493 71.6129C84.9326 73.0224 83.2425 74.4872 81.9624 76.044C84.5226 75.4843 87.1459 75.5847 89.5972 76.2828C92.4176 77.0857 95.0113 78.6827 97.0286 80.9671C99.3431 78.58 103.051 77.5399 106.265 76.6393L107.224 76.3687L107.264 76.3576C109.05 75.8436 109.923 74.1736 110.15 72.4175V72.4181ZM93.5642 115.219C97.2319 110.431 99.6502 105.195 100.719 99.6683C101.759 94.3009 101.53 88.6474 99.9501 82.8509C99.4296 82.6333 98.9013 82.4257 98.3673 82.2265C97.6809 82.9246 97.156 83.7493 96.8706 84.7386L96.8583 84.7782C95.7882 88.5157 95.9809 91.8469 96.1378 94.5487C96.2512 96.5497 96.35 98.2309 95.9334 99.6248C95.8697 99.8363 95.7357 100.009 95.5642 100.122C86.0015 107.205 78.8918 109.342 74.6388 108.682C72.8516 108.404 71.5184 107.643 70.6712 106.544L70.5539 106.385C69.3632 107.382 68.0133 108.204 66.5461 108.805L66.5472 108.806C64.7678 109.535 62.8237 109.936 60.7963 109.936C56.6058 109.936 52.8097 108.237 50.063 105.494L50.0177 105.444C47.3816 102.787 45.7228 99.1605 45.6223 95.1485C43.9915 96.707 42.4601 98.1059 41.166 99.2498C40.9728 100.264 40.4751 101.168 39.7753 101.87C39.5128 102.131 39.2241 102.362 38.9119 102.561C37.9792 105.252 36.7052 107.815 35.142 110.202C34.1356 111.741 33.0068 113.211 31.7675 114.601C39.3861 117.604 47.7027 119.608 56.6042 120.149C65.0761 120.666 74.0825 119.859 83.529 117.334C86.8209 116.456 90.1886 115.734 93.5648 115.219H93.5642ZM115.775 102.819C115.095 102.23 114.386 101.693 113.654 101.366C112.993 101.071 112.296 100.944 111.56 101.11C110.789 101.286 110.107 101.685 109.589 102.235L109.541 102.28C109.046 102.822 108.7 103.509 108.57 104.272L108.566 104.292C108.439 105.066 108.549 105.841 108.855 106.524C109.16 107.208 109.664 107.807 110.324 108.227C115.617 111.362 120.174 114.975 123.987 119.061C126.998 122.287 129.548 125.809 131.634 129.625C131.536 125.563 130.437 121.618 128.386 117.737C127.488 116.037 126.41 114.35 125.154 112.667L125.145 112.654L125.14 112.651L125.131 112.638L125.127 112.633L125.118 112.619L125.115 112.614C122.663 109.341 119.539 106.087 115.775 102.82L115.775 102.819ZM107.879 116.227C105.188 119.58 104.807 122.884 106.735 126.137C108.494 129.104 112.096 132.077 117.542 135.05C115.202 131.732 113.809 128.686 113.363 125.914C112.836 122.639 113.603 119.762 115.66 117.285C113.173 116.718 110.563 116.375 107.879 116.228V116.227ZM120.319 100.178L120.318 100.176C120.294 100.143 120.274 100.109 120.256 100.075C118.967 97.9519 117.458 95.9136 115.742 94.0002C112.069 89.9017 107.451 86.3724 102.069 83.7995C103.393 89.3722 103.517 94.8149 102.508 100.01C101.493 105.26 99.3235 110.255 96.073 114.873C99.0979 114.504 102.109 114.311 105.059 114.326C105.864 114.331 106.663 114.35 107.456 114.386H107.479L107.559 114.39C111.04 114.556 114.411 115.037 117.579 115.891L117.601 115.896L117.622 115.902L117.644 115.908L117.65 115.909L118.229 116.071C115.57 113.798 112.627 111.705 109.398 109.793L109.376 109.779C108.396 109.161 107.648 108.278 107.194 107.265C106.744 106.26 106.586 105.128 106.769 103.998L106.775 103.965C106.966 102.853 107.475 101.848 108.213 101.048L108.264 100.989C109.026 100.182 110.026 99.5941 111.156 99.3368H111.159C112.325 99.0718 113.398 99.2593 114.396 99.7057C115.325 100.122 116.171 100.756 116.966 101.446C119.629 103.758 121.984 106.07 124.022 108.39C123.789 107.636 123.528 106.885 123.242 106.138L123.234 106.118L123.226 106.097C122.448 104.075 121.474 102.092 120.32 100.178H120.319ZM124.682 104.84C127.715 104.732 130.798 106.423 133.933 109.922C136.472 112.756 139.07 116.807 141.73 122.067C140.589 111.493 138.477 104.286 135.392 100.453C132.208 96.4983 127.838 96.3265 122.285 99.935C123.206 101.53 124.008 103.171 124.683 104.84L124.682 104.84ZM139.039 120.84C139.473 121.815 139.851 122.862 140.171 123.981C142.256 131.278 141.88 141.696 139.047 155.228C139.016 155.43 138.917 155.623 138.753 155.77C138.376 156.103 137.799 156.071 137.464 155.695C131.055 148.515 126.267 141.744 123.1 135.387C120.034 129.23 118.482 123.444 118.447 118.035C118.181 117.954 117.915 117.873 117.648 117.796C115.506 120.008 114.676 122.621 115.16 125.629C115.692 128.946 117.78 132.769 121.425 137.099C121.663 137.365 121.732 137.758 121.569 138.1C121.353 138.553 120.81 138.744 120.357 138.528C112.538 134.779 107.473 130.956 105.167 127.065C103.017 123.437 103.184 119.798 105.67 116.15L105.052 116.143C98.1769 116.107 90.9197 117.246 83.9987 119.095C74.3562 121.671 65.1548 122.494 56.4975 121.967C47.1336 121.396 38.4037 119.245 30.4305 116.025C30.0909 116.369 29.7429 116.709 29.3905 117.041L29.0839 117.335L29.0694 117.35C27.9636 118.419 26.6946 119.649 25.0376 118.974L25.0387 118.971H25.0376C22.2663 117.839 21.9742 116.083 22.9421 113.717C23.0705 113.403 23.2224 113.079 23.3978 112.742C19.2196 110.51 15.2531 107.857 11.5011 104.787C7.52513 101.536 3.77311 97.8007 0.249511 93.5828C-0.0448204 93.2731 -0.0878252 92.7894 0.169086 92.4278C3.75412 87.3913 7.73792 83.1712 12.1171 79.7736C16.2473 76.5707 20.7304 74.0999 25.5614 72.3617C25.2068 71.4087 24.9946 70.5829 24.9946 69.8898C24.9946 68.2856 25.8379 67.399 28.0071 67.399C30.0295 67.399 31.8055 68.4976 33.3397 70.2525C34.8181 69.9758 36.3372 69.7554 37.896 69.5963C39.3369 69.4479 40.8108 69.3519 42.3149 69.3095C42.2808 68.4692 42.3567 67.6121 42.541 66.7567C42.9605 64.8182 43.9351 62.877 45.3989 61.1606C48.2987 57.7624 53.1403 55.2341 59.3978 55.3842C56.8912 54.5924 54.5343 53.482 52.3746 52.1038L52.3551 52.0921L52.3372 52.0798C50.6918 51.0263 49.1638 49.8177 47.7731 48.4729C42.4612 43.3332 39.1749 36.2333 39.1749 28.3902C39.1749 22.4989 41.0292 17.0255 44.2043 12.489L44.2568 12.4159C45.2967 10.94 46.4735 9.56625 47.7737 8.30964C47.992 8.09761 48.2143 7.88947 48.4394 7.68525L48.4428 7.68246L48.4584 7.66683L48.4913 7.6367L48.507 7.6222C53.7435 2.8932 60.7723 0 68.4947 0C76.2171 0 83.9116 3.17554 89.2168 8.30797C93.9485 12.883 97.0722 19.0125 97.7016 25.8362C100.138 26.1264 102.312 26.57 104.219 27.1704C106.342 27.8361 108.146 28.6959 109.629 29.7455C109.722 29.8064 109.808 29.885 109.877 29.9804L109.878 29.9832L109.916 30.0374L109.927 30.0575L109.94 30.0775C118.237 45.0976 122.449 56.4718 122.578 64.195C122.621 66.7896 122.207 68.9959 121.336 70.8072C120.442 72.6692 119.079 74.1049 117.251 75.1138C115.357 76.1572 112.966 76.7325 110.077 76.8391C109.449 77.4278 108.676 77.8479 107.762 78.1108L107.719 78.1202L106.757 78.3925C104.513 79.022 102.001 79.7262 100.038 80.9258C100.348 81.0497 100.658 81.1775 100.963 81.3075C101.033 81.3287 101.102 81.3577 101.165 81.394C107.497 84.1187 112.887 88.0949 117.097 92.791C118.683 94.5604 120.102 96.4314 121.341 98.3771C127.785 94.1983 132.944 94.5119 136.811 99.3173C140.597 104.019 142.993 113.224 143.997 126.922C144.036 127.303 143.832 127.682 143.465 127.848C143.006 128.054 142.467 127.851 142.259 127.392C141.173 125.003 140.1 122.82 139.04 120.841L139.039 120.84ZM126.634 111.296C131.218 112.05 134.745 114.154 137.212 117.609C135.637 114.984 134.093 112.825 132.577 111.133C130.058 108.317 127.654 106.831 125.368 106.668C125.898 108.196 126.32 109.741 126.634 111.296H126.634ZM120.275 118.661C120.423 123.602 121.91 128.908 124.731 134.574C127.626 140.383 131.922 146.564 137.62 153.113C140.065 140.728 140.331 131.183 138.417 124.478C136.704 118.484 133.203 114.799 127.92 113.423C128.691 114.573 129.383 115.727 129.997 116.888C132.789 122.174 133.926 127.581 133.292 133.242C133.258 133.547 133.069 133.83 132.768 133.969C132.313 134.179 131.771 133.979 131.56 133.522C129.312 128.659 126.341 124.25 122.652 120.299C122.303 119.923 121.945 119.552 121.582 119.185C121.151 119.001 120.716 118.826 120.274 118.66L120.275 118.661ZM97.6324 59.2813C98.9878 56.6341 100.16 53.2918 101.064 50.5174C101.145 53.0468 101.233 55.7196 100.23 58.0626L100.219 58.0911L100.208 58.1184L100.203 58.1284L100.194 58.1452L100.183 58.1736L100.159 58.2289L100.148 58.2573L100.135 58.2841C102.304 57.6508 104.265 56.368 106.264 55.0572C105.589 52.1334 104.301 49.4862 102.404 47.1192C100.505 44.75 97.992 42.6491 94.8661 40.8184C93.6994 43.1352 92.2166 45.2751 90.4701 47.1862C88.4305 52.0212 84.8901 55.4897 79.9116 57.7641C74.9733 60.0184 68.6159 61.0847 60.8974 61.1366C58.4383 61.1544 56.068 61.3531 54.1356 62.0936C52.3154 62.7922 50.8622 64.003 50.0758 66.0592C49.3112 68.0669 49.3654 70.1945 50.0825 72.0604C50.7052 73.6831 51.8278 75.1099 53.3414 76.0925C53.8435 75.1952 54.3299 74.2751 54.8002 73.3304C55.056 72.5571 55.5385 71.7915 56.1652 71.267C56.7913 70.7458 57.5614 70.4439 58.4182 70.5516C59.2498 70.6548 59.9133 70.8875 60.4204 71.229C61.524 71.9734 61.8865 73.11 61.6692 74.5284C62.5723 74.0335 63.4598 73.6418 64.3679 73.5369C64.4461 73.5196 64.526 73.5095 64.6086 73.5118L64.6734 73.5135C64.8505 73.5068 65.0281 73.5101 65.2073 73.5274C77.4475 73.8187 91.4346 71.0159 97.6329 59.2813H97.6324ZM89.0068 46.0881L89.023 46.0708L89.0376 46.0546C91.9848 42.8567 94.1439 38.9636 95.2224 34.662C94.0328 35.7077 92.5047 36.3929 90.8181 36.5402C89.0638 42.1481 85.6731 46.9373 81.2554 50.4253C79.3056 51.9648 77.1548 53.251 74.856 54.2431C79.901 53.0903 84.4087 50.5939 87.9507 47.1683C88.3132 46.8179 88.6667 46.4569 89.0074 46.0881H89.0068Z" fill="#381A46"/>
</g>
<defs>
<clipPath id="clip0_270_106485">
<rect width="144" height="156" fill="white"/>
</clipPath>
</defs>
</svg>
