<svg width="152" height="105" viewBox="0 0 152 105" fill="none" xmlns="http://www.w3.org/2000/svg">
<path opacity="0.3" d="M26.4207 105.001C41.0124 105.001 52.8414 103.276 52.8414 101.148C52.8414 99.02 41.0124 97.2949 26.4207 97.2949C11.8289 97.2949 0 99.02 0 101.148C0 103.276 11.8289 105.001 26.4207 105.001Z" fill="#126BE1"/>
<path opacity="0.3" d="M95.7763 105.001C117.056 105.001 134.306 103.276 134.306 101.148C134.306 99.02 117.056 97.2949 95.7763 97.2949C74.4966 97.2949 57.2461 99.02 57.2461 101.148C57.2461 103.276 74.4966 105.001 95.7763 105.001Z" fill="#126BE1"/>
<path d="M71.9406 75.4664C68.9081 77.3727 56.9065 83.7798 54.3444 77.1079C53.6601 75.33 53.3465 73.2486 53.2997 71.0409C53.1367 63.6012 55.99 54.7074 57.8738 50.9377C59.0754 48.5345 60.8188 47.392 62.279 46.8523C63.7922 46.2922 65.0019 46.3777 65.0019 46.3777L71.5862 48.4754C71.5862 48.4754 72.0078 69.0287 72.4457 73.9288C72.5068 74.6009 72.5679 74.9777 72.6269 74.9695C72.6982 74.9593 72.4416 75.1528 71.9406 75.4664Z" fill="white"/>
<g opacity="0.25">
<path d="M72.4405 73.9288C72.2775 74.4644 72.1085 74.9756 71.9354 75.4664C68.9029 77.3727 56.9012 83.7798 54.3392 77.1079C53.6549 75.33 53.3412 73.2486 53.2944 71.0409C55.8666 70.9126 58.7831 70.2263 58.6201 68.7701C58.3533 66.373 60.3798 55.0781 62.0091 50.9377C63.6383 46.7973 61.7382 47.4245 61.7382 47.4245L62.2738 46.8523C63.787 46.2922 64.9968 46.3777 64.9968 46.3777L71.5811 48.4754C71.5811 48.4754 72.0026 69.0287 72.4405 73.9288Z" fill="#371A45"/>
</g>
<path d="M59.2301 80.8868C55.7769 80.8869 54.248 79.1346 53.5811 77.3987C50.5557 69.526 54.4081 56.0417 57.1428 50.5719C59.7991 45.2598 64.8438 45.5494 65.0565 45.5635C65.5052 45.5949 65.8437 45.9841 65.8123 46.433C65.7808 46.8805 65.3954 47.2191 64.9461 47.189C64.7748 47.1793 60.7581 46.9849 58.6002 51.3007C56.0592 56.3823 52.2933 69.5059 55.1018 76.8143C55.5626 78.0133 56.392 78.752 57.6376 79.0728C61.9825 80.1919 69.8126 75.9249 71.7181 74.6506C71.5262 73.3895 71.3541 70.2062 71.0982 61.5844C70.9051 55.0863 70.7708 48.5558 70.7694 48.4906C70.7603 48.0408 71.1173 47.6686 71.5672 47.6595C72.0198 47.6575 72.3892 48.0074 72.3983 48.4572C72.5882 57.7308 73.0047 72.7468 73.3329 74.5497C73.379 74.6251 73.4134 74.709 73.4329 74.7993C73.5652 75.412 73.1419 75.6756 72.2988 76.2007C71.7002 76.5736 70.951 77.0018 70.1893 77.4063C68.6246 78.2374 66.2326 79.3852 63.7242 80.133C61.9477 80.6625 60.4656 80.8868 59.2301 80.8868ZM72.6254 74.1535C72.6908 74.1535 72.755 74.1613 72.8171 74.1762C72.7246 74.1535 72.6234 74.1465 72.5152 74.1609C72.5522 74.1559 72.5889 74.1535 72.6254 74.1535Z" fill="#371A45"/>
<path d="M96.9713 99.7134C95.1383 101.581 85.7354 101.072 83.1896 100.595C80.6439 100.121 80.4749 96.9294 80.4749 96.9294L80.4891 96.4508L80.984 79.4493C79.6602 79.6245 78.312 79.6 76.9454 79.4147C76.7886 84.0398 76.6522 88.1273 76.5381 91.5324C77.3181 91.9194 77.921 92.4489 78.3568 93.0579C80.149 95.5791 79.0839 99.4955 75.8579 100.697C70.1697 101.811 63.7361 101.392 61.1578 97.3164C60.7321 96.6423 60.5081 95.8602 60.4673 95.0619L60.3268 92.3104L60.3003 91.8033C59.9826 85.5774 60.0254 79.3373 60.5019 73.1216C61.3431 62.1281 63.2086 52.7557 68.0638 48.1143L85.6335 45.7091C90.0468 45.2345 97.2421 48.1143 97.2421 48.1143L98.0568 52.5663C98.0568 52.5663 95.0711 55.554 95.953 67.9772C96.008 68.7491 96.0507 69.5148 96.0854 70.2684C96.6006 81.6366 94.9001 90.6506 94.9001 90.6506C100.128 93.2635 98.8042 97.8459 96.9713 99.7134Z" fill="white"/>
<path d="M70.6622 102.05C65.8991 102.05 62.2455 100.555 60.4717 97.7509C59.9876 96.9858 59.7055 96.0705 59.6561 95.1036L59.4892 91.8449C59.1604 85.4259 59.2282 79.1052 59.691 73.0584C60.7227 59.5775 63.1322 51.7026 67.5037 47.5244C67.8289 47.2133 68.3446 47.2252 68.6554 47.5504C68.9663 47.8757 68.9546 48.3914 68.6294 48.7022C64.5699 52.5821 62.3141 60.1322 61.3155 73.1827C60.858 79.1607 60.791 85.4115 61.1164 91.7615L61.2833 95.0203C61.3185 95.7079 61.5138 96.3509 61.8483 96.8798C64.8141 101.568 73.0621 100.407 75.6363 99.9108C77.2302 99.2895 78.3141 97.784 78.4042 96.0576C78.4899 94.4167 77.6572 92.9977 76.1769 92.2619C75.8911 92.1198 75.7144 91.824 75.7252 91.5051L76.1325 79.3873C76.1403 79.1571 76.2451 78.9409 76.4211 78.7923C76.5973 78.6436 76.8286 78.5769 77.0561 78.6074C78.3921 78.7886 79.6783 78.7997 80.8793 78.641C81.1172 78.6088 81.3547 78.6838 81.5319 78.8438C81.7093 79.0038 81.8074 79.2336 81.8004 79.4723L81.2924 96.9136C81.3153 97.2041 81.5502 99.46 83.3419 99.7944C86.298 100.346 94.9656 100.595 96.3921 99.142C97.2485 98.2697 97.9919 96.6681 97.7228 95.0557C97.4706 93.5461 96.3992 92.3088 94.5384 91.3784C94.2129 91.2156 94.0349 90.8565 94.1023 90.4989C94.1214 90.3972 96.0066 80.1987 95.1425 68.0335C94.3891 57.4253 96.3827 53.4824 97.1912 52.3464L96.5259 48.7104C94.9543 48.1233 89.2932 46.1348 85.7236 46.519C85.2745 46.5667 84.8746 46.2435 84.8265 45.7962C84.7781 45.3489 85.1017 44.9473 85.549 44.899C90.1108 44.4078 97.2461 47.2364 97.5476 47.3569C97.8075 47.4609 97.9959 47.6912 98.0462 47.9667L98.8608 52.419C98.909 52.6822 98.8248 52.9523 98.6355 53.1415C98.6198 53.1594 95.9362 56.2123 96.7678 67.9181C97.5279 78.619 96.1944 87.8336 95.8052 90.2087C98.3101 91.6389 99.1093 93.4666 99.3298 94.7875C99.7182 97.114 98.6164 99.2022 97.5548 100.283C95.2475 102.633 84.9671 101.755 83.0428 101.396C80.6966 100.958 79.9744 98.7917 79.7559 97.6595C79.2055 99.3917 77.8923 100.809 76.1453 101.46C76.1037 101.476 76.0607 101.488 76.0172 101.497C74.1191 101.868 72.3231 102.05 70.6622 102.05ZM77.3704 91.0612C78.5218 91.7625 79.3406 92.7859 79.7475 93.9956L80.1449 80.3494C79.3634 80.4002 78.5564 80.3907 77.7314 80.3206L77.3704 91.0612Z" fill="#371A45"/>
<path d="M78.722 50.5074C92.4443 50.5074 103.568 39.3832 103.568 25.6609C103.568 11.9386 92.4443 0.814453 78.722 0.814453C64.9996 0.814453 53.8755 11.9386 53.8755 25.6609C53.8755 39.3832 64.9996 50.5074 78.722 50.5074Z" fill="white"/>
<g opacity="0.25">
<path d="M103.247 29.6601C101.334 41.4805 91.082 50.5067 78.722 50.5067C64.9994 50.5067 53.8755 39.3829 53.8755 25.6603C53.8755 21.4975 54.8999 17.573 56.7104 14.125C56.4986 15.4264 56.3886 16.7624 56.3886 18.1249C56.3886 31.8474 67.5126 42.9713 81.2351 42.9713C90.7928 42.9713 99.0899 37.5744 103.247 29.6601Z" fill="#371A45"/>
</g>
<path d="M99.798 38.824C91.7845 52.1578 66.6326 48.8993 61.6429 36.476L58.9019 27.1924C60.9301 9.49113 82.4841 -3.77334 98.035 10.0259C104.061 19.2842 105.934 28.8029 99.798 38.824Z" fill="#371A45"/>
<g opacity="0.7">
<path d="M103.57 26.8044C103.471 30.7391 102.3 34.739 99.7987 38.8244C91.7847 52.158 66.6328 48.8994 61.6431 36.4762L58.9019 27.1934C59.077 25.6619 59.3988 24.163 59.8509 22.7129C63.5901 31.6983 72.4554 38.0159 82.7972 38.0159C91.4853 38.0159 99.1307 33.5578 103.57 26.8044Z" fill="#111A28"/>
</g>
<path d="M78.7192 51.3222C64.5696 51.3222 53.0581 39.8107 53.0581 25.6611C53.0581 11.5115 64.5696 0 78.7192 0C92.8688 0 104.38 11.5115 104.38 25.6611C104.38 39.8107 92.8687 51.3222 78.7192 51.3222ZM78.7192 1.62928C65.468 1.62928 54.6874 12.4099 54.6874 25.6611C54.6874 38.9123 65.468 49.6929 78.7192 49.6929C91.9704 49.6929 102.751 38.9123 102.751 25.6611C102.751 12.4099 91.9704 1.62928 78.7192 1.62928Z" fill="#371A45"/>
<path d="M58.8631 41.191C62.047 40.4818 63.9111 36.6881 63.0267 32.7174C62.1424 28.7466 58.8444 26.1026 55.6605 26.8117C52.4766 27.5208 50.6124 31.3146 51.4968 35.2853C52.3812 39.2561 55.6792 41.9001 58.8631 41.191Z" fill="white"/>
<g opacity="0.25">
<path d="M58.8626 41.1884C55.6794 41.8992 52.3822 39.2536 51.4963 35.2843C51.1419 33.6917 51.2295 32.1276 51.6673 30.7773C52.7508 34.3801 55.8587 36.6998 58.8626 36.0297C60.7709 35.6061 62.2047 34.0746 62.8564 32.0624C62.9216 32.2763 62.9786 32.4942 63.0275 32.7162C63.9114 36.6855 62.0479 40.4797 58.8626 41.1884Z" fill="#371A45"/>
</g>
<path d="M57.8237 41.9132C54.7119 41.9132 51.7482 39.2317 50.8979 35.4155C49.9417 31.1225 52.0174 26.9941 55.525 26.2128C59.034 25.4312 62.6644 28.2887 63.6207 32.5818C64.5768 36.8749 62.501 41.0032 58.9936 41.7846C58.604 41.8714 58.2128 41.9132 57.8237 41.9132ZM56.7042 27.305C56.4001 27.305 56.0948 27.3377 55.7907 27.4055C52.9407 28.0403 51.281 31.5145 52.0908 35.1498C52.9007 38.7854 55.8784 41.2269 58.7279 40.5918C61.5777 39.957 63.2374 36.4829 62.4277 32.8475C61.7044 29.5999 59.2509 27.305 56.7042 27.305Z" fill="#371A45"/>
<path d="M56.0704 39.7628C53.9405 39.763 51.8913 37.8523 51.2886 35.1466C50.6135 32.1166 52.0047 29.2192 54.3898 28.688C55.5766 28.4235 56.8136 28.7707 57.8731 29.6649C58.8851 30.519 59.6189 31.7817 59.9394 33.2198C60.6142 36.2499 59.223 39.1472 56.8379 39.6784C56.5825 39.7353 56.3257 39.7628 56.0704 39.7628ZM55.1662 29.8247C54.9944 29.8247 54.8238 29.8432 54.6555 29.8807C52.9282 30.2655 51.9529 32.5086 52.4813 34.8809C53.0099 37.2534 54.8452 38.8714 56.5722 38.4858C58.2995 38.101 59.2748 35.8578 58.7464 33.4855C58.4839 32.3066 57.8938 31.2815 57.0849 30.5988C56.4828 30.0905 55.817 29.8247 55.1662 29.8247Z" fill="#371A45"/>
<path d="M56.6495 27.4107C56.6172 27.4107 56.5848 27.4085 56.5522 27.404C56.1622 27.3508 55.8889 26.9915 55.9422 26.6015C57.0733 18.3059 60.6427 11.5689 66.2648 7.11867C71.9096 2.6505 79.268 0.773985 87.5434 1.69188C87.9346 1.73526 88.2166 2.08767 88.1733 2.47886C88.1298 2.87005 87.7745 3.15228 87.3863 3.10874C71.3479 1.32969 59.5591 10.6265 57.3547 26.794C57.306 27.1514 57.0003 27.4107 56.6495 27.4107Z" fill="#371A45"/>
<g opacity="0.5">
<path d="M82.6932 8.62101C92.3581 8.36375 97.9851 13.2388 100.205 22.322C100.413 23.1727 99.3316 23.7173 98.7749 23.0412C94.237 17.5296 89.059 12.8568 82.4122 10.2023C81.5867 9.87262 81.8047 8.64468 82.6932 8.62101Z" fill="white"/>
</g>
<g opacity="0.5">
<path d="M68.1029 27.2103C69.8182 27.2103 71.2087 25.4323 71.2087 23.2389C71.2087 21.0456 69.8182 19.2676 68.1029 19.2676C66.3876 19.2676 64.9971 21.0456 64.9971 23.2389C64.9971 25.4323 66.3876 27.2103 68.1029 27.2103Z" fill="white"/>
</g>
<g opacity="0.5">
<path d="M68.0699 33.3976C69.0049 33.3976 69.7628 32.6396 69.7628 31.7047C69.7628 30.7697 69.0049 30.0117 68.0699 30.0117C67.1349 30.0117 66.377 30.7697 66.377 31.7047C66.377 32.6396 67.1349 33.3976 68.0699 33.3976Z" fill="white"/>
</g>
<path d="M68.3607 62.4095C68.3607 62.4095 70.1936 64.1746 71.5853 64.9892C71.5853 64.9892 71.6023 66.2366 69.8203 66.6185C68.0383 67.0003 60.6873 67.3626 60.0616 64.9383C59.5185 62.8338 60.749 62.0701 62.531 62.4095C64.313 62.7489 68.3607 62.4095 68.3607 62.4095Z" fill="white"/>
<g opacity="0.25">
<path d="M71.5857 64.9888C71.5857 64.9888 71.604 66.2372 69.822 66.6181C68.0399 67.0009 60.6879 67.3614 60.0626 64.9379C59.9485 64.4959 59.9119 64.111 59.9424 63.7852C62.1094 65.0275 67.3251 64.7281 68.7874 64.4145C69.3556 64.2923 69.7405 64.0825 70.0012 63.8524C70.5144 64.2699 71.0806 64.6914 71.5857 64.9888Z" fill="#371A45"/>
</g>
<path d="M66.1294 67.7039C63.2634 67.7039 59.8131 67.2265 59.275 65.141C58.881 63.6146 59.313 62.7451 59.7449 62.2846C60.379 61.6083 61.4233 61.368 62.6854 61.6085C64.3372 61.9229 68.2554 61.6003 68.2948 61.597C68.5285 61.5767 68.7589 61.6594 68.9279 61.8218C68.9454 61.8388 70.7087 63.5301 71.9989 64.2853C72.2451 64.4295 72.3981 64.692 72.402 64.9773C72.4031 65.0554 72.4004 66.8984 69.9931 67.4142C69.549 67.5094 67.9579 67.7038 66.1294 67.7039ZM61.766 63.1462C61.3845 63.1462 61.0892 63.2327 60.9334 63.399C60.7182 63.6284 60.6896 64.1025 60.8525 64.7339C61.2337 66.2113 67.3903 66.3056 69.6518 65.8211C70.1864 65.7065 70.4662 65.5095 70.6128 65.332C69.6067 64.6426 68.5508 63.6966 68.0667 63.2484C67.0084 63.3243 63.9448 63.5069 62.3807 63.209C62.1594 63.1669 61.9523 63.1462 61.766 63.1462Z" fill="#371A45"/>
<path d="M67.638 62.7837L66.8003 59.3887L69.0853 62.0355C69.3877 62.3858 69.3488 62.9147 68.9987 63.217C68.5452 63.629 67.77 63.3758 67.638 62.7837Z" fill="#371A45"/>
<path d="M126.747 19.3653C126.747 19.3653 123.922 23.3753 122.769 25.7174C122.148 26.9781 120.384 27.8844 118.889 28.4526C117.608 28.9413 116.523 29.1796 116.523 29.1796L114.201 25.2368L113.224 23.579C113.279 23.5138 113.576 22.7216 114.14 21.6442C115.048 19.9111 116.647 17.4387 119.034 16.0762C119.034 16.0762 123.288 16.3369 126.142 18.7889C126.352 18.9681 126.555 19.1616 126.747 19.3653Z" fill="#82C146"/>
<g opacity="0.7">
<path d="M126.747 19.3653C126.747 19.3653 126.596 19.5792 126.349 19.9356C123.506 17.7116 119.543 17.4692 119.543 17.4692C116.169 19.3917 114.37 23.5362 113.871 24.6768L113.224 23.579C113.366 23.4079 115.165 18.2838 119.034 16.0762C119.034 16.0762 123.936 16.3756 126.747 19.3653Z" fill="white"/>
</g>
<path d="M116.525 29.9934C116.151 29.9934 115.814 29.734 115.731 29.3535C115.634 28.9141 115.912 28.4795 116.351 28.3829C117.661 28.0933 121.239 26.9847 122.041 25.3562C122.959 23.493 124.858 20.673 125.686 19.4691C123.448 17.4958 120.135 17.0106 119.226 16.9118C117.246 18.1259 115.529 20.372 114.119 23.5926C113.985 23.8975 113.945 23.9895 113.85 24.1019C113.561 24.4463 113.047 24.491 112.703 24.2016C112.39 23.9391 112.324 23.4916 112.531 23.1536C112.553 23.1085 112.584 23.0355 112.626 22.9392C114.231 19.2739 116.252 16.7267 118.634 15.3688C118.772 15.2903 118.928 15.2534 119.088 15.2633C119.301 15.2763 124.346 15.6189 127.343 18.8078C127.608 19.0896 127.638 19.5188 127.416 19.835C127.388 19.8745 124.615 23.8188 123.502 26.0764C122.212 28.6942 117.261 29.8508 116.701 29.9741C116.642 29.9871 116.583 29.9934 116.525 29.9934ZM112.603 23.0539C112.603 23.0542 112.602 23.0544 112.602 23.0547C112.603 23.0544 112.603 23.0542 112.603 23.0539Z" fill="#371A45"/>
<path d="M122.008 22.7003C122.457 21.4273 121.948 20.088 120.872 19.7089C119.796 19.3299 118.56 20.0546 118.112 21.3277C117.663 22.6008 118.172 23.9401 119.248 24.3191C120.324 24.6982 121.559 23.9734 122.008 22.7003Z" fill="#6B9E35"/>
<path d="M125.333 27.6481C125.333 27.6481 128.676 23.9194 133.327 21.6445C133.327 21.6445 136.653 25.0443 138.045 27.8416C138.045 27.8416 134.956 30.2994 130.17 34.5084C125.384 38.7173 123.144 33.0148 123.144 33.0148" fill="#82C146"/>
<g opacity="0.25">
<path d="M126.747 19.3655C126.747 19.3655 123.922 23.3755 122.769 25.7176C122.148 26.9783 120.384 27.8846 118.889 28.4527C117.822 27.8845 116.464 27.0149 115.606 26.4976C115.342 26.3388 114.798 25.8541 114.201 25.237L113.224 23.5791C113.279 23.514 113.576 22.7217 114.14 21.6444C119.022 23.5465 124.624 19.9479 126.142 18.7891C126.352 18.9683 126.555 19.1618 126.747 19.3655Z" fill="#371A45"/>
</g>
<g opacity="0.7">
<path d="M138.045 27.8419C138.045 27.8419 137.785 28.0496 137.296 28.4488C135.728 25.9295 133.19 23.3369 133.19 23.3369C128.541 25.6118 125.196 29.3408 125.196 29.3408L123.447 33.6299C123.243 33.2694 123.144 33.0148 123.144 33.0148L125.333 27.6484C125.333 27.6484 128.677 23.9194 133.327 21.6445C133.327 21.6445 136.652 25.0436 138.045 27.8419Z" fill="white"/>
</g>
<path d="M126.858 36.8736C126.552 36.8736 126.25 36.8374 125.951 36.7651C123.541 36.1816 122.434 33.4298 122.389 33.3129C122.224 32.8941 122.43 32.4214 122.849 32.2568C123.268 32.0924 123.74 32.2984 123.905 32.7172C123.913 32.7359 124.755 34.804 126.34 35.183C127.297 35.4121 128.405 34.979 129.635 33.8968C133.25 30.7175 135.927 28.513 137.011 27.632C135.894 25.6854 133.988 23.5432 133.156 22.6464C128.985 24.8358 125.974 28.1578 125.942 28.1925C125.642 28.5271 125.127 28.5546 124.792 28.2544C124.458 27.9541 124.43 27.4393 124.73 27.1045C124.871 26.9474 128.234 23.2309 132.972 20.9129C133.288 20.7587 133.667 20.8238 133.912 21.075C134.052 21.2176 137.345 24.5997 138.777 27.479C138.949 27.823 138.856 28.24 138.555 28.4792C138.525 28.5037 135.424 30.9755 130.711 35.1203C129.385 36.2865 128.093 36.8735 126.858 36.8736Z" fill="#371A45"/>
<path d="M116.958 27.0321C116.958 27.0321 118.495 23.5454 120.599 21.6445L126.98 24.1224C126.98 24.1224 124.841 29.2302 123.84 32.4975C122.839 35.7649 116.39 33.1173 116.39 33.1173" fill="#82C146"/>
<g opacity="0.7">
<path d="M126.98 24.121C126.98 24.121 126.795 24.563 126.508 25.2697L121.042 23.1455C118.936 25.0456 117.4 28.5343 117.4 28.5343L116.952 33.3264C116.602 33.2022 116.39 33.1167 116.39 33.1167L116.958 27.0313C116.958 27.0313 118.496 23.5447 120.6 21.6445L126.98 24.121Z" fill="white"/>
</g>
<path d="M120.96 34.9429C118.782 34.9429 116.426 34.0095 116.083 33.8691C115.667 33.6983 115.469 33.2224 115.639 32.8062C115.81 32.39 116.285 32.191 116.702 32.362C117.769 32.7983 120.865 33.7754 122.362 33.0662C122.725 32.8943 122.948 32.6372 123.064 32.2572C123.843 29.714 125.274 26.1392 125.913 24.5789L120.792 22.5906C119.023 24.4044 117.72 27.328 117.706 27.3592C117.524 27.7709 117.042 27.9572 116.632 27.7755C116.22 27.5939 116.034 27.1133 116.215 26.7018C116.281 26.5529 117.848 23.0328 120.056 21.0383C120.284 20.832 120.61 20.7718 120.897 20.8834L127.278 23.3612C127.483 23.4408 127.647 23.5998 127.733 23.802C127.819 24.0042 127.82 24.2327 127.735 24.4353C127.713 24.486 125.6 29.5439 124.622 32.7345C124.373 33.5491 123.832 34.1732 123.058 34.5394C122.44 34.8319 121.71 34.9428 120.96 34.9429Z" fill="#371A45"/>
<path d="M118.097 30.9935C118.097 30.9935 116.458 22.9683 112.453 19.3703C112.453 19.3703 109.054 19.2176 103.574 21.0505C103.574 21.0505 107.056 25.531 108.685 30.5207C110.314 35.5103 118.097 30.9935 118.097 30.9935Z" fill="#82C146"/>
<g opacity="0.7">
<path d="M112.13 32.8668C110.621 32.8668 109.264 32.2966 108.684 30.5207C107.055 25.531 103.574 21.0505 103.574 21.0505C109.053 19.2176 112.452 19.3703 112.452 19.3703C112.721 19.6127 112.979 19.8733 113.226 20.1503C111.714 20.2868 109.195 20.6758 105.941 21.7633C105.941 21.7633 109.421 26.2438 111.051 31.2335C111.291 31.9707 111.666 32.4982 112.13 32.8668Z" fill="white"/>
</g>
<path d="M112.116 33.6763C111.474 33.6763 110.849 33.5862 110.276 33.3677C109.123 32.9277 108.326 32.0544 107.908 30.7722C106.341 25.973 102.962 21.5926 102.928 21.5489C102.766 21.3404 102.715 21.0661 102.792 20.8132C102.868 20.5605 103.063 20.3604 103.313 20.2766C108.871 18.4173 112.341 18.5484 112.486 18.5551C112.675 18.5636 112.854 18.6371 112.994 18.763C117.152 22.4976 118.823 30.4908 118.892 30.8292C118.962 31.172 118.805 31.5211 118.503 31.6967C118.335 31.7939 115.051 33.6763 112.116 33.6763ZM104.896 21.4819C106.014 23.0754 108.228 26.5047 109.457 30.2664C109.719 31.0688 110.176 31.5851 110.856 31.8451C112.657 32.5337 115.649 31.3418 117.161 30.5709C116.713 28.7419 115.133 23.0825 112.128 20.182C111.295 20.1947 108.685 20.335 104.896 21.4819Z" fill="#371A45"/>
<path d="M111.844 27.8855C112.757 27.4477 113.083 26.2296 112.572 25.1648C112.061 24.1 110.907 23.5917 109.994 24.0295C109.082 24.4673 108.756 25.6855 109.267 26.7503C109.777 27.8151 110.931 28.3233 111.844 27.8855Z" fill="#6B9E35"/>
<path d="M129.967 76.1013C127.144 77.4781 122.24 78.588 119.099 78.6511C108.138 78.8772 97.1325 74.0933 95.4075 67.5599C95.3851 67.4845 95.3668 67.4071 95.3485 67.3318C92.316 61.4969 92.2101 56.1386 94.9432 51.2427C96.0654 49.2305 97.603 47.479 99.4074 46.0453C101.234 44.5952 104.574 41.6157 106.401 37.9824C106.853 37.0863 107.212 36.1494 107.432 35.1861C107.432 35.1861 107.432 35.1861 107.432 35.1841C107.405 35.0985 106.766 33.0722 106.193 31.0294C105.609 28.9419 107.619 26.9297 109.731 28.28C111.845 29.6303 111.998 31.4876 113.338 30.6567C114.68 29.8237 116.055 29.7402 116.987 30.9113C117.92 32.0823 118.922 29.4001 120.433 30.4021C121.942 31.4021 121.773 31.5223 123.317 31.1984C124.863 30.8767 125.983 33.1841 126.645 32.7768C127.085 32.508 128.781 31.2697 130.366 31.117C131.172 31.0376 131.95 31.2413 132.516 31.9968C133.808 33.7197 131.61 37.0455 130.525 38.4915C130.197 38.9273 129.971 39.1921 129.971 39.1921C129.971 39.1921 129.777 40.0556 130.189 41.6177C130.582 43.1146 131.531 45.2509 133.738 47.8822C138.502 53.5603 145.21 68.6678 129.967 76.1013Z" fill="#FBB987"/>
<g opacity="0.7">
<path d="M109.731 28.28C110.061 28.4918 110.344 28.7138 110.588 28.9378C108.922 28.6853 107.621 30.3655 108.106 32.0986C108.692 34.1861 109.346 36.2553 109.346 36.2553C108.23 41.1208 103.597 45.3059 101.32 47.1144C99.5153 48.5482 97.9797 50.2997 96.8556 52.3118C94.1225 57.2078 94.2284 62.5661 97.2608 68.4009C97.8637 71.022 99.9573 73.3723 102.955 75.2418C98.9492 73.2358 96.0715 70.4803 95.3485 67.3317C92.316 61.4969 92.2101 56.1386 94.9432 51.2426C96.0654 49.2305 97.603 47.479 99.4074 46.0452C101.684 44.2367 106.318 40.0515 107.432 35.1861C107.432 35.1861 106.778 33.1169 106.193 31.0294C105.609 28.9419 107.619 26.9297 109.731 28.28Z" fill="white"/>
</g>
<g opacity="0.7">
<path d="M117.179 31.1029C116.564 31.0927 115.904 31.3208 115.25 31.7261C114.35 32.2841 113.984 31.6303 113.204 30.7302C113.246 30.7098 113.291 30.6854 113.336 30.6568C114.678 29.8239 116.053 29.7404 116.986 30.9114C117.051 30.9929 117.114 31.054 117.179 31.1029Z" fill="white"/>
</g>
<g opacity="0.7">
<path d="M120.43 30.4011C121.092 30.839 121.432 31.1099 121.734 31.2464C120.55 31.1465 119.699 32.9856 118.897 31.9795C118.557 31.5518 118.157 31.2932 117.724 31.175C118.465 30.9469 119.308 29.6557 120.43 30.4011Z" fill="white"/>
</g>
<g opacity="0.7">
<path d="M125.554 32.2375C125.448 32.2355 125.34 32.2457 125.228 32.2681C123.682 32.5919 123.853 32.4717 122.342 31.4718C122.269 31.4229 122.198 31.3842 122.126 31.3537C122.401 31.3781 122.739 31.319 123.314 31.1989C124.204 31.0135 124.953 31.6999 125.554 32.2375Z" fill="white"/>
</g>
<g opacity="0.7">
<path d="M132.626 32.1697C130.95 32.1473 129.023 33.5566 128.553 33.8458C128.133 34.1044 127.528 33.2694 126.748 32.7073C127.62 32.1412 130.909 29.8581 132.512 31.9966C132.554 32.0515 132.591 32.1106 132.626 32.1697Z" fill="white"/>
</g>
<g opacity="0.7">
<path d="M117.184 31.1035C117.371 31.1035 117.552 31.128 117.727 31.1768C117.542 31.2379 117.361 31.2298 117.184 31.1035Z" fill="white"/>
</g>
<g opacity="0.7">
<path d="M121.733 31.248C121.859 31.2582 121.992 31.2908 122.126 31.3539C121.985 31.3417 121.863 31.3071 121.733 31.248Z" fill="white"/>
</g>
<path d="M118.324 79.4747C106.719 79.4748 96.1962 74.2537 94.5773 67.6172C91.4852 61.6127 91.3681 55.9703 94.2299 50.846C95.3818 48.7829 96.9526 46.953 98.8983 45.4073C100.837 43.8672 105.421 39.8238 106.586 35.215C106.402 34.6273 105.88 32.9355 105.407 31.2495C105.024 29.882 105.499 28.4198 106.59 27.6109C107.635 26.8365 108.973 26.8298 110.169 27.5936C111.137 28.2121 111.739 28.9261 112.177 29.4474C112.367 29.6726 112.623 29.9771 112.745 30.0443C112.769 30.037 112.822 30.0169 112.907 29.9639C114.715 28.8429 116.458 28.99 117.583 30.3539C117.694 30.29 117.85 30.1777 117.964 30.0959C118.547 29.6763 119.633 28.8953 120.881 29.7227C121.105 29.8713 121.293 30.0009 121.455 30.1129C121.816 30.3613 122.033 30.5112 122.165 30.5367C122.326 30.5684 122.707 30.4942 123.149 30.4018C124.426 30.1346 125.415 31.0193 126.069 31.6045C126.187 31.7105 126.334 31.8421 126.449 31.9324C129.584 29.8871 131.843 29.7443 133.166 31.5081C135.033 33.9968 131.631 38.4516 130.747 39.5319C130.701 40.2202 130.769 43.0778 134.361 47.3586C137.153 50.6868 141.457 58.3072 139.873 65.7577C138.862 70.5099 135.649 74.2367 130.322 76.8344C127.487 78.2173 122.459 79.398 119.115 79.4665C118.851 79.472 118.587 79.4747 118.324 79.4747ZM108.342 28.6563C108.062 28.6563 107.797 28.744 107.56 28.9197C107.101 29.2602 106.742 29.9765 106.976 30.8095C107.551 32.8606 108.201 34.9208 108.207 34.9413C108.251 35.0797 108.257 35.2272 108.224 35.3685C107.076 40.3796 102.523 44.6083 99.9118 46.6829C98.1334 48.0958 96.7002 49.7637 95.6523 51.6403C93.0236 56.3472 93.1602 61.357 96.0697 66.9562C96.1013 67.0173 96.1254 67.0823 96.1407 67.1495C97.4922 73.0349 107.565 77.8447 118.343 77.8452C118.589 77.8452 118.835 77.8427 119.081 77.8376C122.228 77.7731 126.95 76.6662 129.608 75.37C134.461 73.0034 137.379 69.6553 138.279 65.4189C139.736 58.568 135.536 51.2947 133.112 48.4059C128.396 42.7854 129.14 39.1658 129.174 39.0144C129.203 38.8854 129.263 38.7652 129.349 38.6645C130.589 37.2078 132.834 33.7809 131.863 32.4856C131.134 31.5134 129.644 31.786 127.308 33.3178C127.209 33.3823 127.129 33.4349 127.07 33.4714C126.265 33.9658 125.524 33.3029 124.982 32.8184C124.501 32.3872 123.956 31.8987 123.482 31.9966C121.933 32.32 121.642 32.2205 120.531 31.4541C120.375 31.347 120.195 31.2229 119.981 31.0806C119.733 30.9163 119.581 30.9396 118.916 31.4184C118.427 31.7695 117.284 32.592 116.349 31.4184C115.757 30.6762 114.888 30.6526 113.766 31.3484C112.374 32.2113 111.541 31.2203 110.931 30.4966C110.519 30.0068 110.051 29.4515 109.292 28.9666C108.968 28.7599 108.646 28.6563 108.342 28.6563Z" fill="#371A45"/>
<path d="M131.791 40.0687C131.797 40.9404 131.053 41.6308 130.188 41.6165H130.161C127.707 41.5371 125.306 41.3864 122.958 41.1624C117.734 40.6695 112.773 39.8101 108.101 38.5576C107.696 38.4496 107.295 38.3376 106.893 38.2236C106.714 38.1707 106.547 38.0891 106.4 37.9812C106.05 37.7286 105.814 37.3376 105.765 36.8957C105.763 36.8815 105.763 36.8651 105.761 36.8488C105.675 35.8896 106.502 35.1238 107.431 35.1829C107.512 35.187 107.596 35.1992 107.677 35.2175C108.083 35.3072 108.488 35.3967 108.895 35.4823C113.671 36.5026 118.508 37.2806 123.404 37.8346C125.695 38.0932 128.001 38.303 130.318 38.4618C130.387 38.4659 130.457 38.4761 130.524 38.4904C131.145 38.6146 131.652 39.0952 131.76 39.7286C131.778 39.8406 131.789 39.9547 131.791 40.0687Z" fill="#E5AC1F"/>
<g opacity="0.7">
<path d="M108.101 38.5576C107.696 38.4497 107.295 38.3377 106.893 38.2236C106.284 38.0485 105.834 37.5251 105.765 36.8958C105.763 36.8815 105.763 36.8652 105.761 36.8489C105.667 35.8062 106.655 34.9915 107.677 35.2176C108.083 35.3073 108.488 35.3968 108.895 35.4824L108.897 35.4844C108.897 35.4844 107.441 36.8061 108.101 38.5576Z" fill="white"/>
</g>
<path d="M130.208 42.4333C130.182 42.4333 130.157 42.4329 130.131 42.4321C121.525 42.1515 113.63 40.9992 106.665 39.007C105.731 38.7398 105.059 37.947 104.953 36.9873L104.947 36.9316C104.879 36.1794 105.166 35.4672 105.733 34.9686C106.31 34.4614 107.103 34.2577 107.85 34.424C115.088 36.0323 122.666 37.1176 130.372 37.6498C131.478 37.7263 132.378 38.5255 132.559 39.5934C132.586 39.7504 132.6 39.909 132.601 40.0647C132.606 40.7001 132.355 41.2979 131.894 41.7478C131.445 42.1859 130.834 42.4333 130.208 42.4333ZM107.329 35.9961C107.14 35.9961 106.954 36.0648 106.809 36.1923C106.707 36.2814 106.542 36.4756 106.569 36.7761L106.572 36.8077C106.605 37.1031 106.822 37.3573 107.113 37.4405C113.95 39.3959 121.712 40.5274 130.184 40.8036C130.393 40.8106 130.604 40.7294 130.756 40.5813C130.897 40.4441 130.974 40.2648 130.972 40.0765C130.972 40.0079 130.965 39.9375 130.953 39.8668C130.899 39.5479 130.607 39.2991 130.26 39.275C122.472 38.7372 114.814 37.6402 107.497 36.0144C107.497 36.0144 107.497 36.0144 107.497 36.0144C107.441 36.0021 107.385 35.9961 107.329 35.9961Z" fill="#371A45"/>
<g opacity="0.25">
<path d="M118.047 57.3644L118.442 53.5362C119.335 53.8324 119.852 54.3986 120.054 55.2844L120.188 55.8734L123.046 55.2574L122.877 54.6353C122.329 52.6262 120.935 51.322 118.729 50.7525L118.936 48.7479L116.289 48.4746L116.079 50.5159C112.407 50.9167 111.411 52.9893 111.235 54.6988C111.132 55.693 111.355 56.6403 111.896 57.5142C112.403 58.333 113.464 59.0444 115.132 59.6823L114.693 63.9414C113.644 63.5582 112.975 62.7618 112.658 61.5236L112.503 60.9198L109.692 61.701L109.822 62.2694C110.352 64.5934 111.89 66.1133 114.398 66.7935L114.157 69.1347L116.803 69.408L117.044 67.0785C118.699 67.0206 119.966 66.5856 120.813 65.7829C121.742 64.9022 122.273 63.8748 122.391 62.729C122.652 60.1995 121.191 58.3966 118.047 57.3644ZM117.336 64.2512L117.72 60.5328C119.287 61.0988 119.404 61.9555 119.34 62.5802C119.288 63.0862 119.047 63.4905 118.604 63.8166C118.266 64.0654 117.849 64.2086 117.336 64.2512ZM115.45 56.61C114.222 56.0545 114.13 55.3258 114.185 54.7958C114.235 54.3065 114.439 53.9479 114.826 53.6667C115.097 53.4702 115.417 53.3427 115.793 53.2818L115.45 56.61Z" fill="#371A45"/>
</g>
<g opacity="0.25">
<path d="M129.963 76.1019C127.14 77.4786 122.236 78.5886 119.096 78.6517C108.135 78.8778 97.1288 74.0938 95.4038 67.5604L108.073 60.5342L108.894 66.8945C129.097 74.2303 134.651 55.8256 128.134 49.9194C122.882 45.1599 122.79 42.1539 122.955 41.1641C122.994 40.9258 123.047 40.8057 123.047 40.8057C125.444 39.431 123.401 37.8363 123.401 37.8363L125.079 37.4453C134.814 34.7407 130.362 31.1176 130.362 31.1176C131.168 31.0382 131.946 31.2419 132.513 31.9974C133.804 33.7204 131.606 37.0461 130.521 38.4921C131.142 38.6163 131.649 39.097 131.757 39.7303C131.775 39.8424 131.786 39.9564 131.788 40.0705C131.794 40.9421 131.05 41.6325 130.185 41.6183C130.578 43.1152 131.527 45.2516 133.735 47.8828C138.498 53.5609 145.207 68.6683 129.963 76.1019Z" fill="#371A45"/>
</g>
<path d="M121.527 29.1796C122.216 29.1796 122.774 28.494 122.774 27.6484C122.774 26.8027 122.216 26.1172 121.527 26.1172C120.838 26.1172 120.279 26.8027 120.279 27.6484C120.279 28.494 120.838 29.1796 121.527 29.1796Z" fill="#6B9E35"/>
<path d="M132.577 28.3268C132.82 27.2973 132.183 26.2656 131.153 26.0225C130.124 25.7794 129.092 26.417 128.849 27.4465C128.606 28.476 129.243 29.5076 130.273 29.7507C131.302 29.9938 132.334 29.3563 132.577 28.3268Z" fill="#6B9E35"/>
<g opacity="0.25">
<path d="M113.229 20.5234C113.337 20.7271 117.478 30.6725 110.249 28.2964L111.81 30.367C111.81 30.367 113.994 29.8919 114.186 30.0305C114.378 30.1692 117.998 30.5439 117.998 30.5439L115.032 22.7134" fill="#371A45"/>
</g>
<g opacity="0.25">
<path d="M126.75 26.498C126.75 26.498 125.182 31.6914 129.526 30.741C129.526 30.741 127.057 32.7882 126.849 32.7825C126.642 32.7769 124.604 30.9819 124.604 30.9819L125.554 28.3989" fill="#371A45"/>
</g>
<path d="M107.361 58.6761C109.563 65.9995 98.2977 71.7103 85.9763 69.6228C83.2269 63.1057 86.5194 56.0286 86.5194 56.0286C89.0391 56.5034 91.5006 56.5494 93.8851 56.0286C93.8851 56.0286 95.6587 52.2745 99.2059 51.8557C99.9429 51.7687 100.65 52.2604 100.743 52.9968C100.811 53.5402 100.623 54.2762 99.7941 55.2139C103.88 54.7844 106.4 55.9405 107.361 58.6761Z" fill="white"/>
<g opacity="0.25">
<path d="M85.9773 69.6236C85.3053 68.0351 84.9957 66.4119 84.9102 64.8661C96.0503 67.253 106.384 63.0352 105.341 56.0762C106.286 56.6688 106.96 57.5344 107.362 58.6769C109.563 66.0005 98.2987 71.7111 85.9773 69.6236Z" fill="#371A45"/>
</g>
<path d="M91.074 70.8663C89.3514 70.8663 87.5914 70.7233 85.8389 70.4263C85.5644 70.3798 85.3325 70.1963 85.2243 69.9397C82.3673 63.1678 85.6386 55.9876 85.7792 55.6853C85.9363 55.3473 86.3025 55.1592 86.6688 55.2284C89.078 55.6825 91.2659 55.7088 93.3439 55.3083C93.9306 54.2714 95.8202 51.4353 99.109 51.0471C100.311 50.9051 101.404 51.7347 101.55 52.8956C101.607 53.3548 101.537 53.8282 101.339 54.3122C101.351 54.3122 101.362 54.3122 101.373 54.3122C104.904 54.3122 107.172 55.6851 108.128 58.4066C108.132 58.4183 108.136 58.43 108.139 58.4419C108.885 60.9233 108.299 63.3455 106.444 65.4467C103.423 68.8693 97.5109 70.8663 91.074 70.8663ZM86.5598 68.8925C94.1871 70.0663 101.812 68.231 105.223 64.3685C106.681 62.7169 107.152 60.8364 106.584 58.9289C105.753 56.5875 103.559 55.6373 99.8777 56.0244C99.5409 56.0587 99.2223 55.886 99.0684 55.5875C98.9145 55.2889 98.9596 54.9265 99.1822 54.6748C99.718 54.0685 99.9847 53.5087 99.9332 53.0986C99.899 52.8271 99.6098 52.6284 99.2999 52.6651C96.2365 53.0267 94.636 56.3434 94.6201 56.3769C94.5123 56.6054 94.3043 56.7709 94.0575 56.8248C91.8767 57.3011 89.5135 57.3407 87.0229 56.9436C86.3679 58.6574 84.6828 63.9415 86.5598 68.8925Z" fill="#371A45"/>
<path d="M149.008 55.104L143.764 54.827C143.713 54.5949 143.66 54.3688 143.605 54.1509C142.253 48.7743 139.392 47.0208 139.392 47.0208L141.778 41.8438C142.406 42.2551 142.998 42.693 143.552 43.1574C143.552 43.1574 143.552 43.1594 143.556 43.1614C146.988 46.031 148.97 49.9005 149.008 55.104Z" fill="#82C146"/>
<g opacity="0.7">
<path d="M144.418 54.8617L143.764 54.827C142.491 48.9209 139.392 47.0208 139.392 47.0208L141.778 41.8438C142.343 42.2144 142.876 42.6034 143.381 43.0148L141.094 46.6481C141.094 46.6481 143.895 48.9087 144.418 54.8617Z" fill="white"/>
</g>
<path d="M149.011 55.8176C148.999 55.8176 148.986 55.8173 148.974 55.8166L143.729 55.5398C143.408 55.5228 143.138 55.2927 143.07 54.9781C141.887 49.4893 139.046 47.6444 139.017 47.6264C138.715 47.4356 138.597 47.0475 138.746 46.7224L141.134 41.5451C141.221 41.3567 141.386 41.2154 141.585 41.1583C141.785 41.1013 142 41.134 142.173 41.2481C147.139 44.513 149.679 49.1733 149.724 55.0994C149.726 55.2959 149.646 55.4843 149.504 55.6201C149.371 55.7472 149.194 55.8176 149.011 55.8176ZM144.342 54.1445L148.278 54.3523C148.054 49.5036 146.018 45.7474 142.075 42.9101L140.281 46.7992C141.238 47.6059 143.278 49.7631 144.342 54.1445Z" fill="#371A45"/>
<path d="M144.948 50.4178C145.544 50.1235 145.741 49.3022 145.387 48.5834C145.032 47.8647 144.261 47.5205 143.664 47.8148C143.067 48.1091 142.871 48.9303 143.225 49.6491C143.58 50.3679 144.351 50.712 144.948 50.4178Z" fill="#6B9E35"/>
<g opacity="0.25">
<path d="M149.01 55.1047L143.766 54.8277C143.715 54.5956 143.662 54.3695 143.607 54.1516C148.648 49.8625 143.697 43.3434 143.558 43.1621C146.99 46.0317 148.971 49.9012 149.01 55.1047Z" fill="#371A45"/>
</g>
<path d="M144.249 82.3241C144.266 82.1551 144.276 81.9942 144.278 81.8374C144.337 79.1796 142.531 78.2347 141.75 77.9516C141.535 77.8722 141.398 77.8437 141.398 77.8437C140.828 77.8742 140.309 77.8763 139.836 77.8518C136.009 77.6726 135.162 75.9516 135.162 75.9516L140.355 73.2715C140.474 73.5159 140.6 73.748 140.74 73.97C141.341 74.9415 142.139 75.691 143.135 76.2205C143.832 76.5911 144.626 76.8539 145.516 77.0066C145.838 77.027 146.158 77.0677 146.473 77.1329C147.96 77.4282 149.369 78.196 150.718 79.3711L144.249 82.3241Z" fill="#82C146"/>
<path d="M144.251 82.8344C144.146 82.8344 144.042 82.8022 143.955 82.7393C143.806 82.6332 143.726 82.456 143.744 82.2746C144.051 79.2031 141.76 78.4637 141.353 78.357C135.974 78.6272 134.755 76.2777 134.706 76.1773C134.583 75.9284 134.683 75.6273 134.929 75.5001L140.122 72.8186C140.245 72.7553 140.388 72.7444 140.518 72.7881C140.648 72.8319 140.755 72.9265 140.815 73.0506C141.741 74.9795 143.308 76.1096 145.607 76.5058C145.607 76.506 145.608 76.5061 145.609 76.5062C147.493 76.64 149.312 77.4684 151.052 78.9888C151.182 79.1026 151.246 79.2746 151.221 79.4457C151.196 79.6168 151.086 79.7635 150.929 79.8353L144.462 82.7883C144.395 82.8192 144.323 82.8344 144.251 82.8344ZM142.757 77.885C143.658 78.4405 144.725 79.5181 144.789 81.52L149.763 79.2482C148.384 78.1934 146.981 77.6174 145.533 77.5167C145.503 77.5176 145.474 77.5156 145.445 77.5112C144.567 77.4624 143.673 77.5867 142.757 77.885ZM135.961 76.1132C136.557 76.6436 138.053 77.514 141.362 77.3369C141.364 77.3359 141.366 77.3349 141.369 77.3339C141.931 77.0805 142.489 76.884 143.043 76.7443C141.805 76.1216 140.834 75.1896 140.139 73.956L135.961 76.1132Z" fill="#371A45"/>
<g opacity="0.25">
<path d="M143.132 76.2212C142.874 76.5614 142.456 77.0786 142.026 77.6061C141.994 77.6469 141.961 77.6876 141.929 77.7283C141.868 77.8036 141.806 77.877 141.747 77.9523C141.532 77.8729 141.395 77.8444 141.395 77.8444C140.825 77.875 140.305 77.877 139.833 77.8525C141.189 76.3617 140.047 73.873 140.047 73.873L140.737 73.9708C141.338 74.9423 142.136 75.6917 143.132 76.2212Z" fill="#371A45"/>
</g>
<g opacity="0.25">
<path d="M150.718 79.371L144.25 82.3241C144.266 82.1551 144.276 81.9942 144.278 81.8373C145.476 80.3282 146.237 77.3344 146.237 77.3344L146.473 77.1328C147.96 77.4281 149.37 78.1959 150.718 79.371Z" fill="#371A45"/>
</g>
<path d="M94.6762 91.4324C92.8729 91.1751 90.9979 90.8888 89.1978 91.2982C87.2986 91.6979 85.7515 92.9386 84.7554 94.6218C85.3074 92.5621 86.8191 90.8763 88.8123 90.1014C90.8067 89.3147 93.0934 89.1628 95.1326 89.8684C96.0788 90.2407 95.6682 91.6238 94.6762 91.4324Z" fill="#371A45"/>
<path d="M76.1618 92.2547C74.2669 91.5849 72.2269 90.9738 70.2033 91.2588C68.0504 91.5309 66.2879 92.8894 64.9971 94.6209C65.8276 92.4787 67.6474 90.6159 69.9211 89.9919C71.9389 89.4022 74.1592 89.5748 76.0871 90.3911C76.3817 90.5174 76.6256 90.6372 76.9137 90.8093C77.7831 91.3565 77.1045 92.6457 76.1618 92.2547Z" fill="#371A45"/>
<path d="M69.5992 86.1138C64.3703 86.1138 60.0495 84.3814 59.7911 84.2757C59.3746 84.1054 59.1752 83.6297 59.3456 83.2133C59.5158 82.7969 59.9915 82.5979 60.4074 82.7676C60.4931 82.8026 69.0375 86.2165 76.2324 83.277C76.6493 83.1074 77.1248 83.3067 77.2947 83.7231C77.4647 84.1397 77.265 84.6152 76.8486 84.7853C74.4383 85.7699 71.9283 86.1138 69.5992 86.1138Z" fill="#371A45"/>
<path d="M88.0759 86.4662C83.9914 86.4662 80.7207 84.9678 80.5051 84.8667C80.0978 84.6757 79.9224 84.1906 80.1133 83.7833C80.3043 83.3762 80.7884 83.2004 81.1961 83.3911C81.2731 83.427 88.9123 86.9069 94.9499 82.8459C95.3232 82.5947 95.8295 82.6937 96.0805 83.0671C96.3315 83.4404 96.2325 83.9466 95.8592 84.1977C93.2967 85.9214 90.5381 86.4662 88.0759 86.4662Z" fill="#371A45"/>
<path d="M76.1356 79.5007L76.5384 75.5293L77.756 79.3309C77.8961 79.7686 77.655 80.237 77.2173 80.3772C76.6613 80.5692 76.0652 80.0801 76.1356 79.5007Z" fill="#371A45"/>
<path d="M80.9438 78.6362C81.7945 78.7021 82.6534 78.5576 83.477 78.3173C84.3531 78.0597 85.1772 77.6426 85.9286 77.1074C85.0423 78.2559 83.8591 79.1755 82.5238 79.767C82.0463 79.9756 81.5533 80.1632 81.0359 80.2629L80.9438 78.6362Z" fill="#371A45"/>
<path d="M85.9766 70.4363C85.9506 70.4363 85.9241 70.435 85.8977 70.4325C76.0642 69.4871 71.2776 65.7848 71.0787 65.6277C70.7257 65.3487 70.6656 64.8365 70.9445 64.4834C71.2229 64.1311 71.7344 64.0705 72.0873 64.348C72.1394 64.3887 76.747 67.9159 86.0537 68.8108C86.5016 68.8538 86.8297 69.2517 86.7866 69.6996C86.7461 70.1209 86.3913 70.4363 85.9766 70.4363Z" fill="#371A45"/>
<path d="M72.2339 50.9375C74.9344 52.6155 77.9711 53.6059 81.0589 54.256C82.2787 54.5187 83.5181 54.7028 84.7468 54.9129C85.3643 55.007 85.984 55.0902 86.6007 55.2179C87.0624 55.2881 87.3786 55.7322 87.2816 56.1913C87.1993 56.5887 86.8402 56.8579 86.4473 56.84C85.1359 56.7899 83.827 56.6227 82.5498 56.3164C78.8725 55.4108 74.9089 53.6757 72.2339 50.9375Z" fill="#371A45"/>
<path d="M92.5305 55.8062C92.3353 54.3247 91.8679 52.8539 91.1377 51.541C91.7354 52.0531 92.2807 52.6381 92.7633 53.2665C93.2727 53.9329 93.7305 54.6131 94.1087 55.3727C94.6003 56.5875 92.7297 57.1025 92.5305 55.8062Z" fill="#371A45"/>
<path d="M86.0017 71.46C85.9919 71.46 85.9824 71.4599 85.9726 71.4597L72.514 71.2416C70.7002 71.2121 69.2246 69.7124 69.2246 67.8984V66.8947C69.2246 66.4448 69.5894 66.0801 70.0392 66.0801C70.4891 66.0801 70.8539 66.4448 70.8539 66.8947V67.8984C70.8539 68.8285 71.6104 69.5975 72.5402 69.6125L85.9989 69.8307C85.9998 69.8307 86.0009 69.8307 86.0016 69.8307C86.081 69.8307 86.1508 69.7749 86.1679 69.697L86.189 69.6016C86.2857 69.1621 86.72 68.8837 87.1598 68.9811C87.5991 69.0778 87.8769 69.5124 87.7801 69.9518L87.759 70.0476C87.5777 70.8703 86.8412 71.46 86.0017 71.46Z" fill="#371A45"/>
<path d="M74.7391 71.1762C74.7229 71.1762 74.7063 71.1757 74.6898 71.1745C73.1331 71.0684 71.9136 69.8401 71.9136 68.3783V65.6777C71.9136 65.2839 72.2328 64.9648 72.6264 64.9648C73.02 64.9648 73.3392 65.2839 73.3392 65.6777V68.3783C73.3392 69.1766 74.0753 69.7037 74.7869 69.7522C75.1797 69.779 75.4762 70.1191 75.4496 70.5119C75.4239 70.8881 75.1107 71.1762 74.7391 71.1762Z" fill="#371A45"/>
<path d="M83.4496 74.2576H78.1225C76.1479 74.2576 74.5415 72.6513 74.5415 70.6766V70.4729C74.5415 70.023 74.9063 69.6582 75.3561 69.6582C75.806 69.6582 76.1708 70.023 76.1708 70.4729V70.6766C76.1708 71.7528 77.0463 72.6284 78.1225 72.6284H83.4496C84.3951 72.6284 85.1644 71.8591 85.1644 70.9136V70.4728C85.1644 70.023 85.5292 69.6582 85.9791 69.6582C86.4289 69.6582 86.7937 70.023 86.7937 70.4728V70.9136C86.7937 72.7576 85.2935 74.2576 83.4496 74.2576Z" fill="#371A45"/>
<path d="M80.3289 74.1555C78.4105 74.1555 76.8496 72.5947 76.8496 70.6763V70.4726C76.8496 70.0789 77.1688 69.7598 77.5624 69.7598C77.956 69.7598 78.2752 70.0789 78.2752 70.4726V70.6763C78.2752 71.8087 79.1965 72.7299 80.3289 72.7299C80.7225 72.7299 81.0417 73.049 81.0417 73.4427C81.0417 73.8364 80.7225 74.1555 80.3289 74.1555Z" fill="#371A45"/>
<g opacity="0.25">
<path d="M84.7559 64.6138C84.7559 64.6138 73.1474 64.4467 67.5806 58.2012C67.5806 58.2012 66.6078 60.4567 69.6172 63.067C72.6266 65.6773 80.9882 69.0747 83.2285 69.4083C85.4688 69.7419 85.9779 69.1649 85.9779 69.1649L85.2651 67.1283" fill="#371A45"/>
</g>
<g opacity="0.25">
<path d="M96.9751 99.7136C95.1422 101.581 85.7392 101.072 83.1935 100.595C80.6477 100.121 80.4787 96.9295 80.4787 96.9295L80.493 96.4509L80.666 94.6221C85.3909 100.925 99.419 95.5385 89.5761 90.2719C91.0018 80.6632 90.3908 73.4435 90.3908 73.4435C90.3908 73.4435 84.892 73.3743 83.2627 72.694C81.6334 72.0159 81.5316 70.6452 81.5316 70.6452C76.3383 70.2929 73.0288 65.9102 73.0288 65.9102C78.9858 70.3662 86.9103 71.411 96.0892 70.2685C96.6044 81.6367 94.9039 90.6507 94.9039 90.6507C100.132 93.2637 98.8081 97.846 96.9751 99.7136Z" fill="#371A45"/>
</g>
<g opacity="0.25">
<path d="M84.9103 77.9512C83.1768 80.3273 82.0855 83.4485 81.3952 87.035L80.9624 79.6268L83.1517 78.8122" fill="#371A45"/>
</g>
<g opacity="0.25">
<path d="M76.7461 76.2933C76.7461 76.2933 76.4406 74.2593 73.2161 73.4434C73.2161 73.4434 73.6681 81.0793 72.6274 89.9724L76.5425 90.6513L76.9498 80.3156" fill="#371A45"/>
</g>
<g opacity="0.25">
<path d="M75.8626 100.696C70.1744 101.81 63.7408 101.391 61.1625 97.3153C60.7368 96.6412 60.5128 95.8592 60.4721 95.0608L60.3315 92.3094C60.4741 91.9469 60.5719 91.7188 60.5719 91.7188C67.6877 103.315 79.3472 94.6209 70.3475 90.4316L73.9625 90.9041L75.6691 91.1587L78.3615 93.0568C80.1537 95.5781 79.0886 99.4945 75.8626 100.696Z" fill="#371A45"/>
</g>
<g opacity="0.25">
<path d="M73.6816 49.9961C73.6816 49.9961 82.2431 53.5844 91.1363 51.1914C91.1363 51.1914 93.2577 50.0713 94.6833 50.9369L96.274 48.2384L92.2224 46.5215C89.4601 49.6572 83.8987 51.1735 73.6816 49.9961Z" fill="#371A45"/>
</g>
<path d="M53.0603 66.0037L57.7548 66.7603C58.2538 66.8408 58.6197 67.2697 58.6241 67.7751C58.6396 69.5565 58.3462 73.4895 55.5315 74.3235C52.1201 75.3343 50.3254 69.1505 52.0349 66.4511C52.2516 66.1089 52.6604 65.9393 53.0603 66.0037Z" fill="white"/>
<g opacity="0.25">
<path d="M55.533 74.3225C53.3457 74.9722 51.8243 72.6627 51.4639 70.2106C52.1522 70.9479 53.0463 71.3165 54.0931 71.0049C56.0136 70.4367 56.7611 68.4306 57.036 66.6445L57.7569 66.7606C58.2559 66.84 58.6205 67.2698 58.6245 67.7748C58.6408 69.5569 58.3476 73.4895 55.533 74.3225Z" fill="#371A45"/>
</g>
<path d="M54.8075 75.2472C53.7429 75.2472 52.7457 74.7093 51.9786 73.6942C50.3863 71.5871 50.0915 67.999 51.3477 66.0156C51.7359 65.4024 52.4591 65.0823 53.1908 65.1998L57.8853 65.9565C58.7781 66.1005 59.4316 66.8625 59.4396 67.7684C59.4559 69.6419 59.1303 74.1074 55.764 75.1049C55.442 75.2003 55.1218 75.2472 54.8075 75.2472ZM52.8932 66.8053C52.8226 66.8053 52.7564 66.8363 52.7242 66.8871C51.8388 68.2851 52.1134 71.1702 53.2785 72.7119C53.864 73.4872 54.5442 73.767 55.3009 73.5427C57.6052 72.8601 57.8234 69.2871 57.8103 67.7825C57.8093 67.6735 57.7319 67.582 57.6259 67.5651L52.9314 66.8084C52.9187 66.8063 52.9057 66.8053 52.8932 66.8053Z" fill="#371A45"/>
<path d="M45.0388 97.801H4.37476C2.5751 97.801 1.11621 96.3421 1.11621 94.5425V55.4187C1.11621 53.6191 2.5751 52.1602 4.37476 52.1602H45.0388C46.8384 52.1602 48.2973 53.6191 48.2973 55.4187V94.5425C48.2973 96.3421 46.8384 97.801 45.0388 97.801Z" fill="#B3B9BC"/>
<g opacity="0.7">
<path d="M47.7033 53.541C47.6504 53.5369 47.5974 53.5349 47.5424 53.5349H4.92668C3.66603 53.5349 2.64366 54.5572 2.64366 55.8179V96.894C2.64366 97.0426 2.65791 97.1893 2.68643 97.3298C1.74552 96.7575 1.11621 95.7229 1.11621 94.5417V55.4187C1.11621 53.6184 2.57645 52.1602 4.37476 52.1602H45.0395C46.1413 52.1602 47.1127 52.706 47.7033 53.541Z" fill="white"/>
</g>
<path d="M9.2505 100.631H7.90138C6.33838 100.631 5.07129 99.3638 5.07129 97.8008H12.0806C12.0806 99.3638 10.8135 100.631 9.2505 100.631Z" fill="#B3B9BC"/>
<g opacity="0.25">
<path d="M12.0819 97.7988C12.0819 98.5809 11.7662 99.2896 11.253 99.8008C10.7398 100.312 10.0331 100.63 9.25103 100.63H7.9028C7.72358 100.63 7.54843 100.613 7.37939 100.581C7.95168 100.475 8.46286 100.196 8.85796 99.8008C9.37119 99.2896 9.68686 98.5809 9.68686 97.7988H12.0819Z" fill="#371A45"/>
</g>
<path d="M41.3955 100.631H40.0464C38.4834 100.631 37.2163 99.3638 37.2163 97.8008H44.2256C44.2256 99.3638 42.9585 100.631 41.3955 100.631Z" fill="#B3B9BC"/>
<g opacity="0.25">
<path d="M44.225 97.7988C44.225 98.5809 43.9073 99.2896 43.3961 99.8008C42.885 100.312 42.1762 100.63 41.3942 100.63H40.0459C39.7812 100.63 39.5246 100.593 39.2822 100.524C39.7568 100.391 40.1804 100.139 40.5184 99.8008C41.0317 99.2896 41.3494 98.5809 41.3494 97.7988H44.225Z" fill="#371A45"/>
</g>
<path d="M9.25112 101.232H7.90208C6.00988 101.232 4.4707 99.6926 4.4707 97.8005C4.4707 97.4684 4.73978 97.1992 5.07195 97.1992H12.0813C12.4134 97.1992 12.6825 97.4684 12.6825 97.8005C12.6825 99.6927 11.1433 101.232 9.25112 101.232ZM5.75571 98.4019C6.01884 99.3396 6.88142 100.029 7.90208 100.029H9.25112C10.2718 100.029 11.1344 99.3396 11.3975 98.4019H5.75571Z" fill="#371A45"/>
<path d="M41.3961 101.232H40.0471C38.1549 101.232 36.6157 99.6926 36.6157 97.8005C36.6157 97.4684 36.8848 97.1992 37.217 97.1992H44.2263C44.5584 97.1992 44.8276 97.4684 44.8276 97.8005C44.8276 99.6927 43.2884 101.232 41.3961 101.232ZM37.9007 98.4019C38.1639 99.3396 39.0264 100.029 40.0471 100.029H41.3961C42.4168 100.029 43.2794 99.3396 43.5425 98.4019H37.9007Z" fill="#371A45"/>
<g opacity="0.7">
<path d="M45.9804 56.6887V94.3698C45.9804 94.5979 45.7971 94.7812 45.571 94.7812H6.58855C6.36249 94.7812 6.1792 94.5979 6.1792 94.3698V94.2313H44.1963C44.4224 94.2313 44.6057 94.048 44.6057 93.822V56.2773H45.571C45.7971 56.2773 45.9804 56.4606 45.9804 56.6887Z" fill="white"/>
</g>
<path d="M44.1973 94.8319H5.21503C4.65753 94.8319 4.2041 94.3784 4.2041 93.8209V56.138C4.2041 55.5805 4.65757 55.127 5.21503 55.127H44.1973C44.7548 55.127 45.2083 55.5805 45.2083 56.138V93.8209C45.2083 94.3784 44.7548 94.8319 44.1973 94.8319ZM5.40655 93.6293H44.0058V56.3296H5.40655V93.6293Z" fill="#371A45"/>
<g opacity="0.25">
<path d="M44.197 94.2307H5.21486C4.98859 94.2307 4.80518 94.0473 4.80518 93.821V56.1382C4.80518 55.9119 4.98859 55.7285 5.21486 55.7285H44.197C44.4233 55.7285 44.6067 55.9119 44.6067 56.1382V93.821C44.6067 94.0473 44.4233 94.2307 44.197 94.2307Z" fill="#371A45"/>
</g>
<path d="M45.0373 98.5138H4.37321C2.18347 98.5138 0.401855 96.7323 0.401855 94.5424V55.4186C0.401855 53.2288 2.18347 51.4473 4.37321 51.4473H45.0373C47.227 51.4473 49.0087 53.2288 49.0087 55.4186V94.5424C49.0087 96.7323 47.227 98.5138 45.0373 98.5138ZM4.37321 52.8729C2.96947 52.8729 1.82747 54.0149 1.82747 55.4186V94.5424C1.82747 95.9462 2.96947 97.0882 4.37321 97.0882H45.0373C46.441 97.0882 47.583 95.9462 47.583 94.5424V55.4186C47.583 54.0149 46.441 52.8729 45.0373 52.8729H4.37321Z" fill="#371A45"/>
<path d="M50.0302 98.0837C47.1118 96.9636 43.9876 99.4747 43.9876 99.4747C43.509 98.4727 42.9164 97.599 42.2972 96.8536C40.5112 94.6907 38.5234 93.6032 38.5234 93.6032L38.7556 89.1797C42.4337 90.3894 45.5151 91.87 47.5517 93.8272C48.8205 95.043 49.684 96.4463 50.0302 98.0837Z" fill="#82C146"/>
<path d="M43.9873 100.188C43.9344 100.188 43.8811 100.182 43.8284 100.17C43.6166 100.121 43.438 99.9793 43.3443 99.7833C41.5969 96.1294 38.2142 94.2474 38.1804 94.2288C37.835 94.0399 37.7082 93.6067 37.8972 93.2613C38.0862 92.9159 38.5195 92.7894 38.8646 92.9782C39.0102 93.0578 42.2417 94.8562 44.2464 98.429C45.2097 97.8253 47.0348 96.9085 48.9927 97.111C47.8005 94.125 44.433 91.7991 38.5327 89.8568C38.1587 89.7337 37.9555 89.3307 38.0786 88.9568C38.2017 88.5828 38.6054 88.3799 38.9786 88.5026C46.1289 90.8565 49.862 93.8542 50.7266 97.9363C50.7807 98.1919 50.6908 98.4565 50.4921 98.6262C50.2936 98.7958 50.0188 98.8436 49.7739 98.7495C47.2811 97.7926 44.4613 100.009 44.4332 100.032C44.3055 100.134 44.1478 100.188 43.9873 100.188Z" fill="#371A45"/>
<path d="M45.3051 94.2131C45.5794 93.4079 44.6473 92.3618 43.2233 91.8766C41.7992 91.3915 40.4224 91.6509 40.1481 92.4561C39.8738 93.2613 40.8058 94.3074 42.2299 94.7925C43.6539 95.2777 45.0307 95.0183 45.3051 94.2131Z" fill="#6B9E35"/>
<path d="M38.5234 86.9845C38.5234 86.9845 44.3277 86.8827 48.2991 92.3815C48.2991 92.3815 45.1763 92.1099 43.1058 93.6034C43.1058 93.6034 41.5104 91.8384 38.5234 90.6164" fill="#82C146"/>
<path d="M39.797 89.4788C40.6547 89.4788 41.3499 88.9602 41.3499 88.3204C41.3499 87.6807 40.6547 87.1621 39.797 87.1621C38.9394 87.1621 38.2441 87.6807 38.2441 88.3204C38.2441 88.9602 38.9394 89.4788 39.797 89.4788Z" fill="#6B9E35"/>
<path d="M43.1053 94.3162C42.9098 94.3162 42.7159 94.2362 42.5761 94.0813C42.562 94.066 41.0363 92.4149 38.2527 91.2761C37.8883 91.1271 37.7137 90.7109 37.8629 90.3466C38.012 89.9821 38.4287 89.8074 38.7925 89.9567C41.0214 90.8685 42.511 92.0665 43.1986 92.6971C44.4028 92.0086 45.7883 91.7624 46.8211 91.6829C43.2274 87.6863 38.74 87.6948 38.5333 87.6972C38.5303 87.6973 38.5271 87.6973 38.5241 87.6973C38.1353 87.6973 37.8165 87.3851 37.8107 86.9952C37.8047 86.6023 38.117 86.2786 38.51 86.2718C38.762 86.2679 44.7339 86.229 48.8759 91.9641C49.0392 92.1901 49.0557 92.4906 48.9181 92.7332C48.7805 92.9756 48.5146 93.1151 48.2365 93.0916C48.2083 93.0891 45.3465 92.8653 43.5219 94.1816C43.3963 94.2721 43.2503 94.3162 43.1053 94.3162Z" fill="#371A45"/>
<g opacity="0.25">
<path d="M46.5362 93.6043L43.4134 95.4373L38.8989 92.8236V91.1264L41.1053 91.975C41.1053 91.975 46.9358 90.5758 43.0192 88.0508L47.5545 92.0089L46.5362 92.4163" fill="#371A45"/>
</g>
<g opacity="0.25">
<path d="M50.0308 98.0846C47.1124 96.9645 43.9882 99.4756 43.9882 99.4756C43.5096 98.4736 42.917 97.5999 42.2979 96.8545C42.4302 96.9013 42.5708 96.9604 42.7235 97.0317C47.2651 99.1375 47.5523 93.8281 47.5523 93.8281C48.8211 95.044 49.6846 96.4472 50.0308 98.0846Z" fill="#371A45"/>
</g>
<path d="M35.7666 51.7012L38.4651 52.1594V96.9136L35.7666 97.9149" fill="#B3B9BC"/>
<path d="M35.7657 51.7012V97.9156L4.30029 94.0461V55.5707L35.7657 51.7012Z" fill="#B3B9BC"/>
<g opacity="0.7">
<path d="M35.7657 51.7012V53.0799L5.86236 56.758V94.2375L4.30029 94.0461V55.5707L35.7657 51.7012Z" fill="white"/>
</g>
<path d="M35.7685 98.6277C35.7397 98.6277 35.7107 98.6259 35.6816 98.6223L4.21622 94.7528C3.85884 94.7088 3.59033 94.4053 3.59033 94.0453V55.5706C3.59033 55.2106 3.85884 54.9071 4.21622 54.8632L35.6816 50.9936C35.8843 50.9687 36.088 51.0319 36.2409 51.1671C36.3938 51.3025 36.4813 51.4968 36.4813 51.7011V97.9149C36.4813 98.1191 36.3938 98.3134 36.2409 98.4488C36.1098 98.5646 35.9416 98.6277 35.7685 98.6277ZM5.01595 93.4148L35.0557 97.109V52.507L5.01595 56.2012V93.4148Z" fill="#371A45"/>
<path d="M3.71741 69.6485C2.97226 69.6485 2.36816 69.0444 2.36816 68.2993V64.277C2.36816 63.5318 2.97226 62.9277 3.71741 62.9277C4.46256 62.9277 5.06665 63.5318 5.06665 64.277V68.2993C5.06665 69.0444 4.46256 69.6485 3.71741 69.6485Z" fill="#3AB7FC"/>
<g opacity="0.25">
<path d="M5.06665 65.8398V68.3C5.06665 69.0454 4.46178 69.6503 3.71843 69.6503H3.71639C2.97303 69.6503 2.36816 69.0454 2.36816 68.3V65.8398C2.36816 66.5852 2.97303 67.1881 3.71639 67.1881H3.71843C4.46178 67.1881 5.06665 66.5852 5.06665 65.8398Z" fill="#371A45"/>
</g>
<g opacity="0.7">
<path d="M5.06665 64.2779V65.6689C5.06665 64.9235 4.46178 64.3207 3.71843 64.3207H3.71639C2.97303 64.3207 2.36816 64.9235 2.36816 65.6689V64.2779C2.36816 63.5325 2.97303 62.9297 3.71639 62.9297H3.71843C4.46178 62.9297 5.06665 63.5325 5.06665 64.2779Z" fill="white"/>
</g>
<path d="M3.71586 70.3612C2.57883 70.3612 1.65381 69.4362 1.65381 68.2992V64.2769C1.65381 63.1399 2.57883 62.2148 3.71586 62.2148C4.85289 62.2148 5.77791 63.1399 5.77791 64.2769V68.2992C5.77791 69.4362 4.85289 70.3612 3.71586 70.3612ZM3.71586 63.6405C3.36504 63.6405 3.07943 63.926 3.07943 64.2769V68.2992C3.07943 68.6501 3.36504 68.9356 3.71586 68.9356C4.06669 68.9356 4.3523 68.6501 4.3523 68.2992V64.2769C4.3523 63.926 4.06669 63.6405 3.71586 63.6405Z" fill="#371A45"/>
<path d="M3.71741 88.3165C2.97226 88.3165 2.36816 87.7124 2.36816 86.9672V82.9449C2.36816 82.1998 2.97226 81.5957 3.71741 81.5957C4.46256 81.5957 5.06665 82.1998 5.06665 82.9449V86.9672C5.06665 87.7124 4.46256 88.3165 3.71741 88.3165Z" fill="#3AB7FC"/>
<g opacity="0.25">
<path d="M22.5815 78.2623C22.5815 82.087 19.9604 85.1867 16.7263 85.1867C16.6204 85.1867 16.5145 85.1827 16.4106 85.1766C13.3252 84.9831 10.8711 81.9608 10.8711 78.2623C10.8711 74.4376 13.4942 71.3379 16.7263 71.3379C18.8586 71.3379 20.7241 72.6841 21.7465 74.6983H21.7485C22.276 75.739 22.5815 76.9589 22.5815 78.2623Z" fill="#371A45"/>
</g>
<g opacity="0.25">
<path d="M5.06665 84.7793V86.9686C5.06665 87.714 4.46178 88.3169 3.71843 88.3169H3.71639C2.97303 88.3169 2.36816 87.7141 2.36816 86.9686V84.7793C2.36816 85.5247 2.97303 86.1276 3.71639 86.1276H3.71843C4.46178 86.1275 5.06665 85.5247 5.06665 84.7793Z" fill="#371A45"/>
</g>
<g opacity="0.7">
<path d="M5.06665 82.9459V84.5752C5.06665 83.8298 4.46178 83.225 3.71843 83.225H3.71639C2.97303 83.225 2.36816 83.8299 2.36816 84.5752V82.9459C2.36816 82.2005 2.97303 81.5957 3.71639 81.5957H3.71843C4.46178 81.5957 5.06665 82.2005 5.06665 82.9459Z" fill="white"/>
</g>
<path d="M20.4194 75.5807C20.4194 79.4054 17.7983 82.5051 14.5642 82.5051C14.4583 82.5051 14.3524 82.501 14.2485 82.4949C11.1631 82.3014 8.70898 79.2791 8.70898 75.5807C8.70898 71.7559 11.3321 68.6562 14.5642 68.6562C16.6965 68.6562 18.562 70.0024 19.5844 72.0166H19.5864C20.1139 73.0573 20.4194 74.2773 20.4194 75.5807Z" fill="#3AB7FC"/>
<path d="M14.5631 83.2178C10.9414 83.2178 7.99512 79.7918 7.99512 75.5806C7.99512 71.3694 10.9414 67.9434 14.5631 67.9434C18.1849 67.9434 21.1312 71.3694 21.1312 75.5806C21.1312 79.7918 18.1849 83.2178 14.5631 83.2178ZM14.5631 69.369C11.7276 69.369 9.42073 72.1555 9.42073 75.5806C9.42073 79.0057 11.7276 81.7922 14.5631 81.7922C17.3986 81.7922 19.7055 79.0057 19.7055 75.5806C19.7055 72.1555 17.3986 69.369 14.5631 69.369Z" fill="#371A45"/>
<path d="M3.71586 89.0292C2.57883 89.0292 1.65381 88.1042 1.65381 86.9671V82.9449C1.65381 81.8078 2.57883 80.8828 3.71586 80.8828C4.85289 80.8828 5.77791 81.8078 5.77791 82.9449V86.9671C5.77791 88.1042 4.85289 89.0292 3.71586 89.0292ZM3.71586 82.3084C3.36504 82.3084 3.07943 82.5939 3.07943 82.9449V86.9671C3.07943 87.3181 3.36504 87.6036 3.71586 87.6036C4.06669 87.6036 4.3523 87.3181 4.3523 86.9671V82.9449C4.3523 82.594 4.06669 82.3084 3.71586 82.3084Z" fill="#371A45"/>
<path d="M12.2991 82.5051C15.5328 82.5051 18.1543 79.4049 18.1543 75.5807C18.1543 71.7564 15.5328 68.6562 12.2991 68.6562C9.06531 68.6562 6.44385 71.7564 6.44385 75.5807C6.44385 79.4049 9.06531 82.5051 12.2991 82.5051Z" fill="#3AB7FC"/>
<g opacity="0.25">
<path d="M18.1537 75.58C18.1537 79.4047 15.5326 82.5044 12.2985 82.5044C9.87902 82.5044 7.8017 80.7693 6.90967 78.2928C7.9524 79.4271 9.3434 80.1196 10.8729 80.1196C14.107 80.1196 16.7281 77.0199 16.7281 73.1952C16.7281 72.2319 16.5611 71.3154 16.2597 70.4824C17.4246 71.7471 18.1537 73.5638 18.1537 75.58Z" fill="#371A45"/>
</g>
<g opacity="0.7">
<path d="M17.2134 71.817C16.1503 70.5197 14.6615 69.7132 13.0119 69.7132C9.77775 69.7132 7.15666 72.8129 7.15666 76.6377C7.15666 78.0246 7.50288 79.3178 8.09756 80.4013C7.07316 79.1549 6.44385 77.4543 6.44385 75.5807C6.44385 71.7559 9.06495 68.6562 12.2991 68.6562C14.3601 68.6562 16.1706 69.9149 17.2134 71.817Z" fill="white"/>
</g>
<path d="M12.298 83.2178C8.67628 83.2178 5.72998 79.7918 5.72998 75.5806C5.72998 71.3694 8.67628 67.9434 12.298 67.9434C15.9197 67.9434 18.866 71.3694 18.866 75.5806C18.866 79.7918 15.9197 83.2178 12.298 83.2178ZM12.298 69.369C9.46249 69.369 7.1556 72.1555 7.1556 75.5806C7.1556 79.0057 9.46249 81.7922 12.298 81.7922C15.1335 81.7922 17.4404 79.0057 17.4404 75.5806C17.4404 72.1555 15.1335 69.369 12.298 69.369Z" fill="#371A45"/>
<path d="M12.2934 80.2301C10.0905 80.2301 8.29834 78.144 8.29834 75.5798C8.29834 73.0157 10.0905 70.9297 12.2934 70.9297C14.4962 70.9297 16.2884 73.0157 16.2884 75.5798C16.2884 78.144 14.4962 80.2301 12.2934 80.2301ZM12.2934 71.7443C10.5398 71.7443 9.11298 73.4648 9.11298 75.5798C9.11298 77.6948 10.5398 79.4154 12.2934 79.4154C14.047 79.4154 15.4738 77.6947 15.4738 75.5798C15.4738 73.4649 14.0469 71.7443 12.2934 71.7443Z" fill="#371A45"/>
<g opacity="0.25">
<path d="M12.2977 77.0103C12.9651 77.0103 13.5061 76.3706 13.5061 75.5813C13.5061 74.7921 12.9651 74.1523 12.2977 74.1523C11.6304 74.1523 11.0894 74.7921 11.0894 75.5813C11.0894 76.3706 11.6304 77.0103 12.2977 77.0103Z" fill="#371A45"/>
</g>
<path d="M12.8032 69.1647L12.2941 70.2594L11.7849 69.1647C11.6542 68.8835 11.7761 68.5495 12.0573 68.4188C12.5209 68.191 13.0279 68.709 12.8032 69.1647Z" fill="#371A45"/>
<path d="M12.2965 80.7734L12.8057 81.8681C12.9364 82.1493 12.8145 82.4833 12.5333 82.614C12.0697 82.8418 11.5627 82.3238 11.7874 81.8681L12.2965 80.7734Z" fill="#371A45"/>
<path d="M7.97883 70.9336L8.55359 72.0164L7.35889 71.7415L7.97883 70.9336Z" fill="#371A45"/>
<path d="M17.0727 71.7124L15.9897 72.0165L16.3833 70.9629L17.0727 71.7124Z" fill="#371A45"/>
<path d="M6.5415 75.5547L7.5598 76.0638L6.5415 76.573V75.5547Z" fill="#371A45"/>
<path d="M18.1395 76.573L17.1104 76.0638L18.1395 75.5547V76.573Z" fill="#371A45"/>
<path d="M8.01221 80.315L9.32117 79.8223L8.69328 81.072L8.01221 80.315Z" fill="#371A45"/>
<g opacity="0.25">
<path d="M27.9934 80.1561V76.2811C27.2867 75.5948 27.2094 74.6661 27.5963 73.9737C28.0321 73.1977 29.0077 72.9268 29.8325 73.2629C30.9713 73.7296 31.2813 74.8596 30.6942 75.769C30.4119 76.2063 30.2337 76.7023 30.2337 77.2228V80.0831C30.2337 80.5332 29.8688 80.898 29.4187 80.898H28.7354C28.3256 80.8981 27.9934 80.5659 27.9934 80.1561Z" fill="#371A45"/>
</g>
<path d="M27.0852 79.8414V75.2245C26.3785 74.5381 26.3011 73.6095 26.6881 72.917C27.1239 72.1411 28.0995 71.8702 28.9243 72.2062C30.0631 72.6729 30.3731 73.803 29.786 74.7124C29.5037 75.1496 29.3255 75.6457 29.3255 76.1662V79.0265C29.3255 79.4766 28.9606 79.8414 28.5105 79.8414H27.0852Z" fill="#3AB7FC"/>
<g opacity="0.25">
<path d="M27.0852 79.8414V75.2245C26.3785 74.5381 26.3011 73.6095 26.6881 72.917C27.1239 72.1411 28.0995 71.8702 28.9243 72.2062C30.0631 72.6729 30.3731 73.803 29.786 74.7124C29.5037 75.1496 29.3255 75.6457 29.3255 76.1662V79.0265C29.3255 79.4766 28.9606 79.8414 28.5105 79.8414H27.0852Z" fill="#371A45"/>
</g>
<path d="M28.5123 80.2485H27.087C26.8621 80.2485 26.6797 80.0661 26.6797 79.8411V75.3881C25.9966 74.629 25.8543 73.5768 26.3343 72.718C26.8576 71.7863 28.0374 71.4044 29.0799 71.8288C29.7398 72.0993 30.207 72.5798 30.3961 73.1819C30.5759 73.7543 30.4788 74.3925 30.13 74.9331C29.8677 75.3394 29.7346 75.7542 29.7346 76.1659V79.0262C29.7346 79.7001 29.1863 80.2485 28.5123 80.2485ZM27.4944 79.4338H28.5123C28.737 79.4338 28.92 79.2509 28.92 79.0262V76.1659C28.92 75.603 29.1018 75.0239 29.4454 74.4913C29.6658 74.1499 29.7274 73.7717 29.6189 73.426C29.5037 73.059 29.2028 72.7596 28.7716 72.5829C28.1097 72.3133 27.3673 72.5426 27.045 73.1162C26.7151 73.7063 26.843 74.4193 27.3708 74.932C27.4498 75.0087 27.4943 75.1141 27.4943 75.2242L27.4944 79.4338Z" fill="#371A45"/>
<path d="M15.8809 80.7952L15.5591 79.8223L16.5611 80.0373L15.8809 80.7952Z" fill="#371A45"/>
<path d="M25.9407 79.0265V75.2245C25.234 74.5381 25.1566 73.6095 25.5436 72.917C25.9794 72.1411 26.9549 71.8702 27.7798 72.2062C29.1463 72.7663 29.3194 74.2815 28.181 75.2245V79.8414H26.7557C26.3056 79.8414 25.9407 79.4766 25.9407 79.0265Z" fill="#3AB7FC"/>
<g opacity="0.7">
<path d="M26.2299 73.1451C25.845 73.8376 25.9224 74.7683 26.627 75.4546V79.2549C26.627 79.485 26.7228 79.6928 26.8775 79.8414H26.7553C26.3053 79.8414 25.9407 79.4769 25.9407 79.0268V75.2245C25.234 74.5381 25.1566 73.6094 25.5436 72.917C25.9794 72.1411 26.9549 71.8702 27.7798 72.2062C27.8571 72.2388 27.9325 72.2734 28.0017 72.3121C27.3012 72.2164 26.5883 72.5138 26.2299 73.1451Z" fill="white"/>
</g>
<path d="M28.1813 80.2485H26.7561C26.0821 80.2485 25.5337 79.7001 25.5337 79.0262V75.3881C24.8506 74.629 24.7083 73.5768 25.1883 72.718C25.7116 71.7863 26.891 71.4044 27.9339 71.8288C28.7022 72.1436 29.2062 72.7422 29.3174 73.4712C29.4224 74.159 29.1515 74.87 28.5886 75.4068V79.8411C28.5886 80.0661 28.4062 80.2485 28.1813 80.2485ZM27.0566 72.4704C26.5776 72.4704 26.1302 72.7046 25.899 73.1162C25.5691 73.7063 25.697 74.4193 26.2248 74.932C26.3038 75.0087 26.3483 75.1141 26.3483 75.2242V79.0262C26.3483 79.2509 26.5313 79.4338 26.756 79.4338H27.7739V75.2241C27.7739 75.1028 27.828 74.9878 27.9215 74.9105C28.368 74.5407 28.5832 74.0609 28.512 73.5941C28.445 73.1548 28.122 72.7862 27.6256 72.5828C27.4386 72.5067 27.2451 72.4704 27.0566 72.4704Z" fill="#371A45"/>
<path d="M35.7657 98.628C35.4764 98.628 35.2041 98.4503 35.0975 98.163C34.9605 97.7938 35.1486 97.3837 35.5177 97.2467L37.7514 96.4177V52.7613L35.6464 52.4039C35.2584 52.338 34.997 51.97 35.0631 51.5819C35.1287 51.1938 35.4963 50.9327 35.8851 50.9984L38.5836 51.4566C38.9263 51.5148 39.177 51.8117 39.177 52.1594V96.9136C39.177 97.2116 38.9917 97.4782 38.7122 97.5818L36.0138 98.5832C35.932 98.6136 35.8483 98.628 35.7657 98.628Z" fill="#371A45"/>
<g opacity="0.25">
<path d="M35.7666 52.1602L38.4651 52.5166L38.3378 96.6598L36.1739 97.4744" fill="#371A45"/>
</g>
<g opacity="0.25">
<path d="M20.417 75.5797C20.417 79.4044 17.7959 82.5041 14.5618 82.5041C14.4559 82.5041 14.35 82.5 14.2461 82.4939C18.2582 80.7587 18.7612 74.8159 17.3152 72.0156H19.584C20.1115 73.0563 20.417 74.2762 20.417 75.5797Z" fill="#371A45"/>
</g>
<g opacity="0.25">
<path d="M35.7657 52.1602V97.9163L4.30029 94.0468C23.6235 92.5397 35.4195 80.699 35.0529 52.1602H35.7657Z" fill="#371A45"/>
</g>
<g opacity="0.25">
<path d="M6.71729 94.623C6.81911 94.7819 14.9316 97.9162 14.9316 97.9162H26.0816L20.8756 96.0842" fill="#371A45"/>
</g>
<g opacity="0.25">
<path d="M38.6406 95.217C38.6406 95.217 40.4736 97.6948 40.5584 97.6948C40.6432 97.6948 42.4592 97.0499 42.4592 97.0499L38.7425 94.4023" fill="#371A45"/>
</g>
</svg>
