<svg width="130" height="130" viewBox="0 0 130 130" fill="none" xmlns="http://www.w3.org/2000/svg">
<rect width="130" height="130" rx="65" fill="#3B4A74"/>
<path d="M65.0002 23.0006C62.3091 22.9803 59.6419 23.5066 57.1602 24.5476C54.7452 25.5346 52.6032 26.9836 50.8182 28.8526V28.8736L50.8112 28.8876C49.0752 30.7706 47.7312 33.0316 46.7932 35.6076C45.8342 38.1766 45.3722 40.9906 45.3722 44.0076C45.3722 47.0526 45.8272 49.8946 46.7932 52.4706C47.7382 54.9976 49.0822 57.2306 50.8112 59.1206L50.8182 59.1346C52.5962 61.0036 54.7242 62.4736 57.1252 63.5026V63.5236C59.5472 64.5106 62.1862 64.9936 64.9652 64.9936C67.7302 64.9936 70.3552 64.5106 72.7842 63.5236V63.5096C75.1852 62.4806 77.2922 61.0106 79.0282 59.1346C80.8132 57.2586 82.1782 55.0046 83.1302 52.4706C84.0962 49.8946 84.5582 47.0526 84.5582 44.0006H84.6282C84.6282 40.9906 84.1732 38.1836 83.2072 35.6146C82.3182 33.1109 80.9244 30.8165 79.1122 28.8736C77.3626 26.9876 75.2187 25.5106 72.8332 24.5476C70.3518 23.5057 67.6914 22.9793 65.0002 23.0006ZM65.1682 79.0146C48.9492 79.0146 40.2412 80.5056 33.7662 85.3846C30.5322 87.8346 28.3972 91.1596 27.1932 95.0306C25.9892 98.9016 25.6112 101.856 25.5972 107.001L65.0002 107.015H104.403C104.396 101.863 104.039 98.9016 102.828 95.0306C101.624 91.1596 99.4892 87.8416 96.2482 85.3986C89.7872 80.5196 81.3802 79.0146 65.1682 79.0146Z" fill="#C7F5FC"/>
</svg>
