<svg width="32" height="32" viewBox="0 0 32 32" fill="none" xmlns="http://www.w3.org/2000/svg">
<path fill-rule="evenodd" clip-rule="evenodd" d="M24.2651 22.5731L23.2622 10.1145C22.9628 6.39563 19.7522 3.52548 15.8916 3.52548H14.9654C11.1048 3.52548 7.89418 6.39562 7.59482 10.1145L6.5919 22.5731L24.2651 22.5731ZM5.13795 9.92983L4.12017 22.5731L2.28564 22.5731V24.9541L3.9285 24.9541H6.40023H9.0641C9.7936 27.6925 12.3665 29.716 15.4285 29.716C18.4905 29.716 21.0634 27.6925 21.7929 24.9541H24.4568H26.9285H28.5714V22.5731H26.7368L25.7191 9.92984C25.3199 4.97139 21.0391 1.14453 15.8916 1.14453H14.9654C9.81792 1.14453 5.53711 4.97138 5.13795 9.92983ZM19.1939 24.9541L11.6631 24.9541C12.2969 26.3556 13.7443 27.335 15.4285 27.335C17.1127 27.335 18.5601 26.3556 19.1939 24.9541Z" fill="white"/>
</svg>
