<svg width="28" height="28" viewBox="0 0 28 28" fill="none" xmlns="http://www.w3.org/2000/svg">
<path fill-rule="evenodd" clip-rule="evenodd" d="M18.974 9.17738C19.2024 8.76761 19.3332 8.29142 19.3332 7.7834C19.3332 6.66361 18.6849 5.65168 17.6939 5.21879C16.2179 4.57399 14.5261 5.40872 14.077 7.00968L13.9999 7.28443L13.9229 7.00968C13.4737 5.40872 11.7819 4.57399 10.3059 5.21879C9.31501 5.65168 8.66667 6.66361 8.66667 7.7834C8.66667 8.29142 8.79746 8.76761 9.02586 9.17738H6.88889C6.39797 9.17738 6 9.59214 6 10.1038V12.883C6 13.5688 6.35751 14.1675 6.88889 14.4879V21.2208C6.88889 22.7557 8.0828 24 9.55556 24H18.4444C19.9172 24 21.1111 22.7557 21.1111 21.2208V14.4879C21.6425 14.1675 22 13.5688 22 12.883V10.1038C22 9.59214 21.602 9.17738 21.1111 9.17738H18.974ZM13.1406 9.17294H11.3333C10.5969 9.17294 10 8.55082 10 7.7834C10 7.22578 10.3239 6.71767 10.8214 6.50036C11.5676 6.17436 12.4185 6.59892 12.6431 7.39963L13.1406 9.17294ZM14.8593 9.17294H16.6666C17.4029 9.17294 17.9999 8.55082 17.9999 7.7834C17.9999 7.22578 17.676 6.71767 17.1785 6.50036C16.4323 6.17436 15.5814 6.59892 15.3568 7.39963L14.8593 9.17294ZM7.33333 12.883V10.567H13.3333V13.3462H7.77778C7.53232 13.3462 7.33333 13.1388 7.33333 12.883ZM14.6667 13.3462V10.567H20.6667V12.883C20.6667 13.1388 20.4677 13.3462 20.2222 13.3462H14.6667ZM8.22222 14.7358H13.3333L13.3333 22.6104H9.55556C8.81918 22.6104 8.22222 21.9883 8.22222 21.2208V14.7358ZM14.6667 14.7358L14.6667 22.6104H18.4444C19.1808 22.6104 19.7778 21.9883 19.7778 21.2208V14.7358H14.6667Z" fill="white"/>
</svg>
