<svg width="28" height="28" viewBox="0 0 28 28" fill="none" xmlns="http://www.w3.org/2000/svg">
<path fill-rule="evenodd" clip-rule="evenodd" d="M4 10.6016C4 7.52783 6.40574 5 9.41671 5C10.9893 5 12.3529 5.84228 13.2983 6.99053C13.5616 7.31039 13.7975 7.6595 14.0007 8.02975C14.2038 7.65959 14.4395 7.31055 14.7026 6.99073C15.6475 5.84237 17.0106 5 18.5833 5C21.5943 5 24 7.52783 24 10.6016C24 13.3272 22.3234 15.744 20.4075 17.7328C18.9388 19.2574 17.2134 20.6426 15.7731 21.799C15.3253 22.1586 14.905 22.496 14.5285 22.8086C14.2212 23.0638 13.7788 23.0638 13.4715 22.8086C13.095 22.496 12.6747 22.1586 12.2269 21.799C10.7866 20.6426 9.06121 19.2574 7.59245 17.7328C5.67658 15.744 4 13.3272 4 10.6016ZM14.8345 11.1886H13.1676C13.1676 10.087 12.7324 8.93903 12.018 8.0713C11.304 7.20409 10.3754 6.68781 9.41671 6.68781C7.36512 6.68781 5.66684 8.42019 5.66684 10.6016C5.66684 12.6338 6.93666 14.6349 8.78564 16.5542C10.1722 17.9936 11.7732 19.2794 13.2 20.4253C13.474 20.6454 13.7416 20.8603 14 21.0701C14.2584 20.8603 14.526 20.6454 14.8 20.4253C16.2267 19.2794 17.8278 17.9936 19.2144 16.5542C21.0633 14.6349 22.3332 12.6338 22.3332 10.6016C22.3332 8.42019 20.6349 6.68781 18.5833 6.68781C17.6247 6.68781 16.6967 7.204 15.9833 8.07109C15.2694 8.93875 14.8345 10.0868 14.8345 11.1886Z" fill="white"/>
</svg>
