<svg width="25" height="37" viewBox="0 0 25 37" fill="none" xmlns="http://www.w3.org/2000/svg">
<path fill-rule="evenodd" clip-rule="evenodd" d="M6.55127 26.4118L18.1387 26.4281C18.8613 25.2166 19.0685 23.8314 20.0408 22.7829C23.1116 19.48 25.7256 15.9543 24.8171 10.3372C24.307 7.17554 22.219 4.1877 20.7208 2.99257C15.1476 -1.46203 7.83169 -0.92965 2.78442 4.49735C-0.663659 8.2077 -0.892114 14.694 2.00342 19.6375C2.63566 20.7186 3.70887 21.7888 4.47924 22.734C5.494 23.9835 5.78621 25.2655 6.55659 26.4118H6.55127Z" fill="white"/>
<path fill-rule="evenodd" clip-rule="evenodd" d="M8.88834 33.2512C9.57371 35.0113 10.0359 36.0652 12.3789 36.0217C14.5519 35.9837 15.4285 35.0547 15.7526 33.061C16.9905 32.9252 17.915 33.0013 18.3506 31.9745C18.6747 31.2086 18.696 29.5734 17.9097 28.9269C17.033 28.2044 11.0985 28.5249 9.324 28.5249C7.5123 28.5304 6.17876 28.5575 6.08312 30.5838C5.98218 32.8709 7.42729 32.6916 8.88834 33.2512Z" fill="white"/>
</svg>
