<svg width="28" height="28" viewBox="0 0 28 28" fill="none" xmlns="http://www.w3.org/2000/svg">
<path d="M19.8337 7.33333H19.0003V6.5C18.9996 5.83719 18.736 5.20173 18.2673 4.73306C17.7986 4.26438 17.1631 4.00074 16.5003 4H8.16699C7.50418 4.00074 6.86873 4.26438 6.40005 4.73306C5.93137 5.20173 5.66774 5.83719 5.66699 6.5V18.1667C5.66774 18.8295 5.93137 19.4649 6.40005 19.9336C6.86873 20.4023 7.50418 20.6659 8.16699 20.6667H9.00033V21.5C9.00107 22.1628 9.2647 22.7983 9.73338 23.2669C10.2021 23.7356 10.8375 23.9993 11.5003 24H19.8337C20.4965 23.9993 21.1319 23.7356 21.6006 23.2669C22.0693 22.7983 22.3329 22.1628 22.3337 21.5V9.83333C22.3329 9.17052 22.0693 8.53507 21.6006 8.06639C21.1319 7.59771 20.4965 7.33408 19.8337 7.33333ZM7.33366 18.1667V6.5C7.33391 6.27906 7.42178 6.06725 7.57801 5.91102C7.73424 5.75479 7.94605 5.66691 8.16699 5.66667H16.5003C16.7213 5.66691 16.9331 5.75479 17.0893 5.91102C17.2455 6.06725 17.3334 6.27906 17.3337 6.5V18.1667C17.3334 18.3876 17.2455 18.5994 17.0893 18.7556C16.9331 18.9119 16.7213 18.9998 16.5003 19H8.16699C7.94605 18.9998 7.73424 18.9119 7.57801 18.7556C7.42178 18.5994 7.33391 18.3876 7.33366 18.1667ZM20.667 21.5C20.6667 21.7209 20.5789 21.9328 20.4226 22.089C20.2664 22.2452 20.0546 22.3331 19.8337 22.3333H11.5003C11.2794 22.3331 11.0676 22.2452 10.9113 22.089C10.7551 21.9328 10.6672 21.7209 10.667 21.5V20.6667H16.5003C17.1631 20.6659 17.7986 20.4023 18.2673 19.9336C18.736 19.4649 18.9996 18.8295 19.0003 18.1667V9H19.8337C20.0546 9.00025 20.2664 9.08812 20.4226 9.24435C20.5789 9.40058 20.6667 9.6124 20.667 9.83333V21.5Z" fill="#C7F5FC"/>
<path d="M14.5482 9.35625C13.9649 8.86583 13.3621 8.35885 13.079 7.7926C13.0098 7.6542 12.9034 7.53781 12.7717 7.45646C12.6401 7.37512 12.4884 7.33203 12.3337 7.33203C12.1789 7.33203 12.0272 7.37512 11.8956 7.45646C11.764 7.53781 11.6576 7.6542 11.5883 7.7926C11.3052 8.35885 10.7022 8.86552 10.1196 9.35625C9.20408 10.1256 8.16699 10.9976 8.16699 12.332C8.16699 13.4159 8.61022 14.2869 9.41512 14.7843C10.0052 15.1488 10.738 15.2669 11.5003 15.1412V17.332H13.167V15.1413C13.3585 15.1735 13.5522 15.19 13.7464 15.1906C14.2764 15.1982 14.7979 15.0574 15.2522 14.7844C16.0571 14.2869 16.5003 13.4159 16.5003 12.332C16.5003 10.9976 15.4632 10.1256 14.5482 9.35625ZM14.376 13.3667C13.9777 13.6126 13.3381 13.5693 12.7064 13.2534C12.5906 13.1956 12.463 13.1654 12.3337 13.1654C12.2043 13.1654 12.0767 13.1956 11.961 13.2534C11.3292 13.5693 10.6901 13.6127 10.2914 13.3667C9.91314 13.1327 9.83366 12.6749 9.83366 12.332C9.83366 11.7737 10.463 11.2446 11.1917 10.6319C11.5938 10.3072 11.9752 9.95759 12.3337 9.5852C12.6921 9.95759 13.0735 10.3072 13.4756 10.6319C14.2043 11.2446 14.8337 11.7737 14.8337 12.332C14.8337 12.6749 14.7542 13.1328 14.376 13.3667Z" fill="#C7F5FC"/>
</svg>
