<svg width="28" height="28" viewBox="0 0 28 28" fill="none" xmlns="http://www.w3.org/2000/svg">
<path d="M21.3333 4H14.6667C13.9594 4 13.2811 4.28094 12.781 4.781C12.281 5.28107 12 5.95931 12 6.66651V7.99976H6.66667C5.95942 7.99976 5.28115 8.2807 4.78105 8.78077C4.28095 9.28083 4 9.95907 4 10.6663V17.3325C4 18.0398 4.28095 18.718 4.78105 19.2181C5.28115 19.7181 5.95942 19.9991 6.66667 19.9991V22.3923C6.66643 22.7106 6.76077 23.0218 6.93772 23.2864C7.11466 23.551 7.36623 23.7571 7.66051 23.8785C7.95478 24 8.27849 24.0312 8.59057 23.9684C8.90264 23.9055 9.18901 23.7514 9.41333 23.5255L12.94 19.9991H16C16.7072 19.9991 17.3855 19.7181 17.8856 19.2181C18.3857 18.718 18.6667 18.0398 18.6667 17.3325V15.8726L19.44 16.6659C19.5709 16.8 19.7276 16.9063 19.9005 16.9785C20.0735 17.0507 20.2593 17.0872 20.4467 17.0859C20.8227 17.0841 21.1829 16.934 21.4488 16.6681C21.7147 16.4022 21.8649 16.042 21.8667 15.666V13.8128C22.469 13.6898 23.0103 13.3626 23.3991 12.8864C23.7878 12.4102 24.0001 11.8143 24 11.1996V6.66651C24 5.95931 23.719 5.28107 23.219 4.781C22.7189 4.28094 22.0406 4 21.3333 4ZM17.3333 17.3325C17.3333 17.6861 17.1929 18.0253 16.9428 18.2753C16.6928 18.5253 16.3536 18.6658 16 18.6658H9.33333V19.9991H11.06L8.47333 22.5856C8.4333 22.6202 8.38445 22.6431 8.33219 22.6517C8.27994 22.6603 8.22633 22.6542 8.17731 22.6342C8.12829 22.6142 8.08578 22.581 8.05448 22.5383C8.02318 22.4956 8.00432 22.445 8 22.3923V19.3324C8 19.1556 7.92976 18.9861 7.80474 18.8611C7.67971 18.736 7.51014 18.6658 7.33333 18.6658H6.66667C6.31304 18.6658 5.97391 18.5253 5.72386 18.2753C5.47381 18.0253 5.33333 17.6861 5.33333 17.3325V10.6663C5.33333 10.3127 5.47381 9.97355 5.72386 9.72352C5.97391 9.47349 6.31304 9.33302 6.66667 9.33302H16C16.3536 9.33302 16.6928 9.47349 16.9428 9.72352C17.1929 9.97355 17.3333 10.3127 17.3333 10.6663V17.3325ZM22.6667 11.1996C22.6667 11.5532 22.5262 11.8923 22.2761 12.1423C22.0261 12.3924 21.687 12.5328 21.3333 12.5328H21.2C21.0232 12.5328 20.8536 12.6031 20.7286 12.7281C20.6036 12.8531 20.5333 13.0227 20.5333 13.1995V15.646C20.5333 15.669 20.5242 15.691 20.5079 15.7073C20.4917 15.7235 20.4697 15.7326 20.4467 15.7326L18.6667 13.9994V10.6663C18.6667 9.95907 18.3857 9.28083 17.8856 8.78077C17.3855 8.2807 16.7072 7.99976 16 7.99976H13.3333V6.66651C13.3333 6.31291 13.4738 5.97379 13.7239 5.72376C13.9739 5.47372 14.313 5.33325 14.6667 5.33325H21.3333C21.687 5.33325 22.0261 5.47372 22.2761 5.72376C22.5262 5.97379 22.6667 6.31291 22.6667 6.66651V11.1996Z" fill="#C7F5FC"/>
<path d="M20 7H21V8H20V7Z" fill="#C7F5FC"/>
<path d="M13.7386 14.6657V13.098C13.7386 12.8225 13.6785 12.5497 13.5619 12.2951C13.4453 12.0406 13.2743 11.8093 13.0588 11.6145C12.8433 11.4197 12.5874 11.2651 12.3058 11.1597C12.0242 11.0543 11.7224 11 11.4176 11H10.3209C9.70539 11 9.11505 11.221 8.67979 11.6145C8.24453 12.0079 8 12.5416 8 13.098V14.6657C8 15.2221 8.24453 15.7558 8.67979 16.1492C9.11505 16.5427 9.70539 16.7637 10.3209 16.7637H11.4176C11.8092 16.7616 12.1935 16.6683 12.5335 16.4928L13.101 17L14 16.1873L13.4198 15.6744C13.6207 15.3687 13.7305 15.0212 13.7386 14.6657ZM11.4176 15.611H10.3209C10.0441 15.6094 9.77911 15.5094 9.58336 15.3324C9.38762 15.1555 9.27691 14.9159 9.27524 14.6657V13.098C9.27691 12.8478 9.38762 12.6082 9.58336 12.4313C9.77911 12.2543 10.0441 12.1542 10.3209 12.1527H11.4176C11.6945 12.1542 11.9595 12.2543 12.1552 12.4313C12.351 12.6082 12.4617 12.8478 12.4633 13.098V14.6657C12.4665 14.706 12.4665 14.7464 12.4633 14.7867L11.1881 13.634L10.2891 14.4582L11.5643 15.611H11.4176Z" fill="#C7F5FC"/>
</svg>
