<svg width="28" height="28" viewBox="0 0 28 28" fill="none" xmlns="http://www.w3.org/2000/svg">
<path fill-rule="evenodd" clip-rule="evenodd" d="M9.55556 7.4H5.11111C4.49746 7.4 4 7.89249 4 8.5V23.9C4 24.5075 4.49746 25 5.11111 25H17.3333C17.947 25 18.4444 24.5075 18.4444 23.9V20.6H22.8889C23.5025 20.6 24 20.1075 24 19.5V6.3C24 4.47746 22.5076 3 20.6667 3H10.6667C10.053 3 9.55556 3.49249 9.55556 4.1V7.4ZM11.2222 7.4H15.1111C16.9521 7.4 18.4444 8.87746 18.4444 10.7V18.95H22.3333V6.3C22.3333 5.38873 21.5871 4.65 20.6667 4.65H11.2222V7.4ZM5.66667 23.35V9.05H15.1111C16.0316 9.05 16.7778 9.78873 16.7778 10.7V23.35H5.66667Z" fill="white"/>
</svg>
