<svg width="32" height="32" viewBox="0 0 32 32" fill="none" xmlns="http://www.w3.org/2000/svg">
<path fill-rule="evenodd" clip-rule="evenodd" d="M9.91921 8.15771C9.70893 7.94743 9.36799 7.94743 9.15771 8.15771C8.94743 8.36799 8.94743 8.70893 9.15771 8.91921L15.2385 15L9.15771 21.0808C8.94743 21.2911 8.94743 21.632 9.15771 21.8423C9.36799 22.0526 9.70893 22.0526 9.91921 21.8423L16 15.7615L22.0808 21.8423C22.2911 22.0526 22.632 22.0526 22.8423 21.8423C23.0526 21.632 23.0526 21.2911 22.8423 21.0808L16.7615 15L22.8423 8.91921C23.0526 8.70893 23.0526 8.36799 22.8423 8.15771C22.632 7.94743 22.2911 7.94743 22.0808 8.15771L16 14.2385L9.91921 8.15771Z" fill="white"/>
</svg>
