<svg width="28" height="28" viewBox="0 0 28 28" fill="none" xmlns="http://www.w3.org/2000/svg">
<path fill-rule="evenodd" clip-rule="evenodd" d="M7.91921 6.15771C7.70893 5.94743 7.36799 5.94743 7.15771 6.15771C6.94743 6.36799 6.94743 6.70893 7.15771 6.91921L13.2385 13L7.15771 19.0808C6.94743 19.2911 6.94743 19.632 7.15771 19.8423C7.36799 20.0526 7.70893 20.0526 7.91921 19.8423L14 13.7615L20.0808 19.8423C20.2911 20.0526 20.632 20.0526 20.8423 19.8423C21.0526 19.632 21.0526 19.2911 20.8423 19.0808L14.7615 13L20.8423 6.91921C21.0526 6.70893 21.0526 6.36799 20.8423 6.15771C20.632 5.94743 20.2911 5.94743 20.0808 6.15771L14 12.2385L7.91921 6.15771Z" fill="white"/>
</svg>
