<svg width="13" height="13" viewBox="0 0 13 13" fill="none" xmlns="http://www.w3.org/2000/svg">
<path d="M3.57422 6.17355C3.57422 4.69685 3.57422 3.95851 4.03113 3.49976C4.48804 3.04102 5.22344 3.04102 6.69421 3.04102H8.25421C9.725 3.04102 10.4604 3.04102 10.9173 3.49976C11.3742 3.95851 11.3742 4.69686 11.3742 6.17355V8.784C11.3742 10.2607 11.3742 10.999 10.9173 11.4578C10.4604 11.9165 9.725 11.9165 8.25421 11.9165H6.69421C5.22344 11.9165 4.48804 11.9165 4.03113 11.4578C3.57422 10.999 3.57422 10.2607 3.57422 8.784V6.17355Z" fill="#AAAAAA"/>
<path opacity="0.5" d="M2.2596 1.71858C1.625 2.35319 1.625 3.37456 1.625 5.41732V6.50065C1.625 8.54338 1.625 9.56481 2.2596 10.1994C2.59411 10.5339 3.0361 10.6921 3.67849 10.7669C3.57479 10.3114 3.57479 9.68543 3.57479 8.7847V6.17424C3.57479 4.69755 3.57479 3.95921 4.0317 3.50046C4.48861 3.04171 5.22401 3.04171 6.69478 3.04171H8.25478C9.14956 3.04171 9.77215 3.04171 10.2254 3.14499C10.151 2.49853 9.99288 2.0544 9.65705 1.71858C9.02249 1.08398 8.00107 1.08398 5.95833 1.08398C3.91558 1.08398 2.89421 1.08398 2.2596 1.71858Z" fill="#AAAAAA"/>
</svg>
