<svg width="31" height="35" viewBox="0 0 31 35" fill="none" xmlns="http://www.w3.org/2000/svg">
<path d="M30.1762 6.49819L28.758 11.9006L26.6127 11.3141C26.3729 11.2506 26.1316 11.3942 26.0679 11.6346C26.0043 11.8764 26.1449 12.1243 26.3818 12.1893L28.527 12.7758L24.278 28.9665L24.2795 3.1636L29.0246 4.46207C29.4451 4.57695 29.7959 4.85205 30.0135 5.236C30.2312 5.61994 30.2888 6.06889 30.1762 6.49819ZM8.14241 18.8946C8.87671 18.8946 9.47481 18.284 9.47481 17.5342C9.47481 16.7845 8.87671 16.1738 8.14241 16.1738C7.4081 16.1738 6.81 16.7845 6.81 17.5342C6.81 18.284 7.4081 18.8946 8.14241 18.8946ZM15.2486 23.4295C14.5143 23.4295 13.9162 24.0401 13.9162 24.7899C13.9162 25.5396 14.5143 26.1503 15.2486 26.1503C15.9829 26.1503 16.581 25.5396 16.581 24.7899C16.581 24.0401 15.9829 23.4295 15.2486 23.4295ZM23.391 8.16253V33.1036C23.391 34.0211 22.6612 34.7664 21.7625 34.7664H15.0429C14.8549 34.7664 14.6876 34.6454 14.6239 34.464C14.1857 33.1989 13.0087 32.3478 11.6955 32.3478C10.3823 32.3478 9.20686 33.1988 8.76715 34.464C8.70349 34.6454 8.53619 34.7664 8.34816 34.7664H1.62852C0.729875 34.7664 0 34.0211 0 33.1036V8.16253H2.2207C2.46646 8.16253 2.66485 7.95998 2.66485 7.70904C2.66485 7.45811 2.46647 7.25556 2.2207 7.25556H0V1.66275C0 0.745218 0.729875 0 1.62852 0H8.34816C8.53618 0 8.70347 0.120927 8.76715 0.302317C9.20534 1.5675 10.3823 2.41855 11.6955 2.41855C13.0087 2.41855 14.1842 1.56754 14.6239 0.302317C14.6875 0.120927 14.8548 0 15.0429 0H21.7625C22.6612 0 23.391 0.745218 23.391 1.66275V7.25556H21.1703C20.9246 7.25556 20.7262 7.45811 20.7262 7.70904C20.7262 7.95998 20.9246 8.16253 21.1703 8.16253H23.391ZM6.01054 8.16253H9.80052C10.0463 8.16253 10.2447 7.95998 10.2447 7.70904C10.2447 7.45811 10.0463 7.25556 9.80052 7.25556H6.01054C5.76478 7.25556 5.56639 7.45811 5.56639 7.70904C5.56639 7.95998 5.76477 8.16253 6.01054 8.16253ZM5.92171 17.5344C5.92171 18.7845 6.91806 19.8018 8.14241 19.8018C9.36677 19.8018 10.3631 18.7845 10.3631 17.5344C10.3631 16.2844 9.36677 15.2671 8.14241 15.2671C6.91806 15.2671 5.92171 16.2844 5.92171 17.5344ZM17.043 16.3433C17.2163 16.1665 17.2163 15.8793 17.043 15.7024C16.8698 15.5256 16.5885 15.5256 16.4153 15.7024L6.34838 25.981C6.17517 26.1579 6.17517 26.4451 6.34838 26.6219C6.43573 26.7111 6.54825 26.7549 6.66224 26.7549C6.77624 26.7549 6.89023 26.7111 6.9761 26.6219L17.043 16.3433ZM17.4694 24.79C17.4694 23.5399 16.4731 22.5226 15.2487 22.5226C14.0244 22.5226 13.028 23.5399 13.028 24.79C13.028 26.0401 14.0244 27.0574 15.2487 27.0574C16.4731 27.0574 17.4694 26.0401 17.4694 24.79ZM17.8247 7.70897C17.8247 7.45804 17.6263 7.25548 17.3806 7.25548H13.5906C13.3448 7.25548 13.1464 7.45804 13.1464 7.70897C13.1464 7.9599 13.3448 8.16245 13.5906 8.16245H17.3806C17.6263 8.16245 17.8247 7.9599 17.8247 7.70897Z" fill="#8FCEFC"/>
</svg>
