<svg width="28" height="28" viewBox="0 0 28 28" fill="none" xmlns="http://www.w3.org/2000/svg">
<path d="M16.4753 15.7536C16.4957 16.3959 16.2557 17.009 15.7994 17.48C15.4922 17.7971 15.1049 18.0246 14.6856 18.1436V18.4672C14.6856 18.8469 14.3778 19.1547 13.9981 19.1547C13.6184 19.1547 13.3106 18.8469 13.3106 18.4672V18.1367C12.6746 17.9481 12.1332 17.5067 11.819 16.8931C11.646 16.5552 11.7796 16.1409 12.1176 15.9678C12.4555 15.7948 12.8698 15.9284 13.0429 16.2664C13.2315 16.6347 13.6031 16.8635 14.0126 16.8635C14.3111 16.8635 14.6024 16.7395 14.8119 16.5233C15.0067 16.3221 15.1094 16.0643 15.1009 15.7973C15.0835 15.2504 14.66 15.0072 13.6977 14.5827C13.2327 14.3775 12.7518 14.1653 12.3537 13.8452C11.8307 13.4246 11.5519 12.8892 11.5249 12.2537C11.4978 11.6158 11.7323 11.0043 12.185 10.5319C12.4947 10.209 12.8861 9.97757 13.3106 9.85695V9.5328C13.3106 9.15312 13.6184 8.8453 13.9981 8.8453C14.3778 8.8453 14.6856 9.15312 14.6856 9.5328V9.8622C15.3231 10.0502 15.8661 10.4922 16.1808 11.107C16.3538 11.4449 16.2202 11.8592 15.8822 12.0322C15.5442 12.2052 15.13 12.0716 14.9569 11.7336C14.7684 11.3653 14.3968 11.1365 13.9872 11.1365C13.6841 11.1365 13.389 11.2629 13.1777 11.4834C12.9868 11.6826 12.8876 11.9355 12.8987 12.1954C12.9195 12.6861 13.3273 12.9163 14.2527 13.3246C15.171 13.7297 16.4286 14.2845 16.4753 15.7536ZM25 14C25 16.9382 23.8558 19.7005 21.7782 21.7782C19.7005 23.8558 16.9382 25 14 25C11.0618 25 8.29947 23.8558 6.2218 21.7782C4.14421 19.7005 3 16.9382 3 14C3 11.0618 4.14421 8.29947 6.2218 6.22184C8.29947 4.14421 11.0618 3 14 3C16.9382 3 19.7005 4.14421 21.7782 6.22184C23.8558 8.29947 25 11.0618 25 14ZM21.2716 7.70065L20.4184 8.55384C21.5278 9.85936 22.247 11.5061 22.3936 13.3125H23.6002C23.4486 11.1748 22.5962 9.22776 21.2716 7.70065ZM7.70061 21.2715C9.22772 22.5962 11.1748 23.4486 13.3125 23.6002V22.3936C11.5061 22.247 9.85936 21.5278 8.5538 20.4183L7.70061 21.2715ZM14.6875 23.6002C16.8251 23.4486 18.7722 22.5963 20.2993 21.2716L19.4462 20.4184C18.1406 21.5279 16.4939 22.247 14.6875 22.3937V23.6002H14.6875ZM21.0469 14C21.0469 10.1143 17.8857 6.95312 14 6.95312C10.1143 6.95312 6.95312 10.1143 6.95312 14C6.95312 17.8857 10.1143 21.0469 14 21.0469C17.8857 21.0469 21.0469 17.8857 21.0469 14ZM20.2993 6.7284C18.7722 5.40371 16.8251 4.55143 14.6875 4.39984V5.60636C16.4938 5.75301 18.1406 6.47218 19.4461 7.58163L20.2993 6.7284ZM13.3125 4.39984C11.1749 4.55143 9.2278 5.40376 7.7007 6.72844L8.55384 7.58163C9.85936 6.47218 11.5061 5.75301 13.3125 5.60636V4.39984H13.3125ZM4.39984 13.3125H5.60636C5.75301 11.5061 6.47218 9.8594 7.58163 8.55388L6.72844 7.7007C5.40376 9.22776 4.55143 11.1748 4.39984 13.3125ZM6.7284 20.2993L7.58159 19.4461C6.47213 18.1406 5.75296 16.4938 5.60636 14.6875H4.39984C4.55139 16.8251 5.40367 18.7722 6.7284 20.2993ZM23.6002 14.6875H22.3936C22.247 16.4939 21.5278 18.1406 20.4183 19.4462L21.2715 20.2993C22.5963 18.7722 23.4486 16.8251 23.6002 14.6875Z" fill="white"/>
</svg>
