<svg width="18" height="18" viewBox="0 0 18 18" fill="none" xmlns="http://www.w3.org/2000/svg">
<rect width="18" height="18" rx="9" fill="#3E30E9"/>
<path d="M9.97949 11.8359C10.1683 11.8359 10.3522 11.8213 10.5312 11.792C10.7103 11.7627 10.8812 11.722 11.0439 11.6699L11.1416 12.4512C10.9593 12.4967 10.7689 12.5326 10.5703 12.5586C10.3717 12.5846 10.1715 12.5977 9.96973 12.5977C9.58236 12.5977 9.22754 12.5391 8.90527 12.4219C8.58301 12.3014 8.30469 12.124 8.07031 11.8896C7.83594 11.652 7.65365 11.3574 7.52344 11.0059C7.39648 10.651 7.33301 10.2376 7.33301 9.76562V8.13965C7.33301 7.66439 7.39648 7.24935 7.52344 6.89453C7.65039 6.53971 7.83105 6.24349 8.06543 6.00586C8.2998 5.76823 8.5765 5.59082 8.89551 5.47363C9.21777 5.35319 9.57422 5.29297 9.96484 5.29297C10.1699 5.29297 10.3669 5.30762 10.5557 5.33691C10.7477 5.36296 10.943 5.39876 11.1416 5.44434L11.0439 6.23047C10.8844 6.17839 10.7135 6.1377 10.5312 6.1084C10.349 6.07585 10.1634 6.05957 9.97461 6.05957C9.71419 6.05957 9.47819 6.10189 9.2666 6.18652C9.05827 6.27116 8.87923 6.39811 8.72949 6.56738C8.58301 6.73665 8.4707 6.9515 8.39258 7.21191C8.31445 7.47233 8.27539 7.77832 8.27539 8.12988V9.76562C8.27539 10.1172 8.31445 10.4232 8.39258 10.6836C8.47396 10.944 8.58952 11.1589 8.73926 11.3281C8.889 11.4974 9.06803 11.6243 9.27637 11.709C9.48796 11.7936 9.72233 11.8359 9.97949 11.8359ZM10.1504 7.97363V8.58398H6.46387V7.97363H10.1504ZM10.1504 9.24805V9.85352H6.46387V9.24805H10.1504Z" fill="white"/>
</svg>
