<svg width="28" height="28" viewBox="0 0 28 28" fill="none" xmlns="http://www.w3.org/2000/svg">
<path d="M19.3079 14.6326C18.8702 14.6326 18.4464 14.6932 18.0443 14.8059C16.0808 12.1623 15.207 8.80113 15.7184 5.4768L15.9457 4L14.8563 4.69324C12.8058 5.99816 11.0966 7.82793 9.91359 9.9848C9.11352 11.4436 8.56902 13.0254 8.30031 14.6491C5.90004 14.8486 4.00781 16.8655 4.00781 19.3163C4.00781 21.8989 6.10891 24 8.69148 24C11.2741 24 13.3752 21.8989 13.3752 19.3163C13.3752 17.0023 11.6884 15.0753 9.47996 14.6993C10.0562 11.4493 11.8312 8.46684 14.4367 6.42316C14.3013 8.4152 14.6111 10.4328 15.3485 12.3195C15.7598 13.3718 16.2966 14.3643 16.9427 15.2751C15.5568 16.0894 14.6242 17.5959 14.6242 19.3162C14.6242 21.8989 16.7253 24 19.3079 24C21.8905 24 23.9916 21.8989 23.9916 19.3163C23.9916 16.7337 21.8905 14.6326 19.3079 14.6326ZM12.2043 19.3163C12.2043 21.2532 10.6284 22.8291 8.69148 22.8291C6.75453 22.8291 5.17871 21.2532 5.17871 19.3163C5.17871 17.5625 6.47062 16.1048 8.15277 15.8448C8.12238 16.2205 8.10684 16.5974 8.10621 16.9745H6.93512V18.1454H10.4479V16.9745H9.27711C9.27773 16.6016 9.29438 16.2302 9.32652 15.8612C10.9614 16.1609 12.2043 17.5961 12.2043 19.3163ZM19.3079 22.8291C17.3709 22.8291 15.7951 21.2532 15.7951 19.3163C15.7951 17.9708 16.5556 16.7998 17.6692 16.21C17.8928 16.4736 18.1262 16.7288 18.3692 16.9745H17.5515V18.1454H21.0643V16.9745H20.1014C19.6698 16.6174 19.266 16.2342 18.8913 15.8284C19.0279 15.8121 19.1669 15.8036 19.3078 15.8036C21.2448 15.8036 22.8206 17.3794 22.8206 19.3163C22.8206 21.2532 21.2448 22.8291 19.3079 22.8291Z" fill="white"/>
</svg>
