<svg width="18" height="18" viewBox="0 0 18 18" fill="none" xmlns="http://www.w3.org/2000/svg">
<path d="M7.1998 8.40086C7.1998 8.07037 6.93093 7.80273 6.59962 7.80273C6.26831 7.80273 6 8.07037 6 8.40086V9.5982C6 9.92869 6.26831 10.1963 6.59962 10.1963C6.93093 10.1963 7.1998 9.92869 7.1998 9.5982V8.40086Z" fill="white"/>
<path fill-rule="evenodd" clip-rule="evenodd" d="M8.22554 14.7332C8.37066 14.6327 8.4871 14.516 8.58047 14.3864H10.1999C11.1943 14.3864 11.9998 13.5824 11.9998 12.5909V9.59868H12.9516L12.7755 9.77375C12.5415 10.0077 12.5415 10.3864 12.7755 10.6204C13.0101 10.8538 13.3897 10.8538 13.6243 10.6204L14.8241 9.42307C15.0586 9.18966 15.0586 8.81037 14.8241 8.57696L13.6243 7.37961C13.3897 7.1462 13.0101 7.1462 12.7755 7.37961C12.5415 7.61358 12.5415 7.99231 12.7755 8.22628L12.9516 8.40135H11.9998V5.40909C11.9998 4.41766 11.1943 3.61362 10.1999 3.61362H8.58047C8.4871 3.48401 8.37066 3.36731 8.22554 3.26686C7.76655 2.94985 7.25188 2.96051 6.75288 3.06768C6.27645 3.17036 5.68978 3.38974 4.99122 3.65121L4.91809 3.67814C4.56598 3.81 4.2566 3.92558 4.01192 4.05013C3.74642 4.18423 3.50456 4.35256 3.32062 4.61739C3.13667 4.88221 3.06355 5.16725 3.03037 5.46182C3 5.7345 3 6.06386 3 6.43923V11.5608C3 11.9361 3 12.2655 3.03037 12.5382C3.06356 12.8328 3.13669 13.1178 3.32062 13.3826C3.50455 13.6474 3.74642 13.8158 4.01192 13.9504C4.2566 14.0744 4.56598 14.19 4.91809 14.3219L4.99122 14.3488C5.68984 14.6103 6.27651 14.8296 6.75288 14.9323C7.2518 15.0395 7.76649 15.0502 8.22554 14.7332ZM7.00606 4.23814C6.62638 4.3195 6.12295 4.50634 5.36809 4.78856C4.97885 4.93388 4.73303 5.02703 4.55473 5.11736C4.38993 5.20096 4.33705 5.25651 4.30723 5.29915C4.27742 5.34235 4.24367 5.41137 4.22342 5.59484C4.20092 5.7929 4.20036 6.05493 4.20036 6.46956V11.5305C4.20036 11.9451 4.20092 12.2072 4.22342 12.4052C4.24367 12.5887 4.27742 12.6583 4.30723 12.7009C4.33704 12.7436 4.38992 12.7991 4.55473 12.8827C4.73304 12.973 4.97885 13.0662 5.36809 13.2115C6.12295 13.4937 6.62638 13.6806 7.00606 13.7625C7.37224 13.841 7.48417 13.7894 7.54212 13.7496C7.59949 13.7097 7.68724 13.6233 7.7418 13.2536C7.79749 12.8782 7.8003 12.3558 7.8003 11.5782V6.42189C7.8003 5.64422 7.79749 5.12241 7.7418 4.7465C7.68724 4.37674 7.59949 4.29033 7.54212 4.2505C7.48418 4.21066 7.37224 4.15903 7.00606 4.23814ZM11.9998 8.40135L10.1999 8.40133C9.86861 8.40133 9.6003 8.66953 9.6003 9.00001C9.6003 9.3305 9.86861 9.5987 10.1999 9.5987L11.9998 9.59868V8.40135Z" fill="white"/>
</svg>
