<svg width="30" height="30" viewBox="0 0 30 30" fill="none" xmlns="http://www.w3.org/2000/svg">
<g clip-path="url(#clip0_270_117337)">
<path d="M15 0C6.71484 0 0 6.71484 0 15C0 23.2852 6.71484 30 15 30C23.2852 30 30 23.2852 30 15C30 6.71484 23.2852 0 15 0ZM24.3633 24.3574C23.1445 25.5762 21.7324 26.5312 20.1562 27.1934C18.5273 27.8848 16.793 28.2305 15 28.2305C13.2129 28.2305 11.4785 27.8789 9.84375 27.1934C8.26758 26.5254 6.84961 25.5703 5.63672 24.3574C4.41797 23.1387 3.46289 21.7266 2.80078 20.1504C2.10938 18.5215 1.75781 16.7871 1.75781 15C1.75781 13.2129 2.10937 11.4785 2.79492 9.84375C3.46289 8.26758 4.41797 6.84961 5.63086 5.63672C6.85547 4.41797 8.26758 3.46289 9.84375 2.79492C11.4785 2.10937 13.2129 1.75781 15 1.75781C16.7871 1.75781 18.5215 2.10937 20.1562 2.79492C21.7324 3.46289 23.1504 4.41797 24.3633 5.63086C25.582 6.84961 26.5371 8.26172 27.1992 9.83789C27.8906 11.4668 28.2363 13.2012 28.2363 14.9941C28.2363 16.7812 27.8848 18.5156 27.1992 20.1504C26.5312 21.7266 25.5762 23.1445 24.3633 24.3574Z" fill="#C7F5FC"/>
<path d="M16.9805 9.88477C17.584 9.88477 18.2285 10.0723 18.2285 10.0723L18.6152 7.77539C18.6152 7.77539 17.7949 7.49414 15.8379 7.49414C14.6367 7.49414 13.9395 7.95117 13.4297 8.625C12.9492 9.26367 12.9316 10.2891 12.9316 10.9512V12.457H11.3789V14.7012H12.9316V22.4941H15.8379V14.7012H18.1406L18.3105 12.457H15.8379V10.7051C15.8379 10.1016 16.377 9.88477 16.9805 9.88477Z" fill="#C7F5FC"/>
</g>
<defs>
<clipPath id="clip0_270_117337">
<rect width="30" height="30" fill="white"/>
</clipPath>
</defs>
</svg>
