<svg width="40" height="28" viewBox="0 0 40 28" fill="none" xmlns="http://www.w3.org/2000/svg">
<g clip-path="url(#clip0_272_116347)">
<path d="M0 2.13818H39.9948V4.29619H0V2.13818Z" fill="white"/>
<path d="M0 -0.0170898H39.9948V2.14091H0V-0.0170898Z" fill="#B22234"/>
<path d="M0 6.4624H39.9948V8.62041H0V6.4624Z" fill="white"/>
<path d="M0 4.30664H39.9948V6.46465H0V4.30664Z" fill="#B22234"/>
<path d="M-0.0141602 10.7593H40.0206V12.9159H-0.0141602V10.7593Z" fill="white"/>
<path d="M-0.0141602 8.604H40.0206V10.7607H-0.0141602V8.604Z" fill="#B22234"/>
<path d="M0 15.0972H39.9948V17.2552H0V15.0972Z" fill="white"/>
<path d="M0 12.9351H39.9948V15.0931H0V12.9351Z" fill="#B22234"/>
<path d="M-0.0141602 17.2319H40.0206V19.3886H-0.0141602V17.2319Z" fill="#B22234"/>
<path d="M-0.0141602 19.3818H40.0206V21.5385H-0.0141602V19.3818Z" fill="white"/>
<path d="M-0.0141602 21.5371H40.0206V23.6938H-0.0141602V21.5371Z" fill="#B22234"/>
<path d="M0 -0.0170898H18.2427V15.0958H0V-0.0170898Z" fill="#3C3B6E"/>
<path d="M1.36714 1.30801L1.75829 1.64043L1.12523 2.17803L1.36714 1.30801Z" fill="white"/>
<path d="M1.63929 1.21308L1.48988 1.75079L0.856935 1.21308L1.63929 1.21308Z" fill="white"/>
<path d="M1.80435 1.47701H1.3208L1.56258 0.606934L1.80435 1.47701Z" fill="white"/>
<path d="M1.64099 1.74161L1.49157 1.20391L2.27393 1.20391L1.64099 1.74161Z" fill="white"/>
<path d="M1.37058 1.64473L1.76173 1.3123L2.00364 2.18232L1.37058 1.64473Z" fill="white"/>
<path d="M4.39302 1.30801L4.78417 1.64043L4.1511 2.17803L4.39302 1.30801Z" fill="white"/>
<path d="M4.66517 1.21308L4.51575 1.75079L3.88281 1.21308L4.66517 1.21308Z" fill="white"/>
<path d="M4.83023 1.47701H4.34668L4.58846 0.606934L4.83023 1.47701Z" fill="white"/>
<path d="M4.66638 1.74161L4.51696 1.20391L5.29932 1.20391L4.66638 1.74161Z" fill="white"/>
<path d="M4.39597 1.64473L4.78712 1.3123L5.02903 2.18232L4.39597 1.64473Z" fill="white"/>
<path d="M7.41548 1.30801L7.80663 1.64043L7.17357 2.17803L7.41548 1.30801Z" fill="white"/>
<path d="M7.68763 1.21308L7.53822 1.75079L6.90528 1.21308L7.68763 1.21308Z" fill="white"/>
<path d="M7.85269 1.47701H7.36914L7.61092 0.606934L7.85269 1.47701Z" fill="white"/>
<path d="M7.68884 1.74161L7.53942 1.20391L8.32178 1.20391L7.68884 1.74161Z" fill="white"/>
<path d="M7.41843 1.64473L7.80958 1.3123L8.0515 2.18232L7.41843 1.64473Z" fill="white"/>
<path d="M10.4375 1.30801L10.8286 1.64043L10.1955 2.17803L10.4375 1.30801Z" fill="white"/>
<path d="M10.7096 1.21308L10.5602 1.75079L9.92725 1.21308L10.7096 1.21308Z" fill="white"/>
<path d="M10.8747 1.47701H10.3911L10.6329 0.606934L10.8747 1.47701Z" fill="white"/>
<path d="M10.7108 1.74161L10.5614 1.20391L11.3438 1.20391L10.7108 1.74161Z" fill="white"/>
<path d="M10.4404 1.64473L10.8316 1.3123L11.0735 2.18232L10.4404 1.64473Z" fill="white"/>
<path d="M13.4667 1.30801L13.8579 1.64043L13.2248 2.17803L13.4667 1.30801Z" fill="white"/>
<path d="M13.7389 1.21308L13.5895 1.75079L12.9565 1.21308L13.7389 1.21308Z" fill="white"/>
<path d="M13.904 1.47701H13.4204L13.6622 0.606934L13.904 1.47701Z" fill="white"/>
<path d="M13.7401 1.74161L13.5907 1.20391L14.373 1.20391L13.7401 1.74161Z" fill="white"/>
<path d="M13.4697 1.64473L13.8609 1.3123L14.1028 2.18232L13.4697 1.64473Z" fill="white"/>
<path d="M16.4917 1.30703L16.8828 1.63945L16.2497 2.17705L16.4917 1.30703Z" fill="white"/>
<path d="M16.7638 1.21211L16.6144 1.74981L15.9814 1.21211L16.7638 1.21211Z" fill="white"/>
<path d="M16.9289 1.47603H16.4453L16.6871 0.605957L16.9289 1.47603Z" fill="white"/>
<path d="M16.765 1.74064L16.6156 1.20293L17.398 1.20293L16.765 1.74064Z" fill="white"/>
<path d="M16.4946 1.64375L16.8858 1.31133L17.1277 2.18135L16.4946 1.64375Z" fill="white"/>
<path d="M2.88667 2.82119L3.27782 3.15361L2.64476 3.69121L2.88667 2.82119Z" fill="white"/>
<path d="M3.15882 2.72627L3.00941 3.26397L2.37647 2.72627L3.15882 2.72627Z" fill="white"/>
<path d="M3.32388 2.99019H2.84033L3.08211 2.12012L3.32388 2.99019Z" fill="white"/>
<path d="M3.16003 3.2548L3.01061 2.71709L3.79297 2.71709L3.16003 3.2548Z" fill="white"/>
<path d="M2.88962 3.15791L3.28077 2.82549L3.52269 3.69551L2.88962 3.15791Z" fill="white"/>
<path d="M5.90913 2.82119L6.30028 3.15361L5.66722 3.69121L5.90913 2.82119Z" fill="white"/>
<path d="M6.18128 2.72627L6.03187 3.26397L5.39893 2.72627L6.18128 2.72627Z" fill="white"/>
<path d="M6.34635 2.99019H5.86279L6.10457 2.12012L6.34635 2.99019Z" fill="white"/>
<path d="M6.18249 3.2548L6.03307 2.71709L6.81543 2.71709L6.18249 3.2548Z" fill="white"/>
<path d="M5.91209 3.15791L6.30324 2.82549L6.54515 3.69551L5.91209 3.15791Z" fill="white"/>
<path d="M8.92817 2.82119L9.31932 3.15361L8.68626 3.69121L8.92817 2.82119Z" fill="white"/>
<path d="M9.20033 2.72627L9.05091 3.26397L8.41797 2.72627L9.20033 2.72627Z" fill="white"/>
<path d="M9.36539 2.99019H8.88184L9.12361 2.12012L9.36539 2.99019Z" fill="white"/>
<path d="M9.20153 3.2548L9.05212 2.71709L9.83447 2.71709L9.20153 3.2548Z" fill="white"/>
<path d="M8.93113 3.15791L9.32228 2.82549L9.56419 3.69551L8.93113 3.15791Z" fill="white"/>
<path d="M11.957 2.82119L12.3481 3.15361L11.7151 3.69121L11.957 2.82119Z" fill="white"/>
<path d="M12.2291 2.72627L12.0797 3.26397L11.4468 2.72627L12.2291 2.72627Z" fill="white"/>
<path d="M12.3942 2.99019H11.9106L12.1524 2.12012L12.3942 2.99019Z" fill="white"/>
<path d="M12.2303 3.2548L12.0809 2.71709L12.8633 2.71709L12.2303 3.2548Z" fill="white"/>
<path d="M11.9599 3.15791L12.3511 2.82549L12.593 3.69551L11.9599 3.15791Z" fill="white"/>
<path d="M14.9794 2.82119L15.3706 3.15361L14.7375 3.69121L14.9794 2.82119Z" fill="white"/>
<path d="M15.2516 2.72627L15.1022 3.26397L14.4692 2.72627L15.2516 2.72627Z" fill="white"/>
<path d="M15.4167 2.99019H14.9331L15.1749 2.12012L15.4167 2.99019Z" fill="white"/>
<path d="M15.2528 3.2548L15.1034 2.71709L15.8857 2.71709L15.2528 3.2548Z" fill="white"/>
<path d="M14.9824 3.15791L15.3735 2.82549L15.6155 3.69551L14.9824 3.15791Z" fill="white"/>
<path d="M1.36763 4.33242L1.75878 4.66484L1.12571 5.20244L1.36763 4.33242Z" fill="white"/>
<path d="M1.63978 4.23799L1.49036 4.77569L0.857424 4.23798L1.63978 4.23799Z" fill="white"/>
<path d="M1.80484 4.50142H1.32129L1.56307 3.63135L1.80484 4.50142Z" fill="white"/>
<path d="M1.64099 4.76603L1.49157 4.22832L2.27393 4.22832L1.64099 4.76603Z" fill="white"/>
<path d="M1.37058 4.66914L1.76173 4.33672L2.00364 5.20674L1.37058 4.66914Z" fill="white"/>
<path d="M4.39351 4.33242L4.78466 4.66484L4.15159 5.20244L4.39351 4.33242Z" fill="white"/>
<path d="M4.66566 4.2375L4.51624 4.7752L3.8833 4.2375L4.66566 4.2375Z" fill="white"/>
<path d="M4.83072 4.50142H4.34717L4.58894 3.63135L4.83072 4.50142Z" fill="white"/>
<path d="M4.66687 4.76603L4.51745 4.22832L5.29981 4.22832L4.66687 4.76603Z" fill="white"/>
<path d="M4.39646 4.66914L4.78761 4.33672L5.02952 5.20674L4.39646 4.66914Z" fill="white"/>
<path d="M7.41597 4.33242L7.80712 4.66484L7.17405 5.20244L7.41597 4.33242Z" fill="white"/>
<path d="M7.68812 4.2375L7.5387 4.7752L6.90576 4.2375L7.68812 4.2375Z" fill="white"/>
<path d="M7.85318 4.50142H7.36963L7.6114 3.63135L7.85318 4.50142Z" fill="white"/>
<path d="M7.68933 4.76603L7.53991 4.22832L8.32227 4.22832L7.68933 4.76603Z" fill="white"/>
<path d="M7.41892 4.66914L7.81007 4.33672L8.05198 5.20674L7.41892 4.66914Z" fill="white"/>
<path d="M10.4379 4.33242L10.8291 4.66484L10.196 5.20244L10.4379 4.33242Z" fill="white"/>
<path d="M10.7101 4.2375L10.5607 4.7752L9.92774 4.2375L10.7101 4.2375Z" fill="white"/>
<path d="M10.8752 4.50142H10.3916L10.6334 3.63135L10.8752 4.50142Z" fill="white"/>
<path d="M10.7113 4.76603L10.5619 4.22832L11.3442 4.22832L10.7113 4.76603Z" fill="white"/>
<path d="M10.4409 4.66914L10.832 4.33672L11.074 5.20674L10.4409 4.66914Z" fill="white"/>
<path d="M13.4672 4.33242L13.8584 4.66484L13.2253 5.20244L13.4672 4.33242Z" fill="white"/>
<path d="M13.7394 4.2375L13.59 4.7752L12.957 4.2375L13.7394 4.2375Z" fill="white"/>
<path d="M13.9045 4.50142H13.4209L13.6627 3.63135L13.9045 4.50142Z" fill="white"/>
<path d="M13.7406 4.76603L13.5912 4.22832L14.3735 4.22832L13.7406 4.76603Z" fill="white"/>
<path d="M13.4702 4.66914L13.8613 4.33672L14.1033 5.20674L13.4702 4.66914Z" fill="white"/>
<path d="M16.4921 4.33144L16.8833 4.66387L16.2502 5.20146L16.4921 4.33144Z" fill="white"/>
<path d="M16.7643 4.23652L16.6149 4.77422L15.9819 4.23652L16.7643 4.23652Z" fill="white"/>
<path d="M16.9294 4.50044H16.4458L16.6876 3.63037L16.9294 4.50044Z" fill="white"/>
<path d="M16.7655 4.76505L16.6161 4.22735L17.3984 4.22735L16.7655 4.76505Z" fill="white"/>
<path d="M16.4951 4.66816L16.8862 4.33574L17.1282 5.20576L16.4951 4.66816Z" fill="white"/>
<path d="M2.88667 5.86904L3.27782 6.20146L2.64476 6.73906L2.88667 5.86904Z" fill="white"/>
<path d="M3.15882 5.77412L3.00941 6.31182L2.37647 5.77412L3.15882 5.77412Z" fill="white"/>
<path d="M3.32388 6.03804H2.84033L3.08211 5.16797L3.32388 6.03804Z" fill="white"/>
<path d="M3.16003 6.30265L3.01061 5.76495L3.79297 5.76494L3.16003 6.30265Z" fill="white"/>
<path d="M2.88962 6.20576L3.28077 5.87334L3.52269 6.74336L2.88962 6.20576Z" fill="white"/>
<path d="M5.90913 5.86904L6.30028 6.20146L5.66722 6.73906L5.90913 5.86904Z" fill="white"/>
<path d="M6.18128 5.77412L6.03187 6.31182L5.39893 5.77412L6.18128 5.77412Z" fill="white"/>
<path d="M6.34635 6.03804H5.86279L6.10457 5.16797L6.34635 6.03804Z" fill="white"/>
<path d="M6.18249 6.30265L6.03307 5.76495L6.81543 5.76494L6.18249 6.30265Z" fill="white"/>
<path d="M5.91209 6.20576L6.30324 5.87334L6.54515 6.74336L5.91209 6.20576Z" fill="white"/>
<path d="M8.92817 5.86904L9.31932 6.20146L8.68626 6.73906L8.92817 5.86904Z" fill="white"/>
<path d="M9.20033 5.77412L9.05091 6.31182L8.41797 5.77412L9.20033 5.77412Z" fill="white"/>
<path d="M9.36539 6.03804H8.88184L9.12361 5.16797L9.36539 6.03804Z" fill="white"/>
<path d="M9.20153 6.30265L9.05212 5.76495L9.83447 5.76494L9.20153 6.30265Z" fill="white"/>
<path d="M8.93113 6.20576L9.32228 5.87334L9.56419 6.74336L8.93113 6.20576Z" fill="white"/>
<path d="M11.9575 5.86904L12.3486 6.20146L11.7156 6.73906L11.9575 5.86904Z" fill="white"/>
<path d="M12.2296 5.77412L12.0802 6.31182L11.4473 5.77412L12.2296 5.77412Z" fill="white"/>
<path d="M12.3947 6.03804H11.9111L12.1529 5.16797L12.3947 6.03804Z" fill="white"/>
<path d="M12.2308 6.30265L12.0814 5.76495L12.8638 5.76494L12.2308 6.30265Z" fill="white"/>
<path d="M11.9604 6.20576L12.3516 5.87334L12.5935 6.74336L11.9604 6.20576Z" fill="white"/>
<path d="M14.9794 5.86904L15.3706 6.20146L14.7375 6.73906L14.9794 5.86904Z" fill="white"/>
<path d="M15.2516 5.77412L15.1022 6.31182L14.4692 5.77412L15.2516 5.77412Z" fill="white"/>
<path d="M15.4167 6.03804H14.9331L15.1749 5.16797L15.4167 6.03804Z" fill="white"/>
<path d="M15.2528 6.30265L15.1034 5.76495L15.8857 5.76494L15.2528 6.30265Z" fill="white"/>
<path d="M14.9824 6.20576L15.3735 5.87334L15.6155 6.74336L14.9824 6.20576Z" fill="white"/>
<path d="M1.36763 7.36172L1.75878 7.69414L1.12571 8.23174L1.36763 7.36172Z" fill="white"/>
<path d="M1.63978 7.26679L1.49036 7.8045L0.857424 7.26679L1.63978 7.26679Z" fill="white"/>
<path d="M1.80484 7.53072H1.32129L1.56307 6.66064L1.80484 7.53072Z" fill="white"/>
<path d="M1.64099 7.79532L1.49157 7.25762L2.27393 7.25762L1.64099 7.79532Z" fill="white"/>
<path d="M1.37058 7.69844L1.76173 7.36602L2.00364 8.23604L1.37058 7.69844Z" fill="white"/>
<path d="M4.39351 7.36172L4.78466 7.69414L4.15159 8.23174L4.39351 7.36172Z" fill="white"/>
<path d="M4.66566 7.26679L4.51624 7.8045L3.8833 7.26679L4.66566 7.26679Z" fill="white"/>
<path d="M4.83072 7.53072H4.34717L4.58894 6.66064L4.83072 7.53072Z" fill="white"/>
<path d="M4.66687 7.79532L4.51745 7.25762L5.29981 7.25762L4.66687 7.79532Z" fill="white"/>
<path d="M4.39646 7.69844L4.78761 7.36602L5.02952 8.23604L4.39646 7.69844Z" fill="white"/>
<path d="M7.41597 7.36172L7.80712 7.69414L7.17405 8.23174L7.41597 7.36172Z" fill="white"/>
<path d="M7.68812 7.26679L7.5387 7.8045L6.90576 7.26679L7.68812 7.26679Z" fill="white"/>
<path d="M7.85318 7.53072H7.36963L7.6114 6.66064L7.85318 7.53072Z" fill="white"/>
<path d="M7.68933 7.79532L7.53991 7.25762L8.32227 7.25762L7.68933 7.79532Z" fill="white"/>
<path d="M7.41892 7.69844L7.81007 7.36602L8.05198 8.23604L7.41892 7.69844Z" fill="white"/>
<path d="M10.4379 7.36172L10.8291 7.69414L10.196 8.23174L10.4379 7.36172Z" fill="white"/>
<path d="M10.7101 7.26679L10.5607 7.8045L9.92774 7.26679L10.7101 7.26679Z" fill="white"/>
<path d="M10.8752 7.53072H10.3916L10.6334 6.66064L10.8752 7.53072Z" fill="white"/>
<path d="M10.7113 7.79532L10.5619 7.25762L11.3442 7.25762L10.7113 7.79532Z" fill="white"/>
<path d="M10.4409 7.69844L10.832 7.36602L11.074 8.23604L10.4409 7.69844Z" fill="white"/>
<path d="M13.4672 7.36172L13.8584 7.69414L13.2253 8.23174L13.4672 7.36172Z" fill="white"/>
<path d="M13.7394 7.26679L13.59 7.8045L12.957 7.26679L13.7394 7.26679Z" fill="white"/>
<path d="M13.9045 7.53072H13.4209L13.6627 6.66064L13.9045 7.53072Z" fill="white"/>
<path d="M13.7406 7.79532L13.5912 7.25762L14.3735 7.25762L13.7406 7.79532Z" fill="white"/>
<path d="M13.4702 7.69844L13.8613 7.36602L14.1033 8.23604L13.4702 7.69844Z" fill="white"/>
<path d="M16.4921 7.36416L16.8833 7.69658L16.2502 8.23418L16.4921 7.36416Z" fill="white"/>
<path d="M16.7643 7.26924L16.6149 7.80694L15.9819 7.26923L16.7643 7.26924Z" fill="white"/>
<path d="M16.9294 7.53316H16.4458L16.6876 6.66309L16.9294 7.53316Z" fill="white"/>
<path d="M16.7655 7.79777L16.6161 7.26006L17.3984 7.26006L16.7655 7.79777Z" fill="white"/>
<path d="M16.4951 7.70088L16.8862 7.36846L17.1282 8.23848L16.4951 7.70088Z" fill="white"/>
<path d="M2.88716 8.88174L3.27831 9.21416L2.64525 9.75176L2.88716 8.88174Z" fill="white"/>
<path d="M3.15931 8.78681L3.00989 9.32452L2.37695 8.78681L3.15931 8.78681Z" fill="white"/>
<path d="M3.32437 9.05074H2.84082L3.0826 8.18066L3.32437 9.05074Z" fill="white"/>
<path d="M3.16052 9.31534L3.0111 8.77764L3.79346 8.77764L3.16052 9.31534Z" fill="white"/>
<path d="M2.89011 9.21846L3.28126 8.88603L3.52318 9.75605L2.89011 9.21846Z" fill="white"/>
<path d="M5.90962 8.88174L6.30077 9.21416L5.66771 9.75176L5.90962 8.88174Z" fill="white"/>
<path d="M6.18177 8.78681L6.03236 9.32452L5.39942 8.78681L6.18177 8.78681Z" fill="white"/>
<path d="M6.34683 9.05074H5.86328L6.10506 8.18066L6.34683 9.05074Z" fill="white"/>
<path d="M6.18298 9.31534L6.03356 8.77764L6.81592 8.77764L6.18298 9.31534Z" fill="white"/>
<path d="M5.91257 9.21846L6.30372 8.88603L6.54564 9.75605L5.91257 9.21846Z" fill="white"/>
<path d="M8.92866 8.88174L9.31981 9.21416L8.68675 9.75176L8.92866 8.88174Z" fill="white"/>
<path d="M9.20082 8.78681L9.0514 9.32452L8.41846 8.78681L9.20082 8.78681Z" fill="white"/>
<path d="M9.36588 9.05074H8.88232L9.1241 8.18066L9.36588 9.05074Z" fill="white"/>
<path d="M9.20202 9.31534L9.05261 8.77764L9.83496 8.77764L9.20202 9.31534Z" fill="white"/>
<path d="M8.93162 9.21846L9.32277 8.88603L9.56468 9.75605L8.93162 9.21846Z" fill="white"/>
<path d="M11.9575 8.88174L12.3486 9.21416L11.7156 9.75176L11.9575 8.88174Z" fill="white"/>
<path d="M12.2296 8.78681L12.0802 9.32452L11.4473 8.78681L12.2296 8.78681Z" fill="white"/>
<path d="M12.3947 9.05074H11.9111L12.1529 8.18066L12.3947 9.05074Z" fill="white"/>
<path d="M12.2308 9.31534L12.0814 8.77764L12.8638 8.77764L12.2308 9.31534Z" fill="white"/>
<path d="M11.9604 9.21846L12.3516 8.88603L12.5935 9.75605L11.9604 9.21846Z" fill="white"/>
<path d="M14.9799 8.88174L15.3711 9.21416L14.738 9.75176L14.9799 8.88174Z" fill="white"/>
<path d="M15.2521 8.78681L15.1027 9.32452L14.4697 8.78681L15.2521 8.78681Z" fill="white"/>
<path d="M15.4171 9.05074H14.9336L15.1754 8.18066L15.4171 9.05074Z" fill="white"/>
<path d="M15.2533 9.31534L15.1039 8.77764L15.8862 8.77764L15.2533 9.31534Z" fill="white"/>
<path d="M14.9829 9.21846L15.374 8.88603L15.6159 9.75605L14.9829 9.21846Z" fill="white"/>
<path d="M1.36763 10.4115L1.75878 10.7439L1.12571 11.2815L1.36763 10.4115Z" fill="white"/>
<path d="M1.63978 10.3166L1.49036 10.8543L0.857424 10.3166L1.63978 10.3166Z" fill="white"/>
<path d="M1.80484 10.5805H1.32129L1.56307 9.71045L1.80484 10.5805Z" fill="white"/>
<path d="M1.64099 10.8451L1.49157 10.3074L2.27393 10.3074L1.64099 10.8451Z" fill="white"/>
<path d="M1.37058 10.7482L1.76173 10.4158L2.00364 11.2858L1.37058 10.7482Z" fill="white"/>
<path d="M4.39351 10.4115L4.78466 10.7439L4.15159 11.2815L4.39351 10.4115Z" fill="white"/>
<path d="M4.66517 10.3166L4.51575 10.8543L3.88281 10.3166L4.66517 10.3166Z" fill="white"/>
<path d="M4.83072 10.5805H4.34717L4.58894 9.71045L4.83072 10.5805Z" fill="white"/>
<path d="M4.66687 10.8451L4.51745 10.3074L5.29981 10.3074L4.66687 10.8451Z" fill="white"/>
<path d="M4.39646 10.7482L4.78761 10.4158L5.02952 11.2858L4.39646 10.7482Z" fill="white"/>
<path d="M7.41597 10.4115L7.80712 10.7439L7.17405 11.2815L7.41597 10.4115Z" fill="white"/>
<path d="M7.68812 10.3166L7.5387 10.8543L6.90576 10.3166L7.68812 10.3166Z" fill="white"/>
<path d="M7.85318 10.5805H7.36963L7.6114 9.71045L7.85318 10.5805Z" fill="white"/>
<path d="M7.68933 10.8451L7.53991 10.3074L8.32227 10.3074L7.68933 10.8451Z" fill="white"/>
<path d="M7.41892 10.7482L7.81007 10.4158L8.05198 11.2858L7.41892 10.7482Z" fill="white"/>
<path d="M10.4379 10.4115L10.8291 10.7439L10.196 11.2815L10.4379 10.4115Z" fill="white"/>
<path d="M10.7101 10.3166L10.5607 10.8543L9.92774 10.3166L10.7101 10.3166Z" fill="white"/>
<path d="M10.8752 10.5805H10.3916L10.6334 9.71045L10.8752 10.5805Z" fill="white"/>
<path d="M10.7113 10.8451L10.5619 10.3074L11.3442 10.3074L10.7113 10.8451Z" fill="white"/>
<path d="M10.4409 10.7482L10.832 10.4158L11.074 11.2858L10.4409 10.7482Z" fill="white"/>
<path d="M13.4672 10.4115L13.8584 10.7439L13.2253 11.2815L13.4672 10.4115Z" fill="white"/>
<path d="M13.7394 10.3166L13.59 10.8543L12.957 10.3166L13.7394 10.3166Z" fill="white"/>
<path d="M13.9045 10.5805H13.4209L13.6627 9.71045L13.9045 10.5805Z" fill="white"/>
<path d="M13.7406 10.8451L13.5912 10.3074L14.3735 10.3074L13.7406 10.8451Z" fill="white"/>
<path d="M13.4702 10.7482L13.8613 10.4158L14.1033 11.2858L13.4702 10.7482Z" fill="white"/>
<path d="M16.4921 10.4115L16.8833 10.7439L16.2502 11.2815L16.4921 10.4115Z" fill="white"/>
<path d="M16.7643 10.3166L16.6149 10.8543L15.9819 10.3166L16.7643 10.3166Z" fill="white"/>
<path d="M16.9294 10.5805H16.4458L16.6876 9.71045L16.9294 10.5805Z" fill="white"/>
<path d="M16.7655 10.8451L16.6161 10.3074L17.3984 10.3074L16.7655 10.8451Z" fill="white"/>
<path d="M16.4951 10.7482L16.8862 10.4158L17.1282 11.2858L16.4951 10.7482Z" fill="white"/>
<path d="M2.88716 11.9218L3.27831 12.2542L2.64525 12.7918L2.88716 11.9218Z" fill="white"/>
<path d="M3.15931 11.8269L3.00989 12.3646L2.37695 11.8269L3.15931 11.8269Z" fill="white"/>
<path d="M3.32437 12.0908H2.84082L3.0826 11.2207L3.32437 12.0908Z" fill="white"/>
<path d="M3.16052 12.3554L3.0111 11.8177L3.79346 11.8177L3.16052 12.3554Z" fill="white"/>
<path d="M2.89011 12.2585L3.28126 11.9261L3.52318 12.7961L2.89011 12.2585Z" fill="white"/>
<path d="M5.90962 11.9218L6.30077 12.2542L5.66771 12.7918L5.90962 11.9218Z" fill="white"/>
<path d="M6.18177 11.8269L6.03236 12.3646L5.39942 11.8269L6.18177 11.8269Z" fill="white"/>
<path d="M6.34683 12.0908H5.86328L6.10506 11.2207L6.34683 12.0908Z" fill="white"/>
<path d="M6.18298 12.3554L6.03356 11.8177L6.81592 11.8177L6.18298 12.3554Z" fill="white"/>
<path d="M5.91257 12.2585L6.30372 11.9261L6.54564 12.7961L5.91257 12.2585Z" fill="white"/>
<path d="M8.92866 11.9218L9.31981 12.2542L8.68675 12.7918L8.92866 11.9218Z" fill="white"/>
<path d="M9.20082 11.8269L9.0514 12.3646L8.41846 11.8269L9.20082 11.8269Z" fill="white"/>
<path d="M9.36588 12.0908H8.88232L9.1241 11.2207L9.36588 12.0908Z" fill="white"/>
<path d="M9.20202 12.3554L9.05261 11.8177L9.83496 11.8177L9.20202 12.3554Z" fill="white"/>
<path d="M8.93162 12.2585L9.32277 11.9261L9.56468 12.7961L8.93162 12.2585Z" fill="white"/>
<path d="M11.9575 11.9218L12.3486 12.2542L11.7156 12.7918L11.9575 11.9218Z" fill="white"/>
<path d="M12.2296 11.8269L12.0802 12.3646L11.4473 11.8269L12.2296 11.8269Z" fill="white"/>
<path d="M12.3947 12.0908H11.9111L12.1529 11.2207L12.3947 12.0908Z" fill="white"/>
<path d="M12.2308 12.3554L12.0814 11.8177L12.8638 11.8177L12.2308 12.3554Z" fill="white"/>
<path d="M11.9604 12.2585L12.3516 11.9261L12.5935 12.7961L11.9604 12.2585Z" fill="white"/>
<path d="M14.9799 11.9218L15.3711 12.2542L14.738 12.7918L14.9799 11.9218Z" fill="white"/>
<path d="M15.2521 11.8269L15.1027 12.3646L14.4697 11.8269L15.2521 11.8269Z" fill="white"/>
<path d="M15.4171 12.0908H14.9336L15.1754 11.2207L15.4171 12.0908Z" fill="white"/>
<path d="M15.2533 12.3554L15.1039 11.8177L15.8862 11.8177L15.2533 12.3554Z" fill="white"/>
<path d="M14.9829 12.2585L15.374 11.9261L15.6159 12.7961L14.9829 12.2585Z" fill="white"/>
<path d="M1.36665 13.4296L1.7578 13.762L1.12474 14.2996L1.36665 13.4296Z" fill="white"/>
<path d="M1.6388 13.3347L1.48939 13.8724L0.856447 13.3347L1.6388 13.3347Z" fill="white"/>
<path d="M1.80386 13.5986H1.32031L1.56209 12.7285L1.80386 13.5986Z" fill="white"/>
<path d="M1.64001 13.8632L1.49059 13.3255L2.27295 13.3255L1.64001 13.8632Z" fill="white"/>
<path d="M1.36961 13.7663L1.76075 13.4339L2.00267 14.3039L1.36961 13.7663Z" fill="white"/>
<path d="M4.39253 13.4296L4.78368 13.762L4.15062 14.2996L4.39253 13.4296Z" fill="white"/>
<path d="M4.66468 13.3347L4.51527 13.8724L3.88233 13.3347L4.66468 13.3347Z" fill="white"/>
<path d="M4.82974 13.5986H4.34619L4.58797 12.7285L4.82974 13.5986Z" fill="white"/>
<path d="M4.66589 13.8632L4.51647 13.3255L5.29883 13.3255L4.66589 13.8632Z" fill="white"/>
<path d="M4.39548 13.7663L4.78663 13.4339L5.02855 14.3039L4.39548 13.7663Z" fill="white"/>
<path d="M7.41499 13.4296L7.80614 13.762L7.17308 14.2996L7.41499 13.4296Z" fill="white"/>
<path d="M7.68714 13.3347L7.53773 13.8724L6.90479 13.3347L7.68714 13.3347Z" fill="white"/>
<path d="M7.8522 13.5986H7.36865L7.61043 12.7285L7.8522 13.5986Z" fill="white"/>
<path d="M7.68835 13.8632L7.53893 13.3255L8.32129 13.3255L7.68835 13.8632Z" fill="white"/>
<path d="M7.41794 13.7663L7.80909 13.4339L8.05101 14.3039L7.41794 13.7663Z" fill="white"/>
<path d="M10.437 13.4296L10.8281 13.762L10.1951 14.2996L10.437 13.4296Z" fill="white"/>
<path d="M10.7091 13.3347L10.5597 13.8724L9.92676 13.3347L10.7091 13.3347Z" fill="white"/>
<path d="M10.8742 13.5986H10.3906L10.6324 12.7285L10.8742 13.5986Z" fill="white"/>
<path d="M10.7103 13.8632L10.5609 13.3255L11.3433 13.3255L10.7103 13.8632Z" fill="white"/>
<path d="M10.4399 13.7663L10.8311 13.4339L11.073 14.3039L10.4399 13.7663Z" fill="white"/>
<path d="M13.4663 13.4296L13.8574 13.762L13.2243 14.2996L13.4663 13.4296Z" fill="white"/>
<path d="M13.7384 13.3347L13.589 13.8724L12.9561 13.3347L13.7384 13.3347Z" fill="white"/>
<path d="M13.9035 13.5986H13.4199L13.6617 12.7285L13.9035 13.5986Z" fill="white"/>
<path d="M13.7396 13.8632L13.5902 13.3255L14.3726 13.3255L13.7396 13.8632Z" fill="white"/>
<path d="M13.4692 13.7663L13.8604 13.4339L14.1023 14.3039L13.4692 13.7663Z" fill="white"/>
<path d="M16.4912 13.4301L16.8823 13.7625L16.2492 14.3001L16.4912 13.4301Z" fill="white"/>
<path d="M16.7633 13.3352L16.6139 13.8729L15.981 13.3352L16.7633 13.3352Z" fill="white"/>
<path d="M16.9284 13.5991H16.4448L16.6866 12.729L16.9284 13.5991Z" fill="white"/>
<path d="M16.7645 13.8637L16.6151 13.326L17.3975 13.326L16.7645 13.8637Z" fill="white"/>
<path d="M16.4941 13.7668L16.8853 13.4344L17.1272 14.3044L16.4941 13.7668Z" fill="white"/>
<path d="M-0.0141602 23.7021H40.0206V25.8588H-0.0141602V23.7021Z" fill="white"/>
<path d="M-0.0141602 25.8574H40.0206V28.0141H-0.0141602V25.8574Z" fill="#B22234"/>
</g>
<defs>
<clipPath id="clip0_272_116347">
<rect width="40" height="28" rx="2" fill="white"/>
</clipPath>
</defs>
</svg>
