<svg width="50" height="50" viewBox="0 0 50 50" fill="none" xmlns="http://www.w3.org/2000/svg">
<rect x="0.5" y="0.5" width="49" height="49" rx="24.5" fill="url(#paint0_linear_272_116352)"/>
<rect x="0.5" y="0.5" width="49" height="49" rx="24.5" stroke="#C7F5FC"/>
<path d="M19.7285 9.85838C15.8789 11.211 12.5494 14.1242 10.6766 17.7658C10.0523 19.0144 9.53209 20.367 9.324 21.8236C8.59568 25.2571 9.11591 29.0027 10.6766 32.1241C11.717 34.205 13.1737 35.9738 15.0465 37.4304C16.7112 38.783 18.6881 39.8235 20.873 40.3437C23.5782 41.072 26.3875 41.072 28.9886 40.4477C31.3816 39.9275 33.6706 38.783 35.5435 37.0142C37.5203 35.2455 38.8729 32.9565 39.6012 30.3553C40.4336 27.6502 40.5376 24.7369 40.0174 21.9276C35.0232 21.9276 30.029 21.9276 25.0349 21.9276V28.1704H33.6706C33.3585 30.1472 32.11 32.0201 30.4452 33.0605C29.4048 33.7888 28.1562 34.205 26.9077 34.4131C25.6591 34.6212 24.3065 34.6212 23.058 34.4131C21.8095 34.205 20.5609 33.5807 19.5205 32.8524C17.8557 31.7079 16.5031 29.9391 15.8789 27.9623C15.1505 25.9854 15.1505 23.8005 15.8789 21.7196C16.3991 20.367 17.1274 19.0144 18.1679 17.9739C19.4164 16.6213 21.0811 15.6849 22.954 15.3728C24.5146 15.0606 26.0753 15.0606 27.636 15.5809C28.8845 15.9971 30.1331 16.7254 31.0695 17.5577C32.0059 16.6213 33.0464 15.5809 33.9828 14.6445C34.503 14.1242 35.0232 13.604 35.5435 13.0838C34.0868 11.7312 32.318 10.5867 30.4452 9.85838C27.0117 8.71387 23.162 8.71387 19.7285 9.85838Z" fill="white"/>
<path d="M19.7287 9.85947C23.1622 8.71497 27.0119 8.71497 30.4454 9.96351C32.3182 10.6918 34.087 11.7323 35.5436 13.1889C35.0234 13.7091 34.5032 14.2294 33.9829 14.7496C33.0465 15.686 32.0061 16.7265 31.0697 17.6629C30.1333 16.7265 28.8847 15.9981 27.6362 15.686C26.1795 15.2698 24.5148 15.1658 22.9541 15.4779C21.1853 15.8941 19.5206 16.8305 18.168 18.0791C17.1276 19.1195 16.2952 20.4721 15.879 21.8247C14.1103 20.4721 12.4455 19.1195 10.6768 17.7669C12.5496 14.1253 15.879 11.2121 19.7287 9.85947Z" fill="white"/>
<path d="M9.324 21.8273C9.63614 20.4747 10.0523 19.1221 10.6766 17.7695C12.4454 19.1221 14.1101 20.4747 15.8789 21.8273C15.1505 23.8042 15.1505 25.9891 15.8789 28.07C14.1101 29.4226 12.4454 30.7752 10.6766 32.1278C9.11591 28.9024 8.59568 25.2608 9.324 21.8273Z" fill="white"/>
<path d="M24.9297 21.9287H39.9122C40.4325 24.7379 40.3284 27.6512 39.4961 30.3564C38.7677 32.8535 37.4151 35.1425 35.4383 37.0153C33.7736 35.6627 32.1088 34.4142 30.3401 33.0616C32.0048 31.9171 33.1493 30.1483 33.5655 28.1714C30.6522 28.1714 27.7389 28.1714 24.9297 28.1714C24.9297 26.0905 24.9297 24.0096 24.9297 21.9287Z" fill="white"/>
<path d="M10.6768 32.1242C12.4455 30.7716 14.1103 29.419 15.879 28.0664C16.5033 30.0433 17.8559 31.812 19.5206 32.9565C20.5611 33.6849 21.8096 34.2051 23.0582 34.5172C24.3067 34.7253 25.5553 34.7253 26.9079 34.5172C28.1564 34.3091 29.4049 33.7889 30.4454 33.1646C32.1101 34.5172 33.7749 35.7658 35.5436 37.1184C33.6708 38.7831 31.4859 39.9276 28.9888 40.5519C26.2836 41.1761 23.4743 41.1761 20.8732 40.4478C18.7923 39.9276 16.8154 38.8871 15.0467 37.5345C13.2779 35.9739 11.7172 34.101 10.6768 32.1242Z" fill="white"/>
<defs>
<linearGradient id="paint0_linear_272_116352" x1="25" y1="0" x2="25" y2="50" gradientUnits="userSpaceOnUse">
<stop stop-color="#3E45BE"/>
<stop offset="1" stop-color="#795DD7"/>
</linearGradient>
</defs>
</svg>
