<svg width="28" height="28" viewBox="0 0 28 28" fill="none" xmlns="http://www.w3.org/2000/svg">
<path fill-rule="evenodd" clip-rule="evenodd" d="M4.51228 12.7551L9.06436 8.44967C9.24273 8.28097 9.52872 8.28097 9.70708 8.44967L10.6217 9.31475L5.46027 14.2807L4.51228 13.3841C4.32955 13.2113 4.32955 12.9279 4.51228 12.7551ZM6.44102 15.2083L11.2864 19.7912C12.4321 20.8748 14.2342 20.9762 15.5033 20.0285L17.8628 18.2667C18.5205 17.7756 18.5774 16.8393 17.9838 16.2778L17.0177 15.3641C16.7707 15.1579 16.4222 15.0905 16.105 15.2009L15.6372 13.9567C16.4792 13.6636 17.4095 13.8715 18.0305 14.4642L18.0292 14.4654L18.9478 15.3342C19.3512 15.7157 19.6043 16.1836 19.7113 16.6737L21.4678 15.1235L16.4195 10.2664L12.073 14.3773C11.9057 14.5356 11.9057 14.795 12.073 14.9533C12.1882 15.0622 12.3582 15.0979 12.5101 15.045L15.6372 13.9567L16.105 15.2009L12.9779 16.2893C12.3283 16.5154 11.6015 16.3627 11.109 15.8969C10.3934 15.2201 10.3934 14.1105 11.109 13.4337L13.0428 11.6047L11.6025 10.2424L6.44102 15.2083ZM14.0237 10.677L10.6712 7.5061C9.9577 6.8313 8.81374 6.8313 8.10028 7.5061L3.5482 11.8115C2.81727 12.5028 2.81727 13.6364 3.5482 14.3277L10.3224 20.7347C11.9591 22.2827 14.5334 22.4276 16.3465 21.0738L18.706 19.312C18.8525 19.2025 18.9842 19.0821 19.1007 18.9528L19.0892 19.0183L24.4059 14.326C25.1795 13.6432 25.2005 12.476 24.4518 11.7678L19.9465 7.50669C19.233 6.83189 18.0891 6.83189 17.3756 7.50669L14.0237 10.677ZM22.4822 14.2282L17.4003 9.33877L18.3397 8.45026C18.5181 8.28156 18.8041 8.28156 18.9824 8.45026L23.4877 12.7114C23.6749 12.8884 23.6697 13.1802 23.4762 13.3509L22.4822 14.2282Z" fill="#C7F5FC"/>
</svg>
