<svg width="28" height="28" viewBox="0 0 28 28" fill="none" xmlns="http://www.w3.org/2000/svg">
<path fill-rule="evenodd" clip-rule="evenodd" d="M14.9474 5C17.2458 5 19.1618 6.55509 19.5933 8.61814C19.6237 8.62104 19.654 8.62427 19.6842 8.62785C21.5535 8.8493 23 10.3642 23 12.2V14C23 15.8358 21.5535 17.3507 19.6842 17.5721C19.6658 17.5743 19.6473 17.5764 19.6288 17.5783C19.3496 19.3003 18.0428 20.7002 16.3221 21.1951C16.1047 22.2245 15.1477 23 14 23C12.692 23 11.6316 21.9926 11.6316 20.75C11.6316 19.5074 12.692 18.5 14 18.5C14.9594 18.5 15.7855 19.0419 16.1578 19.8211C17.3838 19.3642 18.2538 18.2338 18.2632 16.9092V16.25V9.95L18.2632 9.5C18.2632 7.7603 16.7786 6.35 14.9474 6.35H13.0526C11.2214 6.35 9.73684 7.7603 9.73684 9.5V9.95V16.25V17.6H8.78947C8.62906 17.6 8.47097 17.5905 8.31579 17.5721C6.44648 17.3507 5 15.8358 5 14V12.2C5 10.3642 6.44648 8.8493 8.31579 8.62785C8.34599 8.62427 8.37629 8.62104 8.40671 8.61814C8.83819 6.55509 10.7542 5 13.0526 5H14.9474ZM8.31579 16.205C7.23473 15.9965 6.42105 15.0885 6.42105 14V12.2C6.42105 11.1115 7.23473 10.2035 8.31579 9.99501V16.205ZM14 21.65C14.5232 21.65 14.9474 21.2471 14.9474 20.75C14.9474 20.2529 14.5232 19.85 14 19.85C13.4768 19.85 13.0526 20.2529 13.0526 20.75C13.0526 21.2471 13.4768 21.65 14 21.65ZM21.5789 12.2C21.5789 11.1115 20.7653 10.2035 19.6842 9.99501V16.205C20.7653 15.9965 21.5789 15.0885 21.5789 14V12.2Z" fill="#C7F5FC"/>
</svg>
