<svg width="28" height="25" viewBox="0 0 28 25" fill="none" xmlns="http://www.w3.org/2000/svg">
<path d="M13.4903 24.8764L13.4808 24.8715L13.4483 24.8544C13.4206 24.8399 13.381 24.8189 13.3303 24.7915C13.2288 24.7367 13.0827 24.6565 12.8987 24.5517C12.5304 24.3422 12.0087 24.0336 11.3845 23.6323C10.1385 22.8311 8.47355 21.6533 6.80414 20.148C3.50044 17.169 0 12.7434 0 7.29179C0 3.22497 3.53748 0 7.80769 0C10.3189 0 12.5674 1.10987 14 2.84949C15.4326 1.10987 17.6811 0 20.1923 0C24.4625 0 28 3.22497 28 7.29179C28 12.7434 24.4996 17.169 21.1959 20.148C19.5265 21.6533 17.8616 22.8311 16.6155 23.6323C15.9913 24.0336 15.4696 24.3422 15.1013 24.5517C14.9173 24.6565 14.7712 24.7367 14.6697 24.7915C14.619 24.8189 14.5794 24.8399 14.5517 24.8544L14.5192 24.8715L14.5097 24.8764L14.5059 24.8783C14.19 25.0406 13.81 25.0406 13.4941 24.8783L13.4903 24.8764Z" fill="#FF383C"/>
</svg>
