<svg width="28" height="28" viewBox="0 0 28 28" fill="none" xmlns="http://www.w3.org/2000/svg">
<path fill-rule="evenodd" clip-rule="evenodd" d="M20.4931 12.9828L19.5165 13.3464V14.3885V20.0001C19.5165 20.8285 18.8449 21.5 18.0164 21.5H9.9929C9.16445 21.5 8.49286 20.8285 8.49286 20.0001V14.3885V13.3453L7.51488 12.9823L6.0459 12.437L14.0024 6.61944L21.9553 12.4384L20.4931 12.9828ZM23.3487 13.5202L21.0165 14.3885V20.0001C21.0165 21.6569 19.6733 23 18.0164 23H9.9929C8.336 23 6.99282 21.6569 6.99282 20.0001V14.3885L4.6522 13.5196C3.90513 13.2423 3.76671 12.2453 4.40998 11.7749L13.4122 5.19277C13.7639 4.93567 14.2415 4.93575 14.593 5.19297L23.5903 11.7761C24.2329 12.2463 24.0949 13.2424 23.3487 13.5202Z" fill="#C7F5FC"/>
<rect x="11" y="18" width="6" height="2" fill="#C7F5FC"/>
</svg>
