<svg width="26" height="26" viewBox="0 0 26 26" fill="none" xmlns="http://www.w3.org/2000/svg">
<path opacity="0.6" d="M13 26C20.18 26 26 20.1798 26 13C26 5.82024 20.18 0 13 0C5.81996 0 0 5.82024 0 13C0 20.1798 5.81996 26 13 26ZM13.7222 4.55C14.9191 4.55 15.8889 5.52009 15.8889 6.71667C15.8889 7.91324 14.9191 8.88333 13.7222 8.88333C12.5254 8.88333 11.5556 7.91324 11.5556 6.71667C11.5556 5.52009 12.5254 4.55 13.7222 4.55ZM13 9.89444C15.1667 9.89444 15.6922 11.1728 15.4495 12.7498L14.4444 19.2833C14.4444 19.2833 15.1667 19.2833 16.6111 18.5611C16.6111 18.5611 15.8889 21.45 13 21.45C10.8333 21.45 10.3078 20.1717 10.5505 18.5946L11.5556 12.0611C11.5556 12.0611 10.8333 12.0611 9.38889 12.7833C9.38889 12.7833 10.1111 9.89444 13 9.89444Z" fill="white"/>
</svg>
