<svg width="30" height="30" viewBox="0 0 30 30" fill="none" xmlns="http://www.w3.org/2000/svg">
<g clip-path="url(#clip0_270_117341)">
<path d="M15 0C6.71484 0 0 6.71484 0 15C0 23.2852 6.71484 30 15 30C23.2852 30 30 23.2852 30 15C30 6.71484 23.2852 0 15 0ZM24.3633 24.3574C23.1445 25.5762 21.7324 26.5312 20.1562 27.1934C18.5273 27.8848 16.793 28.2305 15 28.2305C13.2129 28.2305 11.4785 27.8789 9.84375 27.1934C8.26758 26.5254 6.84961 25.5703 5.63672 24.3574C4.41797 23.1387 3.46289 21.7266 2.80078 20.1504C2.10938 18.5215 1.75781 16.7871 1.75781 15C1.75781 13.2129 2.10937 11.4785 2.79492 9.84375C3.46289 8.26758 4.41797 6.84961 5.63086 5.63672C6.85547 4.41797 8.26758 3.46289 9.84375 2.79492C11.4785 2.10937 13.2129 1.75781 15 1.75781C16.7871 1.75781 18.5215 2.10937 20.1562 2.79492C21.7324 3.46289 23.1504 4.41797 24.3633 5.63086C25.582 6.84961 26.5371 8.26172 27.1992 9.83789C27.8906 11.4668 28.2363 13.2012 28.2363 14.9941C28.2363 16.7812 27.8848 18.5156 27.1992 20.1504C26.5312 21.7266 25.5762 23.1445 24.3633 24.3574Z" fill="#C7F5FC"/>
<path d="M19.6055 7.5H10.4062C8.80664 7.5 7.50586 8.80078 7.50586 10.4004V13.4648V19.6055C7.50586 21.2051 8.80664 22.5059 10.4062 22.5059H19.6055C21.2051 22.5059 22.5059 21.2051 22.5059 19.6055V13.459V10.3945C22.5 8.80078 21.1992 7.5 19.6055 7.5ZM20.4375 9.22852H20.7715V9.55664V11.7715L18.2344 11.7773L18.2285 9.23438L20.4375 9.22852ZM12.8613 13.459C13.3418 12.7969 14.1211 12.3574 15 12.3574C15.8789 12.3574 16.6582 12.791 17.1387 13.459C17.4551 13.8926 17.6367 14.4258 17.6367 15C17.6367 16.4531 16.4531 17.6426 14.9941 17.6426C13.5352 17.6426 12.3633 16.4531 12.3633 15C12.3633 14.4258 12.5508 13.8926 12.8613 13.459ZM21.041 19.5996C21.041 20.3906 20.3965 21.0352 19.6055 21.0352H10.4062C9.61523 21.0352 8.9707 20.3906 8.9707 19.5996V13.459H11.209C11.0156 13.9336 10.9043 14.4551 10.9043 15C10.9043 17.2617 12.7441 19.1016 15.0059 19.1016C17.2676 19.1016 19.1074 17.2617 19.1074 15C19.1074 14.4551 18.9961 13.9336 18.8027 13.459H21.041V19.5996Z" fill="#C7F5FC"/>
</g>
<defs>
<clipPath id="clip0_270_117341">
<rect width="30" height="30" fill="white"/>
</clipPath>
</defs>
</svg>
