<svg width="40" height="40" viewBox="0 0 40 40" fill="none" xmlns="http://www.w3.org/2000/svg">
<rect x="0.5" y="0.5" width="39" height="39" rx="19.5" fill="#3B4A74"/>
<rect x="0.5" y="0.5" width="39" height="39" rx="19.5" stroke="#C7F5FC"/>
<path d="M20.0002 8.75004C19.2793 8.74461 18.5649 8.88558 17.9002 9.16442C17.2533 9.42879 16.6796 9.81692 16.2014 10.3175V10.3232L16.1996 10.3269C15.7346 10.8313 15.3746 11.4369 15.1233 12.1269C14.8664 12.815 14.7427 13.5688 14.7427 14.3769C14.7427 15.1925 14.8646 15.9538 15.1233 16.6438C15.3764 17.3207 15.7364 17.9188 16.1996 18.425L16.2014 18.4288C16.6777 18.9294 17.2477 19.3232 17.8908 19.5988V19.6044C18.5395 19.8688 19.2464 19.9982 19.9908 19.9982C20.7314 19.9982 21.4346 19.8688 22.0852 19.6044V19.6007C22.7283 19.325 23.2927 18.9313 23.7577 18.4288C24.2358 17.9263 24.6014 17.3225 24.8564 16.6438C25.1152 15.9538 25.2389 15.1925 25.2389 14.375H25.2577C25.2577 13.5688 25.1358 12.8169 24.8771 12.1288C24.6389 11.4581 24.2656 10.8436 23.7802 10.3232C23.3115 9.81799 22.7373 9.42235 22.0983 9.16442C21.4336 8.88533 20.721 8.74434 20.0002 8.75004ZM20.0452 23.7538C15.7008 23.7538 13.3683 24.1532 11.6339 25.46C10.7677 26.1163 10.1958 27.0069 9.8733 28.0438C9.5508 29.0807 9.44955 29.8719 9.4458 31.25L20.0002 31.2538H30.5546C30.5527 29.8738 30.4571 29.0807 30.1327 28.0438C29.8102 27.0069 29.2383 26.1182 28.3702 25.4638C26.6395 24.1569 24.3877 23.7538 20.0452 23.7538Z" fill="#C7F5FC"/>
</svg>
