<svg width="40" height="40" viewBox="0 0 40 40" fill="none" xmlns="http://www.w3.org/2000/svg">
<path fill-rule="evenodd" clip-rule="evenodd" d="M6 13.7136C6 8.93218 9.7289 5 14.3959 5C16.8334 5 18.947 6.31021 20.4123 8.09638C20.8205 8.59394 21.1861 9.137 21.5012 9.71295C21.8159 9.13714 22.1812 8.59418 22.5891 8.09669C24.0536 6.31035 26.1664 5 28.6041 5C33.2711 5 37 8.93218 37 13.7136C37 17.9534 34.4013 21.7129 31.4317 24.8065C29.1551 27.1782 26.4808 29.333 24.2484 31.1317C23.5542 31.6911 22.9027 32.216 22.3192 32.7023C21.8429 33.0992 21.1571 33.0992 20.6808 32.7023C20.0973 32.216 19.4458 31.6911 18.7516 31.1317C16.5192 29.333 13.8449 27.1782 11.5683 24.8065C8.5987 21.7129 6 17.9534 6 13.7136ZM22.7934 14.6268H20.2098C20.2098 12.9131 19.5352 11.1274 18.4278 9.77757C17.3212 8.42858 15.8819 7.62548 14.3959 7.62548C11.2159 7.62548 8.58361 10.3203 8.58361 13.7136C8.58361 16.8747 10.5518 19.9876 13.4177 22.9732C15.5669 25.2122 18.0485 27.2124 20.2601 28.9949C20.6848 29.3372 21.0995 29.6715 21.5 29.9979C21.9005 29.6715 22.3152 29.3372 22.7399 28.9949C24.9515 27.2124 27.4331 25.2122 29.5823 22.9732C32.4482 19.9876 34.4164 16.8747 34.4164 13.7136C34.4164 10.3203 31.7841 7.62548 28.6041 7.62548C27.1183 7.62548 25.6799 8.42844 24.574 9.77725C23.4675 11.1269 22.7934 12.9128 22.7934 14.6268Z" fill="white"/>
</svg>
