<svg width="28" height="28" viewBox="0 0 28 28" fill="none" xmlns="http://www.w3.org/2000/svg">
<path fill-rule="evenodd" clip-rule="evenodd" d="M9 5.5H19C19.2761 5.5 19.5 5.72386 19.5 6V22C19.5 22.2761 19.2761 22.5 19 22.5H9C8.72386 22.5 8.5 22.2761 8.5 22V14.749H12.4401L10.7143 16.4748L11.775 17.5354L14.7802 14.5302C15.0731 14.2374 15.0731 13.7625 14.7802 13.4696L11.775 10.4644L10.7143 11.525L12.4382 13.249H8.5V6C8.5 5.72386 8.72386 5.5 9 5.5ZM7 13.249V6C7 4.89543 7.89543 4 9 4H19C20.1046 4 21 4.89543 21 6V22C21 23.1046 20.1046 24 19 24H9C7.89543 24 7 23.1046 7 22V14.749H5V13.249H7Z" fill="#FF5C5C"/>
</svg>
