<svg width="28" height="28" viewBox="0 0 28 28" fill="none" xmlns="http://www.w3.org/2000/svg">
<path d="M22.6695 14.2592C22.5891 14.0946 22.5891 13.9057 22.6695 13.7411L23.4154 12.2152C23.8307 11.3656 23.5017 10.3529 22.6663 9.90966L21.166 9.11358C21.0041 9.02772 20.8931 8.87491 20.8614 8.69448L20.568 7.02151C20.4046 6.09004 19.543 5.46412 18.6068 5.59658L16.9251 5.83446C16.7435 5.86009 16.5641 5.80173 16.4324 5.67435L15.2117 4.49343C14.5319 3.83587 13.4671 3.83583 12.7875 4.49343L11.5667 5.67446C11.435 5.80188 11.2555 5.86012 11.074 5.83458L9.39228 5.59669C8.45578 5.46416 7.59447 6.09016 7.43107 7.02163L7.13764 8.69452C7.10596 8.87499 6.99499 9.02776 6.83316 9.11366L5.33279 9.90973C4.49742 10.3529 4.16836 11.3657 4.58367 12.2153L5.32955 13.7412C5.41002 13.9059 5.41002 14.0947 5.32955 14.2593L4.58363 15.7852C4.16833 16.6348 4.49738 17.6475 5.33276 18.0907L6.83312 18.8868C6.99499 18.9727 7.10596 19.1255 7.13764 19.3059L7.43107 20.9789C7.57982 21.8268 8.30692 22.4215 9.14256 22.4214C9.22487 22.4214 9.30838 22.4157 9.39232 22.4038L11.074 22.1659C11.2554 22.1402 11.435 22.1986 11.5667 22.326L12.7875 23.5069C13.1274 23.8357 13.5634 24.0001 13.9995 24.0001C14.4356 24 14.8719 23.8357 15.2116 23.5069L16.4324 22.326C16.5641 22.1986 16.7436 22.1404 16.9251 22.1659L18.6068 22.4038C19.5434 22.5363 20.4046 21.9103 20.568 20.9789L20.8615 19.306C20.8932 19.1255 21.0041 18.9727 21.166 18.8868L22.6663 18.0907C23.5017 17.6475 23.8307 16.6348 23.4154 15.7852L22.6695 14.2592ZM22.1257 17.0717L20.6253 17.8678C20.147 18.1217 19.8189 18.5732 19.7253 19.1066L19.4319 20.7795C19.3766 21.0947 19.0853 21.3063 18.7684 21.2616L17.0866 21.0237C16.5503 20.9478 16.0196 21.1204 15.6304 21.4969L14.4096 22.6778C14.1797 22.9002 13.8194 22.9002 13.5894 22.6778L12.3687 21.4969C12.0397 21.1786 11.6097 21.0062 11.1607 21.0062C11.0784 21.0062 10.9955 21.0119 10.9125 21.0237L9.23073 21.2616C8.91409 21.3063 8.6225 21.0946 8.56718 20.7795L8.27371 19.1065C8.18012 18.5731 7.85208 18.1216 7.37369 17.8678L5.87333 17.0717C5.59068 16.9217 5.47935 16.5791 5.61986 16.2917L6.36578 14.7657C6.60359 14.2792 6.60359 13.7211 6.36578 13.2346L5.61986 11.7086C5.47935 11.4212 5.59068 11.0786 5.87333 10.9286L7.37369 10.1325C7.85204 9.87868 8.18012 9.4272 8.27367 8.89378L8.56711 7.22084C8.62242 6.90569 8.91374 6.69398 9.23065 6.73874L10.9124 6.97663C11.4485 7.05252 11.9794 6.87999 12.3686 6.50347L13.5894 5.32256C13.8193 5.10014 14.1796 5.10014 14.4096 5.32256L15.6303 6.50347C16.0195 6.88003 16.5503 7.05252 17.0865 6.97663L18.7683 6.73874C19.0849 6.69394 19.3765 6.90569 19.4318 7.22084L19.7252 8.89382C19.8188 9.42724 20.1469 9.87876 20.6253 10.1325L22.1256 10.9286C22.4083 11.0786 22.5196 11.4212 22.3791 11.7086L21.6332 13.2346C21.3954 13.7211 21.3954 14.2792 21.6332 14.7657L22.3791 16.2916C22.5196 16.5791 22.4083 16.9218 22.1257 17.0717Z" fill="white"/>
<path d="M18.2145 9.78635C17.9893 9.56112 17.624 9.56112 17.3988 9.78635L9.78611 17.3991C9.56088 17.6243 9.56088 17.9895 9.78611 18.2147C9.89872 18.3274 10.0463 18.3837 10.1939 18.3837C10.3415 18.3837 10.4891 18.3274 10.6017 18.2147L18.2144 10.602C18.4397 10.3768 18.4397 10.0116 18.2145 9.78635Z" fill="white"/>
<path d="M11.6929 8.80859C10.5268 8.80859 9.57812 9.75729 9.57812 10.9234C9.57812 12.0894 10.5268 13.0381 11.6929 13.0381C12.859 13.0381 13.8077 12.0894 13.8077 10.9234C13.8077 9.75729 12.859 8.80859 11.6929 8.80859ZM11.6929 11.8846C11.1629 11.8846 10.7317 11.4534 10.7317 10.9233C10.7317 10.3933 11.1629 9.96209 11.6929 9.96209C12.2229 9.96209 12.6542 10.3933 12.6542 10.9233C12.6541 11.4534 12.2229 11.8846 11.6929 11.8846Z" fill="white"/>
<path d="M16.3071 14.9609C15.1411 14.9609 14.1924 15.9096 14.1924 17.0757C14.1924 18.2418 15.1411 19.1905 16.3071 19.1905C17.4732 19.1905 18.4219 18.2418 18.4219 17.0757C18.4219 15.9096 17.4732 14.9609 16.3071 14.9609ZM16.3071 18.0369C15.7771 18.0369 15.3459 17.6057 15.3459 17.0757C15.3459 16.5457 15.7771 16.1145 16.3071 16.1145C16.8372 16.1145 17.2684 16.5457 17.2684 17.0757C17.2684 17.6057 16.8372 18.0369 16.3071 18.0369Z" fill="white"/>
</svg>
