<svg width="28" height="28" viewBox="0 0 28 28" fill="none" xmlns="http://www.w3.org/2000/svg">
<path fill-rule="evenodd" clip-rule="evenodd" d="M16.1151 19.6079C16.2906 19.5351 16.5041 19.3035 16.6728 19.1845L17.1012 18.8354C17.1058 18.8311 17.1119 18.8243 17.1164 18.82L17.8949 18.161C18.1976 18.2633 18.5126 18.3883 18.888 18.3639C19.1741 19.0194 20.4841 20.9516 20.5579 21.2159C20.1499 21.1699 18.8088 20.9137 18.5025 21.0444L18.3293 21.1816C18.1956 21.3105 17.5228 22.5221 17.4782 22.5748C17.4719 22.5822 17.4649 22.5889 17.4587 22.5957L17.4147 22.6388C17.3285 22.2384 16.9503 21.5203 16.7807 21.1166C16.5993 20.6848 16.228 19.9653 16.1151 19.6079L16.1151 19.6079ZM10.5031 22.6093C10.4242 22.5483 9.86587 21.641 9.77741 21.5039C9.35793 20.8538 9.38152 20.9447 8.48255 21.0553C8.10937 21.1012 7.73069 21.1346 7.3578 21.2036C7.39186 21.0781 8.48869 19.3327 8.66806 19.0369C8.8585 18.7228 8.92787 18.6401 9.00547 18.239C9.1985 18.176 10.1009 18.0183 10.2717 18.0265C10.3036 18.0709 10.3101 18.1016 10.3449 18.1428C10.4191 18.2305 10.4077 18.1611 10.6408 18.4358C10.7661 18.5835 10.8781 18.701 11.0256 18.8278C11.2992 19.0628 11.1531 18.9802 11.4373 19.1934C11.5443 19.2737 11.5155 19.3001 11.6174 19.3843C11.6882 19.4427 11.7829 19.5085 11.8581 19.5489C11.8047 19.8376 10.6591 22.3854 10.5032 22.6093L10.5031 22.6093ZM18.87 17.2053C18.9148 17.1088 18.9167 17.117 18.9801 17.0494L19.7145 16.078C19.7788 15.9896 19.6766 16.1245 19.742 16.0404C19.7968 15.9699 19.751 16.0268 19.7894 15.9843C20.2382 16.0162 21.1401 16.0909 21.4834 16.416C21.6288 16.5538 21.4115 16.7197 21.2917 16.7853C20.9104 16.9943 20.6748 17.0581 20.2378 17.1308C19.7466 17.2125 19.3457 17.1589 18.87 17.2053ZM13.9707 19.8633C13.9147 19.8037 13.8896 19.8122 13.8254 19.7555L13.3664 19.3452C13.3003 19.2759 13.2694 19.2797 13.204 19.2262C13.118 19.1559 13.1621 19.1592 13.0674 19.0855C13.005 19.037 12.9567 19.0213 12.9035 18.9679L12.2984 18.4237C12.1861 18.3358 12.2385 18.3674 12.1523 18.2606C12.0649 18.1523 11.9331 18.1097 11.8453 18.0071L11.562 17.7042C11.7427 17.5444 15.7048 16.4753 16.4414 16.3152C17.0706 16.1786 17.6454 16.1162 18.2691 16.0029L17.8175 16.571C17.7547 16.624 17.7369 16.6168 17.6693 16.6707C17.6247 16.7063 17.5841 16.7498 17.5407 16.7913C17.4671 16.8617 17.4848 16.8424 17.4283 16.9269C17.3759 17.0053 17.3668 17.0141 17.2955 17.0731C17.2065 17.1468 17.0931 17.2128 17.022 17.2979C16.8755 17.4732 16.5775 17.6758 16.4799 17.7808C16.4259 17.8387 16.4836 17.791 16.4209 17.8448L14.2644 19.6337C14.2051 19.6807 14.1894 19.6995 14.1285 19.7459L13.9706 19.8633H13.9707ZM5.4886 13.6668C7.35737 13.7397 9.07197 13.2549 10.8445 12.7976C14.4934 11.8563 19.0672 10.023 22.6249 12.1343C22.7192 12.1902 22.7901 12.2135 22.7793 12.3061L22.2408 14.0973C22.1519 14.462 22.0304 14.9612 21.9104 15.3124C21.7541 15.2513 21.6119 15.1612 21.4088 15.0926C21.2347 15.0337 21.0269 14.9924 20.8268 14.9629C15.8256 14.2261 11.7693 17.164 7.73786 17.0727C7.34804 17.0639 6.90183 17.0234 6.54916 16.8435C6.33279 16.7331 6.39137 16.617 6.31696 16.3616C6.26398 16.1798 6.21885 16.0136 6.16942 15.8276C6.00545 15.2107 5.57078 14.0309 5.48857 13.6667L5.4886 13.6668ZM7.39722 12.4041C7.11729 12.0277 6.79879 11.3799 6.58578 10.9666C6.33179 10.4738 6.12386 9.83063 6.03167 9.28578C5.86331 8.29108 6.13163 7.11863 6.77562 6.36798C6.81426 6.32295 6.78062 6.37054 6.83211 6.30071C7.0047 6.06673 6.98852 6.05193 7.23016 5.89013C7.39314 5.78094 7.43955 5.69735 7.72175 5.54253C8.57949 5.07188 9.44461 4.93388 10.4281 5.19958C10.9247 5.33378 11.5042 5.65022 11.9123 5.95283C11.959 5.98746 12.0387 6.04459 12.0728 6.07201C12.3275 6.27732 12.3027 6.29439 12.5048 6.47787C12.7851 6.73243 12.933 6.9113 13.1576 7.19269L13.4243 7.48475C13.6961 7.81031 14.1303 7.76376 14.4562 7.55675C14.5919 7.47052 14.6254 7.38941 14.7265 7.2683L14.7831 7.20117C14.7871 7.19616 14.7929 7.18896 14.797 7.18399L14.9728 6.95612C15.0663 6.83924 15.1444 6.76472 15.2264 6.64976C15.3953 6.41287 15.7152 6.17215 15.9529 5.97855C15.9963 5.94317 15.9896 5.94623 16.0375 5.90826C16.2597 5.73215 16.5147 5.59987 16.8103 5.43803C17.7873 4.90301 19.3886 5.0134 20.3483 5.6532L20.6705 5.89048C20.8522 6.00921 20.75 6.01336 20.9491 6.17179C21.123 6.31018 21.3159 6.58347 21.4268 6.78037C21.9766 7.75638 21.9979 8.47999 21.8444 9.54031C21.7997 9.84905 21.6469 10.1552 21.6062 10.4002C20.5883 10.0578 18.8485 9.89709 17.7395 10.0319C17.0634 10.114 16.5421 10.1476 15.8735 10.2779C14.7195 10.5028 13.591 10.8182 12.4673 11.1296C10.7866 11.5954 9.12547 12.0899 7.39715 12.4041L7.39722 12.4041ZM7.75525 18.2528C7.70454 18.4442 7.40726 18.8256 7.30173 19.0051C7.23339 19.1212 7.15086 19.2563 7.07613 19.3699L5.92299 21.2611C5.47359 22.0128 5.69884 22.5381 6.70937 22.3857L8.85697 22.1051L9.07576 22.4859C9.16177 22.6184 9.24285 22.7132 9.33948 22.8433L10.1102 23.936C10.3918 24.4073 11.0719 24.2686 11.2781 23.8242C11.338 23.6952 11.3887 23.5292 11.442 23.3946C11.7115 22.7146 12.4005 21.3292 12.7655 20.5276L12.8324 20.4159C12.8401 20.4207 12.8507 20.4198 12.8544 20.4314L12.9735 20.5152C13.5605 20.9479 13.8577 21.3027 14.594 20.7696L15.1225 20.4126L16.6803 23.7638C16.8166 24.0672 16.9853 24.2666 17.4235 24.2169C17.7754 24.177 17.9032 23.8835 18.0703 23.6261L19.0461 22.1296C19.7282 22.1766 20.4621 22.3072 21.1311 22.3867C21.557 22.4374 21.7854 22.4793 22.0323 22.1833C22.2504 21.9219 22.1393 21.5312 21.9638 21.2751L20.3002 18.4975C20.2695 18.4435 20.236 18.3626 20.2 18.3026C20.8485 18.1207 21.3579 18.1903 22.0047 17.7765L22.2209 17.6199C22.6518 17.356 22.7474 16.8131 22.8479 16.2915C22.992 15.5442 23.6945 13.5677 23.9276 12.7126C24.0709 12.1867 24.0015 11.9152 23.7193 11.5388C23.5641 11.3318 23.1641 11.018 22.7664 10.9037C23.2178 9.42786 23.3969 8.40544 22.8914 6.89807C22.7555 6.49288 22.5388 6.06364 22.2868 5.73368C22.1516 5.55658 21.8864 5.19845 21.7417 5.06851L21.0753 4.55513C20.9507 4.47271 20.8261 4.41245 20.6794 4.32949C19.0936 3.4324 17.0734 3.69083 15.5885 4.65314L14.7566 5.31143C14.6753 5.38892 14.7071 5.39893 14.6137 5.47728C14.4784 5.59079 14.4166 5.59796 14.2903 5.74468L13.9505 6.02929L13.8306 5.92944C13.7429 5.85163 13.6268 5.79503 13.5557 5.70696C13.4784 5.61126 13.3801 5.56382 13.2904 5.47423L12.7801 5.02277C12.7273 4.97969 12.693 4.94666 12.6462 4.90834C12.3641 4.6773 12.0568 4.50397 11.7358 4.32875C10.7826 3.80856 9.58907 3.63523 8.50451 3.87669C7.80276 4.03289 7.20784 4.29412 6.66342 4.70321C6.19706 5.05364 6.25934 5.11687 6.02078 5.30224C5.76175 5.50354 5.36224 6.17768 5.22549 6.46372C4.71048 7.54099 4.61702 8.61401 4.83432 9.77616C4.91263 10.195 5.08093 10.7167 5.12131 10.945C5.15988 11.1633 5.08452 11.1822 4.94868 11.2499L4.26329 11.7744C3.74984 12.3528 4.10975 13.209 4.31719 13.8591C4.58782 14.7073 5.00681 16.0399 5.20346 16.8841C5.25413 17.1018 5.34723 17.3982 5.50102 17.5516C6.07461 18.1238 6.95566 18.276 7.75532 18.2529L7.75525 18.2528Z" fill="#C7F5FC"/>
</svg>
