<svg width="25" height="33" viewBox="0 0 25 33" fill="none" xmlns="http://www.w3.org/2000/svg">
<path fill-rule="evenodd" clip-rule="evenodd" d="M13.2182 12.2573L13.3542 14.2442C15.1257 15.0548 15.962 15.5411 16.6129 17.3659L14.5818 17.9354C12.5673 14.6557 9.66699 16.8505 10.5239 18.4176C11.5168 20.2341 14.6519 18.1349 16.3822 21.5518C17.4615 23.6842 16.0485 25.8914 13.5066 26.7934L13.1441 28.1943L11.6239 28.6058L11.4055 26.8267C9.4404 26.5523 8.02733 25.3427 7.78838 23.3891L9.46924 22.9152C10.3179 23.9128 10.4909 25.0143 12.419 24.9354C13.9721 24.8689 14.7672 23.9585 14.45 22.3665C12.6991 20.6996 9.80294 22.0797 8.50934 19.3944C7.35993 17.0001 9.42392 14.7389 11.4096 14.4645L11.3643 12.4527L13.2182 12.2573ZM7.92845 9.19793C6.16932 9.8256 3.10011 13.2549 1.98366 15.2252C0.533508 17.7858 -0.574704 21.6432 0.323401 24.9977C1.08555 27.8451 3.42145 30.0108 6.19404 30.9751C15.3564 34.1717 29.2317 30.4597 23.7606 16.784C22.4918 13.6124 20.9427 12.116 18.611 10.0584C17.1938 8.8072 16.0032 9.12311 13.7744 9.13143C12.4684 9.13558 8.82656 8.88202 7.92845 9.20209V9.19793Z" fill="white"/>
<path fill-rule="evenodd" clip-rule="evenodd" d="M7.85223 7.41037L17.4142 7.44363C17.8673 6.42107 19.6224 3.06242 19.5276 2.03986C16.9445 1.37062 16.4172 2.71325 14.1802 0.942477C13.7023 0.564214 12.9813 -0.17153 11.9843 0.036307C11.1439 0.21089 10.4848 1.0173 9.83795 1.4496C8.18181 2.55529 4.59351 0.809461 5.35979 2.99591C5.60285 3.68593 7.45674 6.96144 7.85223 7.41453V7.41037Z" fill="white"/>
</svg>
