<svg width="28" height="28" viewBox="0 0 28 28" fill="none" xmlns="http://www.w3.org/2000/svg">
<path fill-rule="evenodd" clip-rule="evenodd" d="M18.1988 13.7199L20.9969 4.64765C21.0961 4.326 20.8562 4 20.5203 4H13.5042L7.5188 4.00001C7.1834 4.00001 6.94354 4.32501 7.04173 4.6464L9.81241 13.7148C8.70377 14.8038 8.01592 16.3214 8.01592 18C8.01592 21.3137 10.6965 24 14.0031 24C17.3097 24 19.9902 21.3137 19.9902 18C19.9902 16.324 19.3045 14.8085 18.1988 13.7199ZM12.6931 12.1441L14.6268 5.5H19.1674L16.9273 12.7631C16.0625 12.2771 15.0651 12 14.0031 12C13.5531 12 13.1147 12.0497 12.6931 12.1441ZM13.0676 5.50001L11.0188 12.5397L8.86791 5.50001H13.0676ZM9.51271 18C9.51271 15.5147 11.5231 13.5 14.0031 13.5C16.483 13.5 18.4934 15.5147 18.4934 18C18.4934 20.4853 16.483 22.5 14.0031 22.5C11.5231 22.5 9.51271 20.4853 9.51271 18Z" fill="white"/>
</svg>
