<svg width="28" height="28" viewBox="0 0 28 28" fill="none" xmlns="http://www.w3.org/2000/svg">
<path d="M11.8174 11.7344V16H11.082L9.16895 12.9443V16H8.43359V11.7344H9.16895L11.0879 14.7959V11.7344H11.8174ZM15.4854 15.417V16H13.2207V15.417H15.4854ZM13.4287 11.7344V16H12.6934V11.7344H13.4287ZM15.1895 13.5156V14.0898H13.2207V13.5156H15.1895ZM15.4707 11.7344V12.3203H13.2207V11.7344H15.4707ZM17.1553 15.042L18.0049 11.7344H18.4502L18.4004 12.5869L17.4922 16H17.0293L17.1553 15.042ZM16.5195 11.7344L17.208 15.0156L17.2695 16H16.7773L15.79 11.7344H16.5195ZM19.4141 15.0068L20.0938 11.7344H20.8262L19.8389 16H19.3467L19.4141 15.0068ZM18.623 11.7344L19.4639 15.0508L19.5869 16H19.124L18.2305 12.5869L18.1836 11.7344H18.623Z" fill="white"/>
<path d="M16.8154 5.09375L16.9492 5.16016L17.0977 5.17676L19.6631 5.46387L20.9922 7.67969L21.0693 7.80762L21.1846 7.90234L23.1875 9.53223L23.1084 12.1133L23.1035 12.2627L23.1504 12.4053L23.9541 14.8584L22.4912 16.9873L22.4062 17.1104L22.3691 17.2549L21.7178 19.7539L19.3369 20.7539L19.1992 20.8125L19.0898 20.9131L17.1914 22.6641L14.6475 22.2178L14.5 22.1924L14.3525 22.2178L11.8076 22.6641L9.91016 20.9131L9.80078 20.8125L9.66309 20.7539L7.28125 19.7539L6.63086 17.2549L6.59375 17.1104L6.50879 16.9873L5.04492 14.8584L5.84961 12.4053L5.89648 12.2627L5.8916 12.1133L5.81152 9.53223L7.81543 7.90234L7.93066 7.80762L8.00781 7.67969L9.33594 5.46387L11.9023 5.17676L12.0508 5.16016L12.1846 5.09375L14.5 3.94727L16.8154 5.09375Z" stroke="white" stroke-width="1.7"/>
</svg>
