<svg width="28" height="28" viewBox="0 0 28 28" fill="none" xmlns="http://www.w3.org/2000/svg">
<path fill-rule="evenodd" clip-rule="evenodd" d="M16.0142 10.5883L15.6864 9.85697L13.9992 6.09374L12.3122 9.85695L11.9843 10.5882L11.1907 10.682L7.08463 11.1672L10.1997 13.7659L10.877 14.3309L10.6684 15.1897L9.71559 19.1106L13.3087 17.0866L13.9992 16.6977L14.6897 17.0866L18.2837 19.111L17.3316 15.1894L17.1232 14.3308L17.8004 13.7659L20.9153 11.1673L16.8079 10.682L16.0142 10.5883ZM11.0257 9.27626L5.83154 9.89006C5.01085 9.98704 4.70488 11.0228 5.34032 11.5529L9.29789 14.8543L8.08886 19.8298C7.89409 20.6313 8.74591 21.28 9.46286 20.8762L13.9992 18.3209L18.5362 20.8765C19.2531 21.2803 20.1049 20.6317 19.9103 19.8303L18.7022 14.8543L22.6597 11.5529C23.2951 11.0228 22.9891 9.98707 22.1684 9.8901L16.9729 9.27626L14.8569 4.55651C14.5242 3.81449 13.4742 3.8145 13.1416 4.55652L11.0257 9.27626Z" fill="white"/>
</svg>
