<svg width="28" height="28" viewBox="0 0 28 28" fill="none" xmlns="http://www.w3.org/2000/svg">
<path fill-rule="evenodd" clip-rule="evenodd" d="M14.3615 13.4986L15.4479 15.0113C15.4887 15.0681 15.5715 15.0757 15.6224 15.0275L16.9781 13.7415C17.2942 13.4417 17.5954 13.108 17.8779 12.7511C17.93 12.6853 18.0343 12.6938 18.0727 12.768C19.0601 14.6764 19.5447 16.6463 19.1058 18.3118C18.6603 20.0019 17.5203 21.292 15.8483 21.9056C15.7459 21.9431 15.6498 21.8241 15.6906 21.7245C15.8052 21.4446 15.8459 21.1058 15.782 20.6996C15.6649 19.9557 15.1574 19.5088 14.6486 19.0609C14.1158 18.5918 13.5817 18.1216 13.4934 17.3077C13.4831 17.2125 13.3673 17.1596 13.2935 17.222C11.8892 18.4082 11.3702 19.4895 11.2244 20.3819C11.1383 20.909 11.205 21.4004 11.4156 21.8053C11.4654 21.9009 11.377 22.0237 11.2727 21.9913C10.1944 21.6561 9.40367 21.073 8.85292 20.3663C7.95027 19.2082 7.51894 17.493 7.83162 15.417C8.13928 13.3742 9.44408 10.7769 12.1786 7.77415C12.2457 7.70042 12.3706 7.74076 12.3807 7.83918C12.5823 9.80242 13.1479 11.8089 14.3615 13.4986ZM17.0237 10.9945L17.0137 11.0098C16.9852 11.0533 16.9564 11.0965 16.9274 11.1394C16.6028 11.6185 16.2455 12.0568 15.8716 12.426C15.8217 12.4752 15.7389 12.4675 15.6991 12.41C15.3836 11.9536 15.1207 11.4647 14.9039 10.9528C14.2434 9.39302 14.0109 7.6195 14.0206 5.89998C14.021 5.82533 14.0219 5.75079 14.0232 5.67637C14.0287 5.36749 14.0418 5.06074 14.0614 4.75769C14.0687 4.64417 14.077 4.53118 14.0861 4.41878C14.1139 4.0746 13.6962 3.86479 13.4388 4.09986C13.3483 4.18245 13.2587 4.26489 13.17 4.34719C12.9427 4.5582 12.7211 4.76825 12.5053 4.97728C12.4385 5.04196 12.3723 5.10655 12.3066 5.17104C8.50532 8.90398 6.54997 12.3099 6.11948 15.1683C5.39033 20.0096 8.01735 24 13.4864 24C17.1733 24 19.9369 21.9414 20.7813 18.7378C21.459 16.1664 20.4735 13.3371 19.037 10.9695L19.0137 10.9311C18.9098 10.7608 18.8036 10.593 18.6956 10.4278C18.5681 10.2329 18.4381 10.0418 18.3062 9.85488C18.1375 9.6157 17.7673 9.65934 17.6374 9.92087C17.5341 10.1289 17.4236 10.3342 17.3069 10.5349C17.2161 10.6911 17.1215 10.8446 17.0237 10.9945Z" fill="white"/>
</svg>
