<svg width="28" height="28" viewBox="0 0 28 28" fill="none" xmlns="http://www.w3.org/2000/svg">
<path d="M13.9998 23.9997C12.4999 23.9997 11.2999 22.9997 10.9999 21.5997C10.9999 21.5997 10.9999 21.4997 10.8999 21.4997H10.7999C9.49991 22.2997 7.99993 22.0997 6.89995 21.0997C5.79997 19.9997 5.69997 18.4998 6.49996 17.1998V17.0998C6.49996 17.0998 6.49996 16.9998 6.39996 16.9998C4.99998 16.6998 4 15.4998 4 13.9998C4 12.4999 4.99998 11.2999 6.39996 10.9999C6.39996 10.9999 6.49996 10.9999 6.49996 10.8999V10.7999C5.69997 9.49991 5.89997 7.99993 6.89995 6.89995C7.99993 5.89997 9.49991 5.69997 10.7999 6.49996H10.8999C10.8999 6.49996 10.9999 6.49996 10.9999 6.39996C11.2999 4.99998 12.4999 4 13.9998 4C15.4998 4 16.6998 4.99998 16.9998 6.39996C17.2998 7.79994 16.9998 6.49996 17.0998 6.49996H17.1998C18.4998 5.69997 19.9997 5.89997 21.0997 6.89995C22.1997 7.99993 22.2997 9.49991 21.4997 10.7999V10.8999C21.4997 10.8999 21.4997 10.9999 21.5997 10.9999C22.9997 11.2999 23.9997 12.4999 23.9997 13.9998C23.9997 15.4998 22.9997 16.6998 21.5997 16.9998C21.5997 16.9998 21.4997 16.9998 21.4997 17.0998C21.4997 17.1998 21.4997 17.1998 21.4997 17.1998C22.2997 18.4998 22.0997 19.9997 21.0997 21.0997C20.0997 22.1997 18.4998 22.2997 17.1998 21.4997H17.0998C17.0998 21.4997 16.9998 21.4997 16.9998 21.5997C16.6998 22.9997 15.4998 23.9997 13.9998 23.9997ZM10.8999 19.9997C11.0999 19.9997 11.2999 19.9997 11.4999 20.0997C11.9999 20.2997 12.2999 20.6997 12.4999 21.1997C12.6999 22.0997 13.4998 22.4997 14.0998 22.4997C14.6998 22.4997 15.4998 22.1997 15.6998 21.1997C15.7998 20.6997 16.1998 20.2997 16.6998 20.0997C17.1998 19.8997 17.6998 19.8997 18.1998 20.1997C18.9998 20.6997 19.7997 20.3997 20.1997 19.9997C20.5997 19.5997 20.8997 18.7998 20.3997 17.9998C20.0997 17.5998 20.0997 16.9998 20.2997 16.4998C20.4997 15.9998 20.8997 15.6998 21.3997 15.4998C22.2997 15.2998 22.6997 14.4998 22.6997 13.8998C22.6997 13.2998 22.3997 12.4999 21.3997 12.2999C20.8997 12.1999 20.4997 11.7999 20.2997 11.2999C20.0997 10.7999 19.9997 10.3999 20.1997 9.9999C20.6997 9.19991 20.3997 8.39993 19.9997 7.99993C19.5997 7.59994 18.7998 7.29995 17.9998 7.79994C17.5998 8.09993 16.9998 8.09993 16.4998 7.89994C15.9998 7.69994 15.6998 7.29995 15.4998 6.79995C15.2998 5.89997 14.4998 5.49998 13.8998 5.49998C13.2998 5.49998 12.4999 5.79997 12.2999 6.79995C12.1999 7.29995 11.7999 7.69994 11.2999 7.89994C10.9999 8.09993 10.3999 7.99993 9.9999 7.79994C9.19991 7.29995 8.39993 7.59994 7.99993 7.99993C7.59994 8.39993 7.29995 9.19991 7.79994 9.9999C7.99993 10.3999 8.09993 10.9999 7.89994 11.4999C7.69994 11.9999 7.29995 12.2999 6.79995 12.4999C5.89997 12.6999 5.49998 13.4998 5.49998 14.0998C5.49998 14.6998 5.79997 15.4998 6.79995 15.6998C7.29995 15.7998 7.69994 16.1998 7.89994 16.6998C8.09993 16.9998 7.99993 17.5998 7.79994 17.9998C7.29995 18.7998 7.59994 19.5997 7.99993 19.9997C8.39993 20.3997 9.19991 20.6997 9.9999 20.1997C10.2999 20.0997 10.5999 19.9997 10.8999 19.9997Z" fill="white"/>
<path d="M13.0003 16.7983C12.8003 16.7983 12.6004 16.6983 12.5004 16.5984L10.5004 14.5984C10.2004 14.2984 10.2004 13.7984 10.5004 13.4984C10.8004 13.1984 11.3004 13.1984 11.6004 13.4984L13.1003 14.9984L16.6003 11.4984C16.9003 11.1984 17.4003 11.1984 17.7003 11.4984C18.0003 11.7984 18.0003 12.2984 17.7003 12.5984L13.7003 16.5984C13.4003 16.6983 13.2003 16.7983 13.0003 16.7983Z" fill="white"/>
</svg>
