<svg width="24" height="24" viewBox="0 0 24 24" fill="none" xmlns="http://www.w3.org/2000/svg">
<g opacity="0.3">
<path d="M10.0621 1C11.3909 1.01413 12.7013 1.31062 13.9055 1.86962C15.1097 2.42861 16.18 3.23719 17.0445 4.24118C17.909 5.24518 18.5479 6.42139 18.9183 7.69103C19.2887 8.96066 19.3821 10.2944 19.1921 11.6028C18.9025 12.8739 18.4108 14.0909 17.7356 15.2078C17.4159 15.8263 17.3448 16.1444 17.8866 16.6569C19.4231 18.1147 20.9151 19.6257 22.3894 21.1542C22.7802 21.5607 23.3841 21.9671 22.6648 22.674C21.9454 23.3808 21.5191 22.7712 21.1105 22.3912C19.5829 20.9333 18.082 19.4401 16.6077 17.9292C16.1014 17.4079 15.7728 17.3902 15.1245 17.8143C13.9302 18.59 12.5703 19.0774 11.1532 19.2377C9.73609 19.3979 8.30094 19.2267 6.96214 18.7375C5.62333 18.2483 4.4179 17.4548 3.44191 16.4201C2.46593 15.3854 1.74638 14.1383 1.34062 12.778C0.725767 10.5784 0.948583 8.23037 1.96636 6.18409C2.98413 4.13781 4.72525 2.53723 6.85594 1.68918C7.90276 1.36818 8.97546 1.1376 10.0621 1ZM17.4514 10.2333C17.4334 8.31141 16.664 6.47199 15.3062 5.10472C13.9485 3.73746 12.109 2.94976 10.1776 2.90851C8.22934 2.93113 6.36651 3.70754 4.98384 5.0732C3.60117 6.43887 2.80732 8.28647 2.77052 10.2245C2.79795 12.1532 3.57911 13.9956 4.94848 15.3612C6.31785 16.7269 8.16785 17.5085 10.1065 17.5404C12.0502 17.5266 13.9103 16.7522 15.2847 15.3849C16.6591 14.0175 17.4374 12.167 17.4514 10.2333Z" fill="white"/>
</g>
</svg>
