<svg width="28" height="28" viewBox="0 0 28 28" fill="none" xmlns="http://www.w3.org/2000/svg">
<path fill-rule="evenodd" clip-rule="evenodd" d="M16.1663 7.39025C14.8011 7.18235 13.3962 7.59789 12.2634 8.72588C11.0403 9.94376 10.654 11.4665 10.947 12.898C11.0492 13.3976 10.9035 13.9353 10.5203 14.318L6.7383 18.094C6.21321 18.6182 6.21379 19.4685 6.73958 19.9921L8.02246 21.2695C8.54706 21.7918 9.39614 21.7913 9.92003 21.2682L13.7414 17.4528C14.1193 17.0756 14.6495 16.9276 15.1459 17.0202C16.5608 17.284 18.0592 16.8932 19.2624 15.6951C20.3916 14.5708 20.8098 13.1774 20.6058 11.8223L19.2633 13.1634C18.3887 14.037 16.9687 14.0382 16.0928 13.1659L14.8174 11.896C13.9426 11.025 13.9415 9.61268 14.8148 8.7403L16.1663 7.39025ZM17.2792 6.27856C15.2528 5.64193 13.0208 6.0779 11.3124 7.77898C9.76593 9.31885 9.24727 11.2993 9.62919 13.1654C9.64452 13.2403 9.6222 13.3182 9.56801 13.3723L5.78605 17.1483C4.73698 18.1958 4.73813 19.893 5.78862 20.939L7.0715 22.2164C8.12181 23.2622 9.82339 23.2611 10.8723 22.2138L14.6936 18.3985C14.7471 18.3451 14.8239 18.3225 14.8983 18.3364C16.7446 18.6807 18.6929 18.156 20.2134 16.642C21.92 14.9427 22.3587 12.7231 21.7223 10.707C21.7198 10.6993 21.7173 10.6915 21.7149 10.6838C21.6631 10.5221 21.6044 10.3617 21.5389 10.203C21.4616 10.0155 21.3746 9.83047 21.2784 9.64839C21.2099 9.51879 21.0354 9.49638 20.9315 9.60011L20.4468 10.0843L20.1519 10.3789L20.1461 10.3847L18.3108 12.218C17.9612 12.5673 17.3939 12.5677 17.0437 12.219L15.7683 10.9491C15.4182 10.6005 15.4178 10.0349 15.7673 9.68568L17.6048 7.8501L17.6102 7.84471L17.8979 7.55732L18.3898 7.066C18.4934 6.96251 18.4707 6.78931 18.3409 6.72114C18.1561 6.62405 17.9682 6.5365 17.7778 6.45863C17.6206 6.39432 17.4617 6.33662 17.3015 6.28563C17.2941 6.28326 17.2866 6.2809 17.2792 6.27856Z" fill="#C7F5FC"/>
</svg>
