<svg width="28" height="28" viewBox="0 0 28 28" fill="none" xmlns="http://www.w3.org/2000/svg">
<path d="M19.2292 16.4829L21.9186 12.086H19.5859C18.4469 12.0459 18.4478 10.4967 19.5859 10.457H23.4102C23.7174 10.457 24.0014 10.6125 24.1548 10.8649C24.3082 11.1172 24.3078 11.428 24.1536 11.68L20.7161 17.2999C20.5568 17.5605 20.2683 17.706 19.9719 17.706C19.8256 17.7061 19.6774 17.6707 19.5417 17.5961C19.131 17.3704 18.9911 16.8721 19.2292 16.4829ZM3.85938 9.0724C4.33401 9.0724 4.71875 8.70776 4.71875 8.25792C4.71875 7.35971 5.48978 6.62896 6.4375 6.62896H9.74609V8.25792C9.78833 9.33743 11.423 9.33662 11.4648 8.25792V6.62896H17.0078V8.25792C17.0501 9.33743 18.6847 9.33662 18.7266 8.25792V6.62896H21.5625C22.5102 6.62896 23.2812 7.35971 23.2812 8.25792C23.2812 8.70776 23.666 9.0724 24.1406 9.0724C24.6153 9.0724 25 8.70776 25 8.25792C25 6.4615 23.4579 5 21.5625 5H6.4375C4.54206 5 3 6.4615 3 8.25792C3 8.70776 3.38474 9.0724 3.85938 9.0724ZM24.1406 18.9276C23.666 18.9276 23.2812 19.2922 23.2812 19.7421C23.2812 20.6403 22.5102 21.371 21.5625 21.371H18.7266V19.7421C18.6843 18.6626 17.0497 18.6634 17.0078 19.7421V21.371H11.4648V19.7421C11.4226 18.6626 9.78795 18.6634 9.74609 19.7421V21.371H6.4375C5.48978 21.371 4.71875 20.6403 4.71875 19.7421C4.71875 19.2922 4.33401 18.9276 3.85938 18.9276C3.38474 18.9276 3 19.2922 3 19.7421C3 21.5385 4.54206 23 6.4375 23H21.5625C23.4579 23 25 21.5385 25 19.7421C25 19.2922 24.6153 18.9276 24.1406 18.9276ZM12.28 17.5961C12.4156 17.6706 12.5638 17.706 12.7102 17.706C13.0066 17.706 13.2951 17.5605 13.4544 17.2999L16.8919 11.68C17.0461 11.428 17.0465 11.1172 16.893 10.8649C16.7396 10.6125 16.4557 10.457 16.1484 10.457H12.3242C11.1852 10.497 11.1861 12.0463 12.3242 12.086H14.6569L11.9674 16.4829C11.7294 16.8721 11.8693 17.3704 12.28 17.5961ZM5.01824 17.5961C5.15389 17.6706 5.30209 17.706 5.44845 17.706C5.74489 17.706 6.03334 17.5605 6.19271 17.2999L9.63021 11.68C9.78434 11.428 9.78477 11.1172 9.63132 10.8649C9.47793 10.6125 9.19399 10.457 8.88672 10.457H5.0625C3.92348 10.497 3.92434 12.0463 5.0625 12.086H7.39519L4.70573 16.4829C4.46768 16.8721 4.60759 17.3704 5.01824 17.5961Z" fill="#C7F5FC"/>
</svg>
