<svg width="50" height="50" viewBox="0 0 50 50" fill="none" xmlns="http://www.w3.org/2000/svg">
<g clip-path="url(#clip0_199_140216)">
<rect width="50" height="50" rx="25" fill="white"/>
<path d="M25.0085 0C38.8026 0 50 11.2 50 24.9915C50 38.8057 38.7799 50.017 24.9688 50C11.1747 49.983 -0.00566742 38.7774 2.15533e-06 24.9802C0.00567173 11.1943 11.2144 0 25.0085 0ZM0.345846 20.8461C-0.447894 25.5869 0.396873 29.3978 0.42522 29.5906C0.42522 29.7437 10.3753 33.8947 11.5603 34.3427C11.9458 34.4902 12.1612 34.6943 12.2916 35.1083C13.1988 38.0401 16.0166 39.9285 19.0725 39.6904C22.083 39.4579 24.5379 37.1895 25.0312 34.1953C25.0652 33.9798 25.224 33.7303 25.4054 33.5999C28.0134 31.6945 30.6327 29.8004 33.2577 27.9233C33.4335 27.7986 33.6773 27.7192 33.8927 27.7078C39.0974 27.5094 42.9811 22.8536 42.2213 17.7101C41.5637 13.2528 37.578 10.0715 32.9402 10.304C28.5463 10.5251 24.9121 14.1885 24.6967 18.5948C24.6853 18.8103 24.6003 19.0541 24.4756 19.2299C22.82 21.606 21.1419 23.9707 19.4863 26.3468C19.2879 26.6304 19.0781 26.7211 18.7436 26.7041C17.587 26.6417 16.5041 26.9082 15.4666 27.43C15.2909 27.515 15.0187 27.515 14.8316 27.447C13.6637 27.0047 0.340177 20.7894 0.340177 20.8518L0.345846 20.8461Z" fill="#28396E"/>
<path d="M33.4905 24.8325C30.1908 24.8098 27.5715 22.1842 27.5998 18.9234C27.6282 15.7194 30.3212 13.1392 33.5982 13.1732C36.8469 13.2072 39.4322 15.8498 39.4039 19.1106C39.3755 22.2806 36.7165 24.8552 33.4905 24.8325ZM33.5075 22.5018C35.4635 22.5074 37.0397 20.9479 37.0454 18.9915C37.051 17.0691 35.4749 15.4982 33.5472 15.4926C31.6196 15.4926 30.0434 17.0464 30.0264 18.9745C30.0094 20.8912 31.5856 22.4904 33.5019 22.4961L33.5075 22.5018Z" fill="#28396E"/>
<path d="M14.3438 35.4713C15.2339 35.8172 16.0276 36.1518 16.844 36.4353C18.4769 37.0024 20.2344 36.4297 21.2266 35.029C22.2018 33.6509 22.1791 31.7739 21.0679 30.4866C20.6483 30.0046 20.053 29.6416 19.4804 29.3241C18.9191 29.0122 18.2898 28.825 17.6718 28.5755C19.2082 27.7986 21.958 29.1539 22.9048 31.1274C24.0671 33.5489 23.0295 36.4694 20.603 37.5979C18.2898 38.6697 15.3246 37.6943 14.3494 35.477L14.3438 35.4713Z" fill="#28396E"/>
</g>
<defs>
<clipPath id="clip0_199_140216">
<rect width="50" height="50" rx="25" fill="white"/>
</clipPath>
</defs>
</svg>
