<svg width="38" height="38" viewBox="0 0 38 38" fill="none" xmlns="http://www.w3.org/2000/svg">
<path d="M21.5449 10.5176H11.3663C10.8981 10.5176 10.5181 10.8976 10.5181 11.3658C10.5181 11.834 10.8981 12.214 11.3663 12.214H21.5449C22.0131 12.214 22.3931 11.834 22.3931 11.3658C22.3931 10.8976 22.0131 10.5176 21.5449 10.5176Z" fill="#C7F5FC"/>
<path d="M18.152 13.9111H11.3663C10.8981 13.9111 10.5181 14.2911 10.5181 14.7593C10.5181 15.2276 10.8981 15.6076 11.3663 15.6076H18.152C18.6202 15.6076 19.0002 15.2276 19.0002 14.7593C19.0002 14.2911 18.6202 13.9111 18.152 13.9111Z" fill="#C7F5FC"/>
<path d="M24.0894 5.42871H8.82157C6.95041 5.42871 5.42871 6.95041 5.42871 8.82157V25.7859C5.42871 26.115 5.61871 26.4152 5.91728 26.5543C6.03094 26.6069 6.15478 26.6341 6.27693 26.6341C6.47201 26.6341 6.66541 26.5662 6.81978 26.4373L11.6733 22.393H24.0894C25.9606 22.393 27.4823 20.8713 27.4823 19.0001V8.82157C27.4823 6.95041 25.9606 5.42871 24.0894 5.42871ZM25.7859 19.0001C25.7859 19.9349 25.0259 20.6966 24.0894 20.6966H11.3662C11.1677 20.6966 10.976 20.7661 10.8234 20.8934L7.12514 23.9758V8.82157C7.12514 7.88684 7.88514 7.12514 8.82157 7.12514H24.0894C25.0259 7.12514 25.7859 7.88684 25.7859 8.82157V19.0001Z" fill="#C7F5FC"/>
<path d="M29.1786 12.2139C28.7104 12.2139 28.3304 12.5939 28.3304 13.0621C28.3304 13.5303 28.7104 13.9103 29.1786 13.9103C30.1151 13.9103 30.8751 14.672 30.8751 15.6067V29.9568L28.0115 27.6666C27.8622 27.5479 27.6739 27.4817 27.4822 27.4817H15.6072C14.6708 27.4817 13.9108 26.72 13.9108 25.7853V24.9371C13.9108 24.4689 13.5308 24.0889 13.0626 24.0889C12.5944 24.0889 12.2144 24.4689 12.2144 24.9371V25.7853C12.2144 27.6565 13.7361 29.1782 15.6072 29.1782H27.1836L31.1923 32.3861C31.3467 32.5082 31.535 32.571 31.7233 32.571C31.8471 32.571 31.9727 32.5439 32.0914 32.4879C32.3849 32.3454 32.5715 32.0485 32.5715 31.7228V15.6067C32.5715 13.7356 31.0498 12.2139 29.1786 12.2139Z" fill="#C7F5FC"/>
</svg>
