<svg width="28" height="28" viewBox="0 0 28 28" fill="none" xmlns="http://www.w3.org/2000/svg">
<path d="M16.7493 4.6916L17.4459 3H10.5541L11.2508 4.6916C6.98442 5.95589 4 10.0021 4 14.6469C4 23.9161 14.8368 28.4214 21.071 21.9673C22.9598 20.0119 24 17.4121 24 14.6469C24 9.99735 21.0114 5.95468 16.7493 4.6916ZM6.526 15.2939C6.65392 16.9101 7.25996 18.4247 8.27321 19.6606L7.3895 20.5756C6.18521 19.1383 5.41042 17.3058 5.27254 15.2939H6.526ZM12.7405 8.30873L14 11.367L15.2596 8.30873C18.0894 8.91221 20.25 11.4929 20.25 14.6469C20.25 18.2224 17.4553 21.1174 14 21.1174C10.5463 21.1174 7.75 18.224 7.75 14.6469C7.75 11.5011 9.90371 8.91364 12.7405 8.30873ZM9.15708 20.5757C10.351 21.6247 11.814 22.2521 13.375 22.3845V23.6822C11.4317 23.5395 9.66163 22.7374 8.27338 21.4906L9.15708 20.5757ZM14.625 22.3845C16.1861 22.2521 17.6491 21.6247 18.8429 20.5757L19.7266 21.4906C18.3384 22.7373 16.5682 23.5395 14.625 23.6822V22.3845H14.625ZM19.7268 19.6606C20.7401 18.4246 21.3461 16.91 21.474 15.2939H22.7275C22.5896 17.3058 21.8148 19.1383 20.6105 20.5756L19.7268 19.6606ZM22.7272 13.9998H21.474C21.3461 12.3836 20.74 10.8691 19.7268 9.63311L20.6088 8.72C21.8192 10.1691 22.5891 12.0098 22.7272 13.9998ZM19.7265 7.80334L18.8426 8.7184C17.9508 7.93866 16.8888 7.38177 15.758 7.09849L16.2548 5.89235C17.564 6.25276 18.7434 6.91766 19.7265 7.80334ZM15.5541 4.2941L14 8.06755L12.4459 4.2941H15.5541ZM12.242 7.09849C11.1111 7.38173 10.0492 7.93866 9.15742 8.7184L8.27354 7.80334C9.25667 6.91771 10.436 6.2528 11.7453 5.89235L12.242 7.09849ZM7.39121 8.72L8.27321 9.63311C7.25992 10.8691 6.65392 12.3837 6.526 13.9998H5.27279C5.41092 12.0098 6.18079 10.1691 7.39121 8.72Z" fill="white"/>
<path d="M11.0884 18.8985L12.9355 17.0514C13.2711 17.2112 13.6355 17.2917 14 17.2917C14.3645 17.2917 14.7288 17.2112 15.0645 17.0514L16.9116 18.8985L18.0763 17.7339L16.2291 15.8868C16.5489 15.2155 16.5489 14.4291 16.2291 13.7579L18.0763 11.9107L16.9116 10.7461L15.0645 12.5932C14.3932 12.2735 13.6068 12.2735 12.9356 12.5932L11.0884 10.7461L9.92383 11.9107L11.7709 13.7579C11.4511 14.4291 11.4511 15.2155 11.7709 15.8868L9.92383 17.7339L11.0884 18.8985ZM14.5823 14.2401C14.7378 14.3956 14.8235 14.6024 14.8235 14.8223C14.8235 15.0423 14.7379 15.2491 14.5823 15.4047C14.4268 15.5602 14.2199 15.6459 14 15.6459C13.78 15.6459 13.5733 15.5602 13.4177 15.4047C13.2622 15.2491 13.1765 15.0423 13.1765 14.8223C13.1765 14.6023 13.2622 14.3956 13.4177 14.2401C13.5733 14.0845 13.7801 13.9988 14 13.9988C14.2199 13.9988 14.4267 14.0845 14.5823 14.2401Z" fill="white"/>
</svg>
