<svg width="25" height="24" viewBox="0 0 25 24" fill="none" xmlns="http://www.w3.org/2000/svg">
<path fill-rule="evenodd" clip-rule="evenodd" d="M21.8788 8.56726L19.4783 9.63091C19.6675 13.1635 20.0295 16.8509 15.3491 19.5326C8.1541 23.655 -1.8035 15.091 4.65769 6.59466C5.38502 5.63737 7.45939 4.25785 9.37393 3.87429C12.6257 3.2232 13.1215 4.15148 15.6557 4.56727C15.9623 3.83561 16.3244 3.5842 16.6342 2.67526L15.8808 2.13699C9.98385 -1.25703 -0.0455067 3.19097 0.000155378 12.1547C0.0458175 21.4729 10.6786 25.734 16.7908 21.8758C20.8188 19.3359 23.3531 14.9298 21.8756 8.57048L21.8788 8.56726Z" fill="white"/>
<path fill-rule="evenodd" clip-rule="evenodd" d="M24.9699 3.28811L22.6933 2.68538C22.7716 1.70875 23.026 0.996424 22.5204 0.0971533C19.6372 -0.747323 17.7194 4.14226 16.4571 5.91179L12.3639 10.6563C11.9235 11.085 10.9222 11.6362 11.4213 12.471C12.0997 13.6055 13.799 11.9488 15.1036 10.969C20.5276 6.88842 21.431 7.67488 24.1903 5.2736C24.9536 4.61284 25.0644 4.53871 24.9699 3.28811Z" fill="white"/>
<path fill-rule="evenodd" clip-rule="evenodd" d="M16.4921 11.7525C14.9494 12.7839 11.1595 16.9773 8.88614 13.767C7.77394 12.1973 8.46866 10.2602 9.81895 9.76702C11.4106 9.18685 11.3812 10.3214 13.5339 7.10467C12.1412 6.98219 11.3519 6.63731 9.89723 7.03054C6.17577 8.04262 4.7896 11.817 6.77916 15.153C9.49606 19.7041 17.2814 16.987 16.4889 11.7493L16.4921 11.7525Z" fill="white"/>
</svg>
