<svg width="26" height="26" viewBox="0 0 26 26" fill="none" xmlns="http://www.w3.org/2000/svg">
<g opacity="0.6">
<path d="M13 0C20.18 0 26 5.82024 26 13C26 20.1798 20.18 26 13 26C5.81996 26 0 20.1798 0 13C3.06011e-07 5.82024 5.81996 3.06005e-07 13 0ZM8.3584 8.57422V18.8271C8.3584 19.6346 9.01306 20.2891 9.81934 20.2891H16.4268C17.235 20.2889 17.8877 19.6345 17.8877 18.8271V8.57422H8.3584ZM10.375 9.93457C10.6485 9.93466 10.8721 10.1581 10.8721 10.4316V18.3721C10.8721 18.6469 10.6485 18.8691 10.375 18.8691C10.1014 18.8691 9.87988 18.6469 9.87988 18.3721V10.4316C9.87988 10.158 10.1014 9.93457 10.375 9.93457ZM13.1387 9.93457C13.4122 9.93466 13.6348 10.1581 13.6348 10.4316V18.3721C13.6348 18.6469 13.4122 18.8691 13.1387 18.8691C12.8641 18.8691 12.6426 18.6469 12.6426 18.3721V10.4316C12.6426 10.158 12.8641 9.93457 13.1387 9.93457ZM15.9023 9.93457C16.176 9.93457 16.3984 10.1581 16.3984 10.4316V18.3721C16.3984 18.6469 16.176 18.8691 15.9023 18.8691C15.6276 18.8691 15.4062 18.6469 15.4062 18.3721V10.4316C15.4062 10.1581 15.6276 9.93465 15.9023 9.93457ZM12.1768 5.48926C11.7249 5.48936 11.3587 5.83097 11.3105 6.26855H9.2998C8.31397 6.26855 7.51751 7.06743 7.51172 8.05078H18.7363C18.7324 7.06748 17.9353 6.26856 16.9482 6.26855H14.9365C14.8881 5.83102 14.5206 5.48948 14.0713 5.48926H12.1768Z" fill="white"/>
</g>
</svg>
