<svg width="18" height="18" viewBox="0 0 18 18" fill="none" xmlns="http://www.w3.org/2000/svg">
<rect width="18" height="18" rx="9" fill="#3E30E9"/>
<path d="M9.29102 4.23828V5.72754H8.55859V4.23828H9.29102ZM9.20312 12.2119V13.5156H8.47559V12.2119H9.20312ZM10.1797 10.6689C10.1797 10.4736 10.1357 10.2979 10.0479 10.1416C9.95996 9.98535 9.8151 9.84212 9.61328 9.71191C9.41146 9.58171 9.14128 9.46126 8.80273 9.35059C8.39258 9.22363 8.03776 9.06901 7.73828 8.88672C7.44206 8.70443 7.21257 8.47819 7.0498 8.20801C6.8903 7.93783 6.81055 7.61068 6.81055 7.22656C6.81055 6.82617 6.89681 6.48112 7.06934 6.19141C7.24186 5.90169 7.486 5.67871 7.80176 5.52246C8.11751 5.36621 8.48861 5.28809 8.91504 5.28809C9.24707 5.28809 9.54329 5.33854 9.80371 5.43945C10.0641 5.53711 10.2839 5.68359 10.4629 5.87891C10.6452 6.07422 10.7835 6.31348 10.8779 6.59668C10.9756 6.87988 11.0244 7.20703 11.0244 7.57812H10.126C10.126 7.36003 10.0999 7.15983 10.0479 6.97754C9.99577 6.79525 9.91764 6.63737 9.81348 6.50391C9.70931 6.36719 9.58236 6.26302 9.43262 6.19141C9.28288 6.11654 9.11035 6.0791 8.91504 6.0791C8.6416 6.0791 8.41536 6.1263 8.23633 6.2207C8.06055 6.3151 7.93034 6.44857 7.8457 6.62109C7.76107 6.79036 7.71875 6.9873 7.71875 7.21191C7.71875 7.42025 7.76107 7.60254 7.8457 7.75879C7.93034 7.91504 8.07357 8.05664 8.27539 8.18359C8.48047 8.30729 8.76204 8.42936 9.12012 8.5498C9.54004 8.68327 9.89648 8.84115 10.1895 9.02344C10.4824 9.20247 10.7054 9.42383 10.8584 9.6875C11.0114 9.94792 11.0879 10.2718 11.0879 10.6592C11.0879 11.0791 10.9935 11.4339 10.8047 11.7236C10.6159 12.0101 10.3506 12.2282 10.0088 12.3779C9.66699 12.5277 9.2666 12.6025 8.80762 12.6025C8.53092 12.6025 8.25749 12.5651 7.9873 12.4902C7.71712 12.4154 7.47298 12.2933 7.25488 12.124C7.03678 11.9515 6.86263 11.7253 6.73242 11.4453C6.60221 11.1621 6.53711 10.8154 6.53711 10.4053H7.44531C7.44531 10.682 7.48438 10.9115 7.5625 11.0938C7.64388 11.2728 7.7513 11.416 7.88477 11.5234C8.01823 11.6276 8.16471 11.7025 8.32422 11.748C8.48698 11.7904 8.64811 11.8115 8.80762 11.8115C9.10059 11.8115 9.34798 11.766 9.5498 11.6748C9.75488 11.5804 9.91113 11.4469 10.0186 11.2744C10.126 11.1019 10.1797 10.9001 10.1797 10.6689Z" fill="white"/>
</svg>
