<svg width="50" height="50" viewBox="0 0 50 50" fill="none" xmlns="http://www.w3.org/2000/svg">
<g clip-path="url(#clip0_199_140217)">
<rect width="50" height="50" rx="25" fill="white"/>
<path d="M14.293 12.8311L32.7846 37.0081H35.618L17.3367 12.8311H14.293Z" fill="#28396E"/>
<path d="M25 0C11.1937 0 0 11.1937 0 25C0 38.8062 11.1937 50 25 50C38.8062 50 50 38.8062 50 25C50 11.1937 38.8062 0 25 0ZM31.3812 40.0667L23.3187 29.5354L14.1062 40.0667H8.98542L20.9292 26.4125L8.33333 9.93333H18.8792L26.1583 19.5604L34.5812 9.93333H39.6958L28.5271 22.6958L41.6667 40.0646L31.3812 40.0667Z" fill="#28396E"/>
</g>
<defs>
<clipPath id="clip0_199_140217">
<rect width="50" height="50" rx="25" fill="white"/>
</clipPath>
</defs>
</svg>
