<svg width="30" height="30" viewBox="0 0 30 30" fill="none" xmlns="http://www.w3.org/2000/svg">
<g clip-path="url(#clip0_270_117345)">
<path d="M4.60254 6.26367L11.9111 15.8262L5.01465 23.7109L4.29004 24.54H8.69043L8.83984 24.3691L13.9648 18.5098L18.4316 24.3438L18.582 24.54H18.8291L25 24.5391L25.9199 24.5381C23.2619 27.5786 19.3554 29.5 15 29.5C6.99239 29.5 0.5 23.0076 0.5 15C0.5 11.3739 1.83082 8.05815 4.03125 5.51562L4.60254 6.26367ZM15 0.5C23.0076 0.5 29.5 6.99239 29.5 15C29.5 18.6273 28.1676 21.9435 25.9658 24.4863L25.3984 23.7373L17.7598 13.6396L24.1934 6.28906L24.9199 5.45996H20.5215L20.3721 5.63086L15.7227 10.9443L11.7266 5.6582L11.5762 5.45996H4.08105C6.73905 2.42033 10.6453 0.5 15 0.5Z" stroke="#C7F5FC"/>
</g>
<defs>
<clipPath id="clip0_270_117345">
<rect width="30" height="30" rx="15" fill="white"/>
</clipPath>
</defs>
</svg>
